G75*
%MOIN*%
%OFA0B0*%
%FSLAX25Y25*%
%IPPOS*%
%LPD*%
%AMOC8*
5,1,8,0,0,1.08239X$1,22.5*
%
%ADD10C,0.00000*%
%ADD11C,0.00600*%
%ADD12C,0.00100*%
%ADD13C,0.01000*%
%ADD14C,0.00500*%
D10*
X0011300Y0011300D02*
X0011300Y0208150D01*
X0208150Y0208150D01*
X0208150Y0011300D01*
X0011300Y0011300D01*
D11*
X0028094Y0073100D02*
X0029871Y0073100D01*
X0029871Y0079500D01*
X0028094Y0079500D01*
X0028012Y0079498D01*
X0027930Y0079492D01*
X0027848Y0079483D01*
X0027767Y0079470D01*
X0027687Y0079453D01*
X0027607Y0079432D01*
X0027529Y0079408D01*
X0027452Y0079380D01*
X0027376Y0079349D01*
X0027301Y0079314D01*
X0027229Y0079275D01*
X0027158Y0079234D01*
X0027089Y0079189D01*
X0027023Y0079141D01*
X0026958Y0079090D01*
X0026896Y0079036D01*
X0026837Y0078979D01*
X0026780Y0078920D01*
X0026726Y0078858D01*
X0026675Y0078793D01*
X0026627Y0078727D01*
X0026582Y0078658D01*
X0026541Y0078587D01*
X0026502Y0078515D01*
X0026467Y0078440D01*
X0026436Y0078364D01*
X0026408Y0078287D01*
X0026384Y0078209D01*
X0026363Y0078129D01*
X0026346Y0078049D01*
X0026333Y0077968D01*
X0026324Y0077886D01*
X0026318Y0077804D01*
X0026316Y0077722D01*
X0026316Y0074878D01*
X0026318Y0074796D01*
X0026324Y0074714D01*
X0026333Y0074632D01*
X0026346Y0074551D01*
X0026363Y0074471D01*
X0026384Y0074391D01*
X0026408Y0074313D01*
X0026436Y0074236D01*
X0026467Y0074160D01*
X0026502Y0074085D01*
X0026541Y0074013D01*
X0026582Y0073942D01*
X0026627Y0073873D01*
X0026675Y0073807D01*
X0026726Y0073742D01*
X0026780Y0073680D01*
X0026837Y0073621D01*
X0026896Y0073564D01*
X0026958Y0073510D01*
X0027023Y0073459D01*
X0027089Y0073411D01*
X0027158Y0073366D01*
X0027229Y0073325D01*
X0027301Y0073286D01*
X0027376Y0073251D01*
X0027452Y0073220D01*
X0027529Y0073192D01*
X0027607Y0073168D01*
X0027687Y0073147D01*
X0027767Y0073130D01*
X0027848Y0073117D01*
X0027930Y0073108D01*
X0028012Y0073102D01*
X0028094Y0073100D01*
X0032880Y0073100D02*
X0032880Y0079500D01*
X0036436Y0079500D02*
X0032880Y0073100D01*
X0036436Y0073100D02*
X0036436Y0079500D01*
X0039444Y0079500D02*
X0041578Y0079500D01*
X0041652Y0079498D01*
X0041727Y0079492D01*
X0041800Y0079482D01*
X0041874Y0079469D01*
X0041946Y0079452D01*
X0042017Y0079430D01*
X0042088Y0079406D01*
X0042156Y0079377D01*
X0042224Y0079345D01*
X0042289Y0079309D01*
X0042352Y0079271D01*
X0042414Y0079228D01*
X0042473Y0079183D01*
X0042530Y0079135D01*
X0042584Y0079084D01*
X0042635Y0079030D01*
X0042683Y0078973D01*
X0042728Y0078914D01*
X0042771Y0078852D01*
X0042809Y0078789D01*
X0042845Y0078724D01*
X0042877Y0078656D01*
X0042906Y0078588D01*
X0042930Y0078517D01*
X0042952Y0078446D01*
X0042969Y0078374D01*
X0042982Y0078300D01*
X0042992Y0078227D01*
X0042998Y0078152D01*
X0043000Y0078078D01*
X0043000Y0074522D01*
X0042998Y0074448D01*
X0042992Y0074373D01*
X0042982Y0074300D01*
X0042969Y0074226D01*
X0042952Y0074154D01*
X0042930Y0074083D01*
X0042906Y0074012D01*
X0042877Y0073944D01*
X0042845Y0073876D01*
X0042809Y0073811D01*
X0042771Y0073748D01*
X0042728Y0073686D01*
X0042683Y0073627D01*
X0042635Y0073570D01*
X0042584Y0073516D01*
X0042530Y0073465D01*
X0042473Y0073417D01*
X0042414Y0073372D01*
X0042352Y0073329D01*
X0042289Y0073291D01*
X0042224Y0073255D01*
X0042156Y0073223D01*
X0042088Y0073194D01*
X0042017Y0073170D01*
X0041946Y0073148D01*
X0041874Y0073131D01*
X0041800Y0073118D01*
X0041727Y0073108D01*
X0041652Y0073102D01*
X0041578Y0073100D01*
X0039444Y0073100D01*
X0039444Y0076656D01*
X0040511Y0076656D01*
X0034500Y0083100D02*
X0032722Y0083100D01*
X0032639Y0083102D01*
X0032556Y0083108D01*
X0032473Y0083118D01*
X0032390Y0083131D01*
X0032309Y0083149D01*
X0032228Y0083170D01*
X0032149Y0083195D01*
X0032071Y0083224D01*
X0031994Y0083256D01*
X0031919Y0083292D01*
X0031845Y0083331D01*
X0031774Y0083374D01*
X0031704Y0083420D01*
X0031637Y0083470D01*
X0031572Y0083522D01*
X0031510Y0083577D01*
X0031450Y0083636D01*
X0031393Y0083697D01*
X0031339Y0083760D01*
X0031288Y0083826D01*
X0031241Y0083895D01*
X0031196Y0083965D01*
X0031155Y0084038D01*
X0031118Y0084112D01*
X0031083Y0084188D01*
X0031053Y0084266D01*
X0031026Y0084344D01*
X0031003Y0084425D01*
X0030983Y0084506D01*
X0030968Y0084588D01*
X0030956Y0084670D01*
X0030948Y0084753D01*
X0030944Y0084836D01*
X0030944Y0084920D01*
X0030948Y0085003D01*
X0030956Y0085086D01*
X0030968Y0085168D01*
X0030983Y0085250D01*
X0031003Y0085331D01*
X0031026Y0085412D01*
X0031053Y0085490D01*
X0031083Y0085568D01*
X0031118Y0085644D01*
X0031155Y0085718D01*
X0031196Y0085791D01*
X0031241Y0085861D01*
X0031288Y0085930D01*
X0031339Y0085996D01*
X0031393Y0086059D01*
X0031450Y0086120D01*
X0031510Y0086179D01*
X0031572Y0086234D01*
X0031637Y0086286D01*
X0031704Y0086336D01*
X0031774Y0086382D01*
X0031845Y0086425D01*
X0031919Y0086464D01*
X0031994Y0086500D01*
X0032071Y0086532D01*
X0032149Y0086561D01*
X0032228Y0086586D01*
X0032309Y0086607D01*
X0032390Y0086625D01*
X0032473Y0086638D01*
X0032556Y0086648D01*
X0032639Y0086654D01*
X0032722Y0086656D01*
X0032367Y0086656D02*
X0033789Y0086656D01*
X0032367Y0086656D02*
X0032293Y0086658D01*
X0032218Y0086664D01*
X0032145Y0086674D01*
X0032071Y0086687D01*
X0031999Y0086704D01*
X0031928Y0086726D01*
X0031857Y0086750D01*
X0031789Y0086779D01*
X0031721Y0086811D01*
X0031656Y0086847D01*
X0031593Y0086885D01*
X0031531Y0086928D01*
X0031472Y0086973D01*
X0031415Y0087021D01*
X0031361Y0087072D01*
X0031310Y0087126D01*
X0031262Y0087183D01*
X0031217Y0087242D01*
X0031174Y0087304D01*
X0031136Y0087367D01*
X0031100Y0087432D01*
X0031068Y0087500D01*
X0031039Y0087568D01*
X0031015Y0087639D01*
X0030993Y0087710D01*
X0030976Y0087782D01*
X0030963Y0087856D01*
X0030953Y0087929D01*
X0030947Y0088004D01*
X0030945Y0088078D01*
X0030947Y0088152D01*
X0030953Y0088227D01*
X0030963Y0088300D01*
X0030976Y0088374D01*
X0030993Y0088446D01*
X0031015Y0088517D01*
X0031039Y0088588D01*
X0031068Y0088656D01*
X0031100Y0088724D01*
X0031136Y0088789D01*
X0031174Y0088852D01*
X0031217Y0088914D01*
X0031262Y0088973D01*
X0031310Y0089030D01*
X0031361Y0089084D01*
X0031415Y0089135D01*
X0031472Y0089183D01*
X0031531Y0089228D01*
X0031593Y0089271D01*
X0031656Y0089309D01*
X0031721Y0089345D01*
X0031789Y0089377D01*
X0031857Y0089406D01*
X0031928Y0089430D01*
X0031999Y0089452D01*
X0032071Y0089469D01*
X0032145Y0089482D01*
X0032218Y0089492D01*
X0032293Y0089498D01*
X0032367Y0089500D01*
X0034500Y0089500D01*
X0034500Y0093100D02*
X0032367Y0099500D01*
X0030233Y0093100D01*
X0030767Y0094700D02*
X0033967Y0094700D01*
X0027990Y0094522D02*
X0024435Y0094522D01*
X0025502Y0095944D02*
X0025502Y0093100D01*
X0027990Y0094522D02*
X0026568Y0099500D01*
X0026145Y0103100D02*
X0026145Y0105944D01*
X0025079Y0104522D02*
X0028634Y0104522D01*
X0027212Y0109500D01*
X0026856Y0113100D02*
X0028634Y0113100D01*
X0026856Y0113100D02*
X0026773Y0113102D01*
X0026690Y0113108D01*
X0026607Y0113118D01*
X0026524Y0113131D01*
X0026443Y0113149D01*
X0026362Y0113170D01*
X0026283Y0113195D01*
X0026205Y0113224D01*
X0026128Y0113256D01*
X0026053Y0113292D01*
X0025979Y0113331D01*
X0025908Y0113374D01*
X0025838Y0113420D01*
X0025771Y0113470D01*
X0025706Y0113522D01*
X0025644Y0113577D01*
X0025584Y0113636D01*
X0025527Y0113697D01*
X0025473Y0113760D01*
X0025422Y0113826D01*
X0025375Y0113895D01*
X0025330Y0113965D01*
X0025289Y0114038D01*
X0025252Y0114112D01*
X0025217Y0114188D01*
X0025187Y0114266D01*
X0025160Y0114344D01*
X0025137Y0114425D01*
X0025117Y0114506D01*
X0025102Y0114588D01*
X0025090Y0114670D01*
X0025082Y0114753D01*
X0025078Y0114836D01*
X0025078Y0114920D01*
X0025082Y0115003D01*
X0025090Y0115086D01*
X0025102Y0115168D01*
X0025117Y0115250D01*
X0025137Y0115331D01*
X0025160Y0115412D01*
X0025187Y0115490D01*
X0025217Y0115568D01*
X0025252Y0115644D01*
X0025289Y0115718D01*
X0025330Y0115791D01*
X0025375Y0115861D01*
X0025422Y0115930D01*
X0025473Y0115996D01*
X0025527Y0116059D01*
X0025584Y0116120D01*
X0025644Y0116179D01*
X0025706Y0116234D01*
X0025771Y0116286D01*
X0025838Y0116336D01*
X0025908Y0116382D01*
X0025979Y0116425D01*
X0026053Y0116464D01*
X0026128Y0116500D01*
X0026205Y0116532D01*
X0026283Y0116561D01*
X0026362Y0116586D01*
X0026443Y0116607D01*
X0026524Y0116625D01*
X0026607Y0116638D01*
X0026690Y0116648D01*
X0026773Y0116654D01*
X0026856Y0116656D01*
X0026501Y0116656D02*
X0027923Y0116656D01*
X0026501Y0116656D02*
X0026427Y0116658D01*
X0026352Y0116664D01*
X0026279Y0116674D01*
X0026205Y0116687D01*
X0026133Y0116704D01*
X0026062Y0116726D01*
X0025991Y0116750D01*
X0025923Y0116779D01*
X0025855Y0116811D01*
X0025790Y0116847D01*
X0025727Y0116885D01*
X0025665Y0116928D01*
X0025606Y0116973D01*
X0025549Y0117021D01*
X0025495Y0117072D01*
X0025444Y0117126D01*
X0025396Y0117183D01*
X0025351Y0117242D01*
X0025308Y0117304D01*
X0025270Y0117367D01*
X0025234Y0117432D01*
X0025202Y0117500D01*
X0025173Y0117568D01*
X0025149Y0117639D01*
X0025127Y0117710D01*
X0025110Y0117782D01*
X0025097Y0117856D01*
X0025087Y0117929D01*
X0025081Y0118004D01*
X0025079Y0118078D01*
X0025081Y0118152D01*
X0025087Y0118227D01*
X0025097Y0118300D01*
X0025110Y0118374D01*
X0025127Y0118446D01*
X0025149Y0118517D01*
X0025173Y0118588D01*
X0025202Y0118656D01*
X0025234Y0118724D01*
X0025270Y0118789D01*
X0025308Y0118852D01*
X0025351Y0118914D01*
X0025396Y0118973D01*
X0025444Y0119030D01*
X0025495Y0119084D01*
X0025549Y0119135D01*
X0025606Y0119183D01*
X0025665Y0119228D01*
X0025727Y0119271D01*
X0025790Y0119309D01*
X0025855Y0119345D01*
X0025923Y0119377D01*
X0025991Y0119406D01*
X0026062Y0119430D01*
X0026133Y0119452D01*
X0026205Y0119469D01*
X0026279Y0119482D01*
X0026352Y0119492D01*
X0026427Y0119498D01*
X0026501Y0119500D01*
X0028634Y0119500D01*
X0028634Y0123100D02*
X0025079Y0123100D01*
X0028634Y0123100D02*
X0025612Y0126656D01*
X0026679Y0129500D02*
X0026768Y0129498D01*
X0026857Y0129492D01*
X0026946Y0129483D01*
X0027034Y0129469D01*
X0027121Y0129452D01*
X0027208Y0129431D01*
X0027294Y0129406D01*
X0027378Y0129378D01*
X0027461Y0129345D01*
X0027543Y0129310D01*
X0027623Y0129270D01*
X0027701Y0129228D01*
X0027778Y0129182D01*
X0027852Y0129133D01*
X0027924Y0129080D01*
X0027994Y0129025D01*
X0028061Y0128966D01*
X0028126Y0128905D01*
X0028188Y0128841D01*
X0028247Y0128774D01*
X0028303Y0128705D01*
X0028356Y0128633D01*
X0028406Y0128559D01*
X0028453Y0128483D01*
X0028496Y0128406D01*
X0028536Y0128326D01*
X0028573Y0128244D01*
X0028606Y0128162D01*
X0028635Y0128077D01*
X0025611Y0126655D02*
X0025554Y0126713D01*
X0025498Y0126774D01*
X0025446Y0126837D01*
X0025397Y0126902D01*
X0025351Y0126970D01*
X0025309Y0127040D01*
X0025269Y0127112D01*
X0025234Y0127185D01*
X0025201Y0127261D01*
X0025173Y0127337D01*
X0025148Y0127415D01*
X0025127Y0127494D01*
X0025109Y0127574D01*
X0025096Y0127655D01*
X0025086Y0127736D01*
X0025080Y0127818D01*
X0025078Y0127900D01*
X0025079Y0127900D02*
X0025081Y0127979D01*
X0025087Y0128057D01*
X0025096Y0128135D01*
X0025110Y0128212D01*
X0025127Y0128289D01*
X0025148Y0128364D01*
X0025173Y0128439D01*
X0025201Y0128512D01*
X0025233Y0128584D01*
X0025268Y0128654D01*
X0025307Y0128723D01*
X0025349Y0128789D01*
X0025394Y0128853D01*
X0025442Y0128915D01*
X0025493Y0128974D01*
X0025548Y0129031D01*
X0025605Y0129086D01*
X0025664Y0129137D01*
X0025726Y0129185D01*
X0025790Y0129230D01*
X0025856Y0129272D01*
X0025925Y0129311D01*
X0025995Y0129346D01*
X0026067Y0129378D01*
X0026140Y0129406D01*
X0026215Y0129431D01*
X0026290Y0129452D01*
X0026367Y0129469D01*
X0026444Y0129483D01*
X0026522Y0129492D01*
X0026600Y0129498D01*
X0026679Y0129500D01*
X0026213Y0133100D02*
X0026213Y0139500D01*
X0027990Y0138078D01*
X0030767Y0134700D02*
X0033967Y0134700D01*
X0034500Y0133100D02*
X0032367Y0139500D01*
X0030233Y0133100D01*
X0027990Y0133100D02*
X0024435Y0133100D01*
X0032722Y0129500D02*
X0034500Y0129500D01*
X0034500Y0123100D01*
X0032722Y0123100D01*
X0032639Y0123102D01*
X0032556Y0123108D01*
X0032473Y0123118D01*
X0032390Y0123131D01*
X0032309Y0123149D01*
X0032228Y0123170D01*
X0032149Y0123195D01*
X0032071Y0123224D01*
X0031994Y0123256D01*
X0031919Y0123292D01*
X0031845Y0123331D01*
X0031774Y0123374D01*
X0031704Y0123420D01*
X0031637Y0123470D01*
X0031572Y0123522D01*
X0031510Y0123577D01*
X0031450Y0123636D01*
X0031393Y0123697D01*
X0031339Y0123760D01*
X0031288Y0123826D01*
X0031241Y0123895D01*
X0031196Y0123965D01*
X0031155Y0124038D01*
X0031118Y0124112D01*
X0031083Y0124188D01*
X0031053Y0124266D01*
X0031026Y0124344D01*
X0031003Y0124425D01*
X0030983Y0124506D01*
X0030968Y0124588D01*
X0030956Y0124670D01*
X0030948Y0124753D01*
X0030944Y0124836D01*
X0030944Y0124920D01*
X0030948Y0125003D01*
X0030956Y0125086D01*
X0030968Y0125168D01*
X0030983Y0125250D01*
X0031003Y0125331D01*
X0031026Y0125412D01*
X0031053Y0125490D01*
X0031083Y0125568D01*
X0031118Y0125644D01*
X0031155Y0125718D01*
X0031196Y0125791D01*
X0031241Y0125861D01*
X0031288Y0125930D01*
X0031339Y0125996D01*
X0031393Y0126059D01*
X0031450Y0126120D01*
X0031510Y0126179D01*
X0031572Y0126234D01*
X0031637Y0126286D01*
X0031704Y0126336D01*
X0031774Y0126382D01*
X0031845Y0126425D01*
X0031919Y0126464D01*
X0031994Y0126500D01*
X0032071Y0126532D01*
X0032149Y0126561D01*
X0032228Y0126586D01*
X0032309Y0126607D01*
X0032390Y0126625D01*
X0032473Y0126638D01*
X0032556Y0126648D01*
X0032639Y0126654D01*
X0032722Y0126656D01*
X0034500Y0126656D01*
X0032722Y0126656D02*
X0032648Y0126658D01*
X0032573Y0126664D01*
X0032500Y0126674D01*
X0032426Y0126687D01*
X0032354Y0126704D01*
X0032283Y0126726D01*
X0032212Y0126750D01*
X0032144Y0126779D01*
X0032076Y0126811D01*
X0032011Y0126847D01*
X0031948Y0126885D01*
X0031886Y0126928D01*
X0031827Y0126973D01*
X0031770Y0127021D01*
X0031716Y0127072D01*
X0031665Y0127126D01*
X0031617Y0127183D01*
X0031572Y0127242D01*
X0031529Y0127304D01*
X0031491Y0127367D01*
X0031455Y0127432D01*
X0031423Y0127500D01*
X0031394Y0127568D01*
X0031370Y0127639D01*
X0031348Y0127710D01*
X0031331Y0127782D01*
X0031318Y0127856D01*
X0031308Y0127929D01*
X0031302Y0128004D01*
X0031300Y0128078D01*
X0031302Y0128152D01*
X0031308Y0128227D01*
X0031318Y0128300D01*
X0031331Y0128374D01*
X0031348Y0128446D01*
X0031370Y0128517D01*
X0031394Y0128588D01*
X0031423Y0128656D01*
X0031455Y0128724D01*
X0031491Y0128789D01*
X0031529Y0128852D01*
X0031572Y0128914D01*
X0031617Y0128973D01*
X0031665Y0129030D01*
X0031716Y0129084D01*
X0031770Y0129135D01*
X0031827Y0129183D01*
X0031886Y0129228D01*
X0031948Y0129271D01*
X0032011Y0129309D01*
X0032076Y0129345D01*
X0032144Y0129377D01*
X0032212Y0129406D01*
X0032283Y0129430D01*
X0032354Y0129452D01*
X0032426Y0129469D01*
X0032500Y0129482D01*
X0032573Y0129492D01*
X0032648Y0129498D01*
X0032722Y0129500D01*
X0032722Y0119500D02*
X0034500Y0119500D01*
X0034500Y0113100D01*
X0032722Y0113100D01*
X0032639Y0113102D01*
X0032556Y0113108D01*
X0032473Y0113118D01*
X0032390Y0113131D01*
X0032309Y0113149D01*
X0032228Y0113170D01*
X0032149Y0113195D01*
X0032071Y0113224D01*
X0031994Y0113256D01*
X0031919Y0113292D01*
X0031845Y0113331D01*
X0031774Y0113374D01*
X0031704Y0113420D01*
X0031637Y0113470D01*
X0031572Y0113522D01*
X0031510Y0113577D01*
X0031450Y0113636D01*
X0031393Y0113697D01*
X0031339Y0113760D01*
X0031288Y0113826D01*
X0031241Y0113895D01*
X0031196Y0113965D01*
X0031155Y0114038D01*
X0031118Y0114112D01*
X0031083Y0114188D01*
X0031053Y0114266D01*
X0031026Y0114344D01*
X0031003Y0114425D01*
X0030983Y0114506D01*
X0030968Y0114588D01*
X0030956Y0114670D01*
X0030948Y0114753D01*
X0030944Y0114836D01*
X0030944Y0114920D01*
X0030948Y0115003D01*
X0030956Y0115086D01*
X0030968Y0115168D01*
X0030983Y0115250D01*
X0031003Y0115331D01*
X0031026Y0115412D01*
X0031053Y0115490D01*
X0031083Y0115568D01*
X0031118Y0115644D01*
X0031155Y0115718D01*
X0031196Y0115791D01*
X0031241Y0115861D01*
X0031288Y0115930D01*
X0031339Y0115996D01*
X0031393Y0116059D01*
X0031450Y0116120D01*
X0031510Y0116179D01*
X0031572Y0116234D01*
X0031637Y0116286D01*
X0031704Y0116336D01*
X0031774Y0116382D01*
X0031845Y0116425D01*
X0031919Y0116464D01*
X0031994Y0116500D01*
X0032071Y0116532D01*
X0032149Y0116561D01*
X0032228Y0116586D01*
X0032309Y0116607D01*
X0032390Y0116625D01*
X0032473Y0116638D01*
X0032556Y0116648D01*
X0032639Y0116654D01*
X0032722Y0116656D01*
X0034500Y0116656D01*
X0032722Y0116656D02*
X0032648Y0116658D01*
X0032573Y0116664D01*
X0032500Y0116674D01*
X0032426Y0116687D01*
X0032354Y0116704D01*
X0032283Y0116726D01*
X0032212Y0116750D01*
X0032144Y0116779D01*
X0032076Y0116811D01*
X0032011Y0116847D01*
X0031948Y0116885D01*
X0031886Y0116928D01*
X0031827Y0116973D01*
X0031770Y0117021D01*
X0031716Y0117072D01*
X0031665Y0117126D01*
X0031617Y0117183D01*
X0031572Y0117242D01*
X0031529Y0117304D01*
X0031491Y0117367D01*
X0031455Y0117432D01*
X0031423Y0117500D01*
X0031394Y0117568D01*
X0031370Y0117639D01*
X0031348Y0117710D01*
X0031331Y0117782D01*
X0031318Y0117856D01*
X0031308Y0117929D01*
X0031302Y0118004D01*
X0031300Y0118078D01*
X0031302Y0118152D01*
X0031308Y0118227D01*
X0031318Y0118300D01*
X0031331Y0118374D01*
X0031348Y0118446D01*
X0031370Y0118517D01*
X0031394Y0118588D01*
X0031423Y0118656D01*
X0031455Y0118724D01*
X0031491Y0118789D01*
X0031529Y0118852D01*
X0031572Y0118914D01*
X0031617Y0118973D01*
X0031665Y0119030D01*
X0031716Y0119084D01*
X0031770Y0119135D01*
X0031827Y0119183D01*
X0031886Y0119228D01*
X0031948Y0119271D01*
X0032011Y0119309D01*
X0032076Y0119345D01*
X0032144Y0119377D01*
X0032212Y0119406D01*
X0032283Y0119430D01*
X0032354Y0119452D01*
X0032426Y0119469D01*
X0032500Y0119482D01*
X0032573Y0119492D01*
X0032648Y0119498D01*
X0032722Y0119500D01*
X0032722Y0109500D02*
X0034500Y0109500D01*
X0034500Y0103100D01*
X0032722Y0103100D01*
X0032639Y0103102D01*
X0032556Y0103108D01*
X0032473Y0103118D01*
X0032390Y0103131D01*
X0032309Y0103149D01*
X0032228Y0103170D01*
X0032149Y0103195D01*
X0032071Y0103224D01*
X0031994Y0103256D01*
X0031919Y0103292D01*
X0031845Y0103331D01*
X0031774Y0103374D01*
X0031704Y0103420D01*
X0031637Y0103470D01*
X0031572Y0103522D01*
X0031510Y0103577D01*
X0031450Y0103636D01*
X0031393Y0103697D01*
X0031339Y0103760D01*
X0031288Y0103826D01*
X0031241Y0103895D01*
X0031196Y0103965D01*
X0031155Y0104038D01*
X0031118Y0104112D01*
X0031083Y0104188D01*
X0031053Y0104266D01*
X0031026Y0104344D01*
X0031003Y0104425D01*
X0030983Y0104506D01*
X0030968Y0104588D01*
X0030956Y0104670D01*
X0030948Y0104753D01*
X0030944Y0104836D01*
X0030944Y0104920D01*
X0030948Y0105003D01*
X0030956Y0105086D01*
X0030968Y0105168D01*
X0030983Y0105250D01*
X0031003Y0105331D01*
X0031026Y0105412D01*
X0031053Y0105490D01*
X0031083Y0105568D01*
X0031118Y0105644D01*
X0031155Y0105718D01*
X0031196Y0105791D01*
X0031241Y0105861D01*
X0031288Y0105930D01*
X0031339Y0105996D01*
X0031393Y0106059D01*
X0031450Y0106120D01*
X0031510Y0106179D01*
X0031572Y0106234D01*
X0031637Y0106286D01*
X0031704Y0106336D01*
X0031774Y0106382D01*
X0031845Y0106425D01*
X0031919Y0106464D01*
X0031994Y0106500D01*
X0032071Y0106532D01*
X0032149Y0106561D01*
X0032228Y0106586D01*
X0032309Y0106607D01*
X0032390Y0106625D01*
X0032473Y0106638D01*
X0032556Y0106648D01*
X0032639Y0106654D01*
X0032722Y0106656D01*
X0034500Y0106656D01*
X0032722Y0106656D02*
X0032648Y0106658D01*
X0032573Y0106664D01*
X0032500Y0106674D01*
X0032426Y0106687D01*
X0032354Y0106704D01*
X0032283Y0106726D01*
X0032212Y0106750D01*
X0032144Y0106779D01*
X0032076Y0106811D01*
X0032011Y0106847D01*
X0031948Y0106885D01*
X0031886Y0106928D01*
X0031827Y0106973D01*
X0031770Y0107021D01*
X0031716Y0107072D01*
X0031665Y0107126D01*
X0031617Y0107183D01*
X0031572Y0107242D01*
X0031529Y0107304D01*
X0031491Y0107367D01*
X0031455Y0107432D01*
X0031423Y0107500D01*
X0031394Y0107568D01*
X0031370Y0107639D01*
X0031348Y0107710D01*
X0031331Y0107782D01*
X0031318Y0107856D01*
X0031308Y0107929D01*
X0031302Y0108004D01*
X0031300Y0108078D01*
X0031302Y0108152D01*
X0031308Y0108227D01*
X0031318Y0108300D01*
X0031331Y0108374D01*
X0031348Y0108446D01*
X0031370Y0108517D01*
X0031394Y0108588D01*
X0031423Y0108656D01*
X0031455Y0108724D01*
X0031491Y0108789D01*
X0031529Y0108852D01*
X0031572Y0108914D01*
X0031617Y0108973D01*
X0031665Y0109030D01*
X0031716Y0109084D01*
X0031770Y0109135D01*
X0031827Y0109183D01*
X0031886Y0109228D01*
X0031948Y0109271D01*
X0032011Y0109309D01*
X0032076Y0109345D01*
X0032144Y0109377D01*
X0032212Y0109406D01*
X0032283Y0109430D01*
X0032354Y0109452D01*
X0032426Y0109469D01*
X0032500Y0109482D01*
X0032573Y0109492D01*
X0032648Y0109498D01*
X0032722Y0109500D01*
X0025884Y0089500D02*
X0023751Y0089500D01*
X0023677Y0089498D01*
X0023602Y0089492D01*
X0023529Y0089482D01*
X0023455Y0089469D01*
X0023383Y0089452D01*
X0023312Y0089430D01*
X0023241Y0089406D01*
X0023173Y0089377D01*
X0023105Y0089345D01*
X0023040Y0089309D01*
X0022977Y0089271D01*
X0022915Y0089228D01*
X0022856Y0089183D01*
X0022799Y0089135D01*
X0022745Y0089084D01*
X0022694Y0089030D01*
X0022646Y0088973D01*
X0022601Y0088914D01*
X0022558Y0088852D01*
X0022520Y0088789D01*
X0022484Y0088724D01*
X0022452Y0088656D01*
X0022423Y0088588D01*
X0022399Y0088517D01*
X0022377Y0088446D01*
X0022360Y0088374D01*
X0022347Y0088300D01*
X0022337Y0088227D01*
X0022331Y0088152D01*
X0022329Y0088078D01*
X0022331Y0088004D01*
X0022337Y0087929D01*
X0022347Y0087856D01*
X0022360Y0087782D01*
X0022377Y0087710D01*
X0022399Y0087639D01*
X0022423Y0087568D01*
X0022452Y0087500D01*
X0022484Y0087432D01*
X0022520Y0087367D01*
X0022558Y0087304D01*
X0022601Y0087242D01*
X0022646Y0087183D01*
X0022694Y0087126D01*
X0022745Y0087072D01*
X0022799Y0087021D01*
X0022856Y0086973D01*
X0022915Y0086928D01*
X0022977Y0086885D01*
X0023040Y0086847D01*
X0023105Y0086811D01*
X0023173Y0086779D01*
X0023241Y0086750D01*
X0023312Y0086726D01*
X0023383Y0086704D01*
X0023455Y0086687D01*
X0023529Y0086674D01*
X0023602Y0086664D01*
X0023677Y0086658D01*
X0023751Y0086656D01*
X0025173Y0086656D01*
X0024107Y0086656D02*
X0024024Y0086654D01*
X0023941Y0086648D01*
X0023858Y0086638D01*
X0023775Y0086625D01*
X0023694Y0086607D01*
X0023613Y0086586D01*
X0023534Y0086561D01*
X0023456Y0086532D01*
X0023379Y0086500D01*
X0023304Y0086464D01*
X0023230Y0086425D01*
X0023159Y0086382D01*
X0023089Y0086336D01*
X0023022Y0086286D01*
X0022957Y0086234D01*
X0022895Y0086179D01*
X0022835Y0086120D01*
X0022778Y0086059D01*
X0022724Y0085996D01*
X0022673Y0085930D01*
X0022626Y0085861D01*
X0022581Y0085791D01*
X0022540Y0085718D01*
X0022503Y0085644D01*
X0022468Y0085568D01*
X0022438Y0085490D01*
X0022411Y0085412D01*
X0022388Y0085331D01*
X0022368Y0085250D01*
X0022353Y0085168D01*
X0022341Y0085086D01*
X0022333Y0085003D01*
X0022329Y0084920D01*
X0022329Y0084836D01*
X0022333Y0084753D01*
X0022341Y0084670D01*
X0022353Y0084588D01*
X0022368Y0084506D01*
X0022388Y0084425D01*
X0022411Y0084344D01*
X0022438Y0084266D01*
X0022468Y0084188D01*
X0022503Y0084112D01*
X0022540Y0084038D01*
X0022581Y0083965D01*
X0022626Y0083895D01*
X0022673Y0083826D01*
X0022724Y0083760D01*
X0022778Y0083697D01*
X0022835Y0083636D01*
X0022895Y0083577D01*
X0022957Y0083522D01*
X0023022Y0083470D01*
X0023089Y0083420D01*
X0023159Y0083374D01*
X0023230Y0083331D01*
X0023304Y0083292D01*
X0023379Y0083256D01*
X0023456Y0083224D01*
X0023534Y0083195D01*
X0023613Y0083170D01*
X0023694Y0083149D01*
X0023775Y0083131D01*
X0023858Y0083118D01*
X0023941Y0083108D01*
X0024024Y0083102D01*
X0024107Y0083100D01*
X0025884Y0083100D01*
X0028237Y0083100D02*
X0028592Y0083100D01*
X0028592Y0083456D01*
X0028237Y0083456D01*
X0028237Y0083100D01*
X0030233Y0143100D02*
X0032367Y0149500D01*
X0034500Y0143100D01*
X0033967Y0144700D02*
X0030767Y0144700D01*
X0024968Y0143989D02*
X0024908Y0144116D01*
X0024852Y0144245D01*
X0024799Y0144375D01*
X0024749Y0144507D01*
X0024703Y0144640D01*
X0024661Y0144774D01*
X0024622Y0144909D01*
X0024586Y0145046D01*
X0024555Y0145183D01*
X0024527Y0145321D01*
X0024502Y0145459D01*
X0024482Y0145598D01*
X0024465Y0145738D01*
X0024452Y0145878D01*
X0024443Y0146019D01*
X0024437Y0146159D01*
X0024435Y0146300D01*
X0027990Y0146300D02*
X0027988Y0146441D01*
X0027982Y0146581D01*
X0027973Y0146722D01*
X0027960Y0146862D01*
X0027943Y0147002D01*
X0027923Y0147141D01*
X0027898Y0147279D01*
X0027870Y0147417D01*
X0027839Y0147554D01*
X0027803Y0147691D01*
X0027764Y0147826D01*
X0027722Y0147960D01*
X0027676Y0148093D01*
X0027626Y0148225D01*
X0027573Y0148355D01*
X0027517Y0148484D01*
X0027457Y0148611D01*
X0026213Y0149500D02*
X0026142Y0149498D01*
X0026071Y0149492D01*
X0026001Y0149483D01*
X0025931Y0149469D01*
X0025862Y0149452D01*
X0025795Y0149432D01*
X0025728Y0149407D01*
X0025663Y0149379D01*
X0025599Y0149348D01*
X0025537Y0149313D01*
X0025477Y0149275D01*
X0025420Y0149234D01*
X0025364Y0149190D01*
X0025311Y0149142D01*
X0025261Y0149092D01*
X0025213Y0149040D01*
X0025168Y0148985D01*
X0025127Y0148927D01*
X0025088Y0148867D01*
X0025053Y0148806D01*
X0025021Y0148742D01*
X0024993Y0148677D01*
X0024968Y0148611D01*
X0024790Y0148078D02*
X0027635Y0144522D01*
X0026213Y0143100D02*
X0026142Y0143102D01*
X0026071Y0143108D01*
X0026001Y0143117D01*
X0025931Y0143131D01*
X0025862Y0143148D01*
X0025795Y0143168D01*
X0025728Y0143193D01*
X0025663Y0143221D01*
X0025599Y0143252D01*
X0025537Y0143287D01*
X0025477Y0143325D01*
X0025420Y0143366D01*
X0025364Y0143410D01*
X0025311Y0143458D01*
X0025261Y0143508D01*
X0025213Y0143560D01*
X0025168Y0143615D01*
X0025127Y0143673D01*
X0025088Y0143733D01*
X0025053Y0143794D01*
X0025021Y0143858D01*
X0024993Y0143923D01*
X0024968Y0143989D01*
X0026213Y0143100D02*
X0026284Y0143102D01*
X0026355Y0143108D01*
X0026425Y0143117D01*
X0026495Y0143131D01*
X0026564Y0143148D01*
X0026631Y0143168D01*
X0026698Y0143193D01*
X0026763Y0143221D01*
X0026827Y0143252D01*
X0026889Y0143287D01*
X0026949Y0143325D01*
X0027007Y0143366D01*
X0027062Y0143410D01*
X0027115Y0143458D01*
X0027165Y0143508D01*
X0027213Y0143560D01*
X0027258Y0143615D01*
X0027299Y0143673D01*
X0027338Y0143733D01*
X0027373Y0143794D01*
X0027405Y0143858D01*
X0027433Y0143923D01*
X0027458Y0143989D01*
X0024435Y0146300D02*
X0024437Y0146441D01*
X0024443Y0146581D01*
X0024452Y0146722D01*
X0024465Y0146862D01*
X0024482Y0147002D01*
X0024502Y0147141D01*
X0024527Y0147279D01*
X0024555Y0147417D01*
X0024586Y0147554D01*
X0024622Y0147691D01*
X0024661Y0147826D01*
X0024703Y0147960D01*
X0024749Y0148093D01*
X0024799Y0148225D01*
X0024852Y0148355D01*
X0024908Y0148484D01*
X0024968Y0148611D01*
X0026213Y0149500D02*
X0026284Y0149498D01*
X0026355Y0149492D01*
X0026425Y0149483D01*
X0026495Y0149469D01*
X0026564Y0149452D01*
X0026631Y0149432D01*
X0026698Y0149407D01*
X0026763Y0149379D01*
X0026827Y0149348D01*
X0026889Y0149313D01*
X0026949Y0149275D01*
X0027007Y0149234D01*
X0027062Y0149190D01*
X0027115Y0149142D01*
X0027165Y0149092D01*
X0027213Y0149040D01*
X0027258Y0148985D01*
X0027299Y0148927D01*
X0027338Y0148867D01*
X0027373Y0148806D01*
X0027405Y0148742D01*
X0027433Y0148677D01*
X0027458Y0148611D01*
X0027990Y0146300D02*
X0027988Y0146159D01*
X0027982Y0146019D01*
X0027973Y0145878D01*
X0027960Y0145738D01*
X0027943Y0145598D01*
X0027923Y0145459D01*
X0027898Y0145321D01*
X0027870Y0145183D01*
X0027839Y0145046D01*
X0027803Y0144909D01*
X0027764Y0144774D01*
X0027722Y0144640D01*
X0027676Y0144507D01*
X0027626Y0144375D01*
X0027573Y0144245D01*
X0027517Y0144116D01*
X0027457Y0143989D01*
X0181925Y0145022D02*
X0181925Y0145733D01*
X0181927Y0145807D01*
X0181933Y0145882D01*
X0181943Y0145955D01*
X0181956Y0146029D01*
X0181973Y0146101D01*
X0181995Y0146172D01*
X0182019Y0146243D01*
X0182048Y0146311D01*
X0182080Y0146379D01*
X0182116Y0146444D01*
X0182154Y0146507D01*
X0182197Y0146569D01*
X0182242Y0146628D01*
X0182290Y0146685D01*
X0182341Y0146739D01*
X0182395Y0146790D01*
X0182452Y0146838D01*
X0182511Y0146883D01*
X0182573Y0146926D01*
X0182636Y0146964D01*
X0182701Y0147000D01*
X0182769Y0147032D01*
X0182837Y0147061D01*
X0182908Y0147085D01*
X0182979Y0147107D01*
X0183051Y0147124D01*
X0183125Y0147137D01*
X0183198Y0147147D01*
X0183273Y0147153D01*
X0183347Y0147155D01*
X0183347Y0147156D02*
X0185480Y0147156D01*
X0185480Y0150000D01*
X0181925Y0150000D01*
X0181925Y0145022D02*
X0181927Y0144948D01*
X0181933Y0144873D01*
X0181943Y0144800D01*
X0181956Y0144726D01*
X0181973Y0144654D01*
X0181995Y0144583D01*
X0182019Y0144512D01*
X0182048Y0144444D01*
X0182080Y0144376D01*
X0182116Y0144311D01*
X0182154Y0144248D01*
X0182197Y0144186D01*
X0182242Y0144127D01*
X0182290Y0144070D01*
X0182341Y0144016D01*
X0182395Y0143965D01*
X0182452Y0143917D01*
X0182511Y0143872D01*
X0182573Y0143829D01*
X0182636Y0143791D01*
X0182701Y0143755D01*
X0182769Y0143723D01*
X0182837Y0143694D01*
X0182908Y0143670D01*
X0182979Y0143648D01*
X0183051Y0143631D01*
X0183125Y0143618D01*
X0183198Y0143608D01*
X0183273Y0143602D01*
X0183347Y0143600D01*
X0185480Y0143600D01*
X0188079Y0143600D02*
X0191634Y0143600D01*
X0189856Y0143600D02*
X0189856Y0150000D01*
X0191634Y0148578D01*
X0195722Y0150000D02*
X0195648Y0149998D01*
X0195573Y0149992D01*
X0195500Y0149982D01*
X0195426Y0149969D01*
X0195354Y0149952D01*
X0195283Y0149930D01*
X0195212Y0149906D01*
X0195144Y0149877D01*
X0195076Y0149845D01*
X0195011Y0149809D01*
X0194948Y0149771D01*
X0194886Y0149728D01*
X0194827Y0149683D01*
X0194770Y0149635D01*
X0194716Y0149584D01*
X0194665Y0149530D01*
X0194617Y0149473D01*
X0194572Y0149414D01*
X0194529Y0149352D01*
X0194491Y0149289D01*
X0194455Y0149224D01*
X0194423Y0149156D01*
X0194394Y0149088D01*
X0194370Y0149017D01*
X0194348Y0148946D01*
X0194331Y0148874D01*
X0194318Y0148800D01*
X0194308Y0148727D01*
X0194302Y0148652D01*
X0194300Y0148578D01*
X0194302Y0148504D01*
X0194308Y0148429D01*
X0194318Y0148356D01*
X0194331Y0148282D01*
X0194348Y0148210D01*
X0194370Y0148139D01*
X0194394Y0148068D01*
X0194423Y0148000D01*
X0194455Y0147932D01*
X0194491Y0147867D01*
X0194529Y0147804D01*
X0194572Y0147742D01*
X0194617Y0147683D01*
X0194665Y0147626D01*
X0194716Y0147572D01*
X0194770Y0147521D01*
X0194827Y0147473D01*
X0194886Y0147428D01*
X0194948Y0147385D01*
X0195011Y0147347D01*
X0195076Y0147311D01*
X0195144Y0147279D01*
X0195212Y0147250D01*
X0195283Y0147226D01*
X0195354Y0147204D01*
X0195426Y0147187D01*
X0195500Y0147174D01*
X0195573Y0147164D01*
X0195648Y0147158D01*
X0195722Y0147156D01*
X0197500Y0147156D01*
X0195722Y0147156D02*
X0195639Y0147154D01*
X0195556Y0147148D01*
X0195473Y0147138D01*
X0195390Y0147125D01*
X0195309Y0147107D01*
X0195228Y0147086D01*
X0195149Y0147061D01*
X0195071Y0147032D01*
X0194994Y0147000D01*
X0194919Y0146964D01*
X0194845Y0146925D01*
X0194774Y0146882D01*
X0194704Y0146836D01*
X0194637Y0146786D01*
X0194572Y0146734D01*
X0194510Y0146679D01*
X0194450Y0146620D01*
X0194393Y0146559D01*
X0194339Y0146496D01*
X0194288Y0146430D01*
X0194241Y0146361D01*
X0194196Y0146291D01*
X0194155Y0146218D01*
X0194118Y0146144D01*
X0194083Y0146068D01*
X0194053Y0145990D01*
X0194026Y0145912D01*
X0194003Y0145831D01*
X0193983Y0145750D01*
X0193968Y0145668D01*
X0193956Y0145586D01*
X0193948Y0145503D01*
X0193944Y0145420D01*
X0193944Y0145336D01*
X0193948Y0145253D01*
X0193956Y0145170D01*
X0193968Y0145088D01*
X0193983Y0145006D01*
X0194003Y0144925D01*
X0194026Y0144844D01*
X0194053Y0144766D01*
X0194083Y0144688D01*
X0194118Y0144612D01*
X0194155Y0144538D01*
X0194196Y0144465D01*
X0194241Y0144395D01*
X0194288Y0144326D01*
X0194339Y0144260D01*
X0194393Y0144197D01*
X0194450Y0144136D01*
X0194510Y0144077D01*
X0194572Y0144022D01*
X0194637Y0143970D01*
X0194704Y0143920D01*
X0194774Y0143874D01*
X0194845Y0143831D01*
X0194919Y0143792D01*
X0194994Y0143756D01*
X0195071Y0143724D01*
X0195149Y0143695D01*
X0195228Y0143670D01*
X0195309Y0143649D01*
X0195390Y0143631D01*
X0195473Y0143618D01*
X0195556Y0143608D01*
X0195639Y0143602D01*
X0195722Y0143600D01*
X0197500Y0143600D01*
X0197500Y0150000D01*
X0195722Y0150000D01*
X0195722Y0140000D02*
X0197500Y0140000D01*
X0197500Y0133600D01*
X0195722Y0133600D01*
X0195639Y0133602D01*
X0195556Y0133608D01*
X0195473Y0133618D01*
X0195390Y0133631D01*
X0195309Y0133649D01*
X0195228Y0133670D01*
X0195149Y0133695D01*
X0195071Y0133724D01*
X0194994Y0133756D01*
X0194919Y0133792D01*
X0194845Y0133831D01*
X0194774Y0133874D01*
X0194704Y0133920D01*
X0194637Y0133970D01*
X0194572Y0134022D01*
X0194510Y0134077D01*
X0194450Y0134136D01*
X0194393Y0134197D01*
X0194339Y0134260D01*
X0194288Y0134326D01*
X0194241Y0134395D01*
X0194196Y0134465D01*
X0194155Y0134538D01*
X0194118Y0134612D01*
X0194083Y0134688D01*
X0194053Y0134766D01*
X0194026Y0134844D01*
X0194003Y0134925D01*
X0193983Y0135006D01*
X0193968Y0135088D01*
X0193956Y0135170D01*
X0193948Y0135253D01*
X0193944Y0135336D01*
X0193944Y0135420D01*
X0193948Y0135503D01*
X0193956Y0135586D01*
X0193968Y0135668D01*
X0193983Y0135750D01*
X0194003Y0135831D01*
X0194026Y0135912D01*
X0194053Y0135990D01*
X0194083Y0136068D01*
X0194118Y0136144D01*
X0194155Y0136218D01*
X0194196Y0136291D01*
X0194241Y0136361D01*
X0194288Y0136430D01*
X0194339Y0136496D01*
X0194393Y0136559D01*
X0194450Y0136620D01*
X0194510Y0136679D01*
X0194572Y0136734D01*
X0194637Y0136786D01*
X0194704Y0136836D01*
X0194774Y0136882D01*
X0194845Y0136925D01*
X0194919Y0136964D01*
X0194994Y0137000D01*
X0195071Y0137032D01*
X0195149Y0137061D01*
X0195228Y0137086D01*
X0195309Y0137107D01*
X0195390Y0137125D01*
X0195473Y0137138D01*
X0195556Y0137148D01*
X0195639Y0137154D01*
X0195722Y0137156D01*
X0197500Y0137156D01*
X0195722Y0137156D02*
X0195648Y0137158D01*
X0195573Y0137164D01*
X0195500Y0137174D01*
X0195426Y0137187D01*
X0195354Y0137204D01*
X0195283Y0137226D01*
X0195212Y0137250D01*
X0195144Y0137279D01*
X0195076Y0137311D01*
X0195011Y0137347D01*
X0194948Y0137385D01*
X0194886Y0137428D01*
X0194827Y0137473D01*
X0194770Y0137521D01*
X0194716Y0137572D01*
X0194665Y0137626D01*
X0194617Y0137683D01*
X0194572Y0137742D01*
X0194529Y0137804D01*
X0194491Y0137867D01*
X0194455Y0137932D01*
X0194423Y0138000D01*
X0194394Y0138068D01*
X0194370Y0138139D01*
X0194348Y0138210D01*
X0194331Y0138282D01*
X0194318Y0138356D01*
X0194308Y0138429D01*
X0194302Y0138504D01*
X0194300Y0138578D01*
X0194302Y0138652D01*
X0194308Y0138727D01*
X0194318Y0138800D01*
X0194331Y0138874D01*
X0194348Y0138946D01*
X0194370Y0139017D01*
X0194394Y0139088D01*
X0194423Y0139156D01*
X0194455Y0139224D01*
X0194491Y0139289D01*
X0194529Y0139352D01*
X0194572Y0139414D01*
X0194617Y0139473D01*
X0194665Y0139530D01*
X0194716Y0139584D01*
X0194770Y0139635D01*
X0194827Y0139683D01*
X0194886Y0139728D01*
X0194948Y0139771D01*
X0195011Y0139809D01*
X0195076Y0139845D01*
X0195144Y0139877D01*
X0195212Y0139906D01*
X0195283Y0139930D01*
X0195354Y0139952D01*
X0195426Y0139969D01*
X0195500Y0139982D01*
X0195573Y0139992D01*
X0195648Y0139998D01*
X0195722Y0140000D01*
X0191634Y0138578D02*
X0189856Y0140000D01*
X0189856Y0133600D01*
X0188079Y0133600D02*
X0191634Y0133600D01*
X0189856Y0130500D02*
X0189856Y0124100D01*
X0188079Y0124100D02*
X0191634Y0124100D01*
X0195722Y0124100D02*
X0197500Y0124100D01*
X0197500Y0130500D01*
X0195722Y0130500D01*
X0195648Y0130498D01*
X0195573Y0130492D01*
X0195500Y0130482D01*
X0195426Y0130469D01*
X0195354Y0130452D01*
X0195283Y0130430D01*
X0195212Y0130406D01*
X0195144Y0130377D01*
X0195076Y0130345D01*
X0195011Y0130309D01*
X0194948Y0130271D01*
X0194886Y0130228D01*
X0194827Y0130183D01*
X0194770Y0130135D01*
X0194716Y0130084D01*
X0194665Y0130030D01*
X0194617Y0129973D01*
X0194572Y0129914D01*
X0194529Y0129852D01*
X0194491Y0129789D01*
X0194455Y0129724D01*
X0194423Y0129656D01*
X0194394Y0129588D01*
X0194370Y0129517D01*
X0194348Y0129446D01*
X0194331Y0129374D01*
X0194318Y0129300D01*
X0194308Y0129227D01*
X0194302Y0129152D01*
X0194300Y0129078D01*
X0194302Y0129004D01*
X0194308Y0128929D01*
X0194318Y0128856D01*
X0194331Y0128782D01*
X0194348Y0128710D01*
X0194370Y0128639D01*
X0194394Y0128568D01*
X0194423Y0128500D01*
X0194455Y0128432D01*
X0194491Y0128367D01*
X0194529Y0128304D01*
X0194572Y0128242D01*
X0194617Y0128183D01*
X0194665Y0128126D01*
X0194716Y0128072D01*
X0194770Y0128021D01*
X0194827Y0127973D01*
X0194886Y0127928D01*
X0194948Y0127885D01*
X0195011Y0127847D01*
X0195076Y0127811D01*
X0195144Y0127779D01*
X0195212Y0127750D01*
X0195283Y0127726D01*
X0195354Y0127704D01*
X0195426Y0127687D01*
X0195500Y0127674D01*
X0195573Y0127664D01*
X0195648Y0127658D01*
X0195722Y0127656D01*
X0197500Y0127656D01*
X0195722Y0127656D02*
X0195639Y0127654D01*
X0195556Y0127648D01*
X0195473Y0127638D01*
X0195390Y0127625D01*
X0195309Y0127607D01*
X0195228Y0127586D01*
X0195149Y0127561D01*
X0195071Y0127532D01*
X0194994Y0127500D01*
X0194919Y0127464D01*
X0194845Y0127425D01*
X0194774Y0127382D01*
X0194704Y0127336D01*
X0194637Y0127286D01*
X0194572Y0127234D01*
X0194510Y0127179D01*
X0194450Y0127120D01*
X0194393Y0127059D01*
X0194339Y0126996D01*
X0194288Y0126930D01*
X0194241Y0126861D01*
X0194196Y0126791D01*
X0194155Y0126718D01*
X0194118Y0126644D01*
X0194083Y0126568D01*
X0194053Y0126490D01*
X0194026Y0126412D01*
X0194003Y0126331D01*
X0193983Y0126250D01*
X0193968Y0126168D01*
X0193956Y0126086D01*
X0193948Y0126003D01*
X0193944Y0125920D01*
X0193944Y0125836D01*
X0193948Y0125753D01*
X0193956Y0125670D01*
X0193968Y0125588D01*
X0193983Y0125506D01*
X0194003Y0125425D01*
X0194026Y0125344D01*
X0194053Y0125266D01*
X0194083Y0125188D01*
X0194118Y0125112D01*
X0194155Y0125038D01*
X0194196Y0124965D01*
X0194241Y0124895D01*
X0194288Y0124826D01*
X0194339Y0124760D01*
X0194393Y0124697D01*
X0194450Y0124636D01*
X0194510Y0124577D01*
X0194572Y0124522D01*
X0194637Y0124470D01*
X0194704Y0124420D01*
X0194774Y0124374D01*
X0194845Y0124331D01*
X0194919Y0124292D01*
X0194994Y0124256D01*
X0195071Y0124224D01*
X0195149Y0124195D01*
X0195228Y0124170D01*
X0195309Y0124149D01*
X0195390Y0124131D01*
X0195473Y0124118D01*
X0195556Y0124108D01*
X0195639Y0124102D01*
X0195722Y0124100D01*
X0195722Y0120500D02*
X0197500Y0120500D01*
X0197500Y0114100D01*
X0195722Y0114100D01*
X0195639Y0114102D01*
X0195556Y0114108D01*
X0195473Y0114118D01*
X0195390Y0114131D01*
X0195309Y0114149D01*
X0195228Y0114170D01*
X0195149Y0114195D01*
X0195071Y0114224D01*
X0194994Y0114256D01*
X0194919Y0114292D01*
X0194845Y0114331D01*
X0194774Y0114374D01*
X0194704Y0114420D01*
X0194637Y0114470D01*
X0194572Y0114522D01*
X0194510Y0114577D01*
X0194450Y0114636D01*
X0194393Y0114697D01*
X0194339Y0114760D01*
X0194288Y0114826D01*
X0194241Y0114895D01*
X0194196Y0114965D01*
X0194155Y0115038D01*
X0194118Y0115112D01*
X0194083Y0115188D01*
X0194053Y0115266D01*
X0194026Y0115344D01*
X0194003Y0115425D01*
X0193983Y0115506D01*
X0193968Y0115588D01*
X0193956Y0115670D01*
X0193948Y0115753D01*
X0193944Y0115836D01*
X0193944Y0115920D01*
X0193948Y0116003D01*
X0193956Y0116086D01*
X0193968Y0116168D01*
X0193983Y0116250D01*
X0194003Y0116331D01*
X0194026Y0116412D01*
X0194053Y0116490D01*
X0194083Y0116568D01*
X0194118Y0116644D01*
X0194155Y0116718D01*
X0194196Y0116791D01*
X0194241Y0116861D01*
X0194288Y0116930D01*
X0194339Y0116996D01*
X0194393Y0117059D01*
X0194450Y0117120D01*
X0194510Y0117179D01*
X0194572Y0117234D01*
X0194637Y0117286D01*
X0194704Y0117336D01*
X0194774Y0117382D01*
X0194845Y0117425D01*
X0194919Y0117464D01*
X0194994Y0117500D01*
X0195071Y0117532D01*
X0195149Y0117561D01*
X0195228Y0117586D01*
X0195309Y0117607D01*
X0195390Y0117625D01*
X0195473Y0117638D01*
X0195556Y0117648D01*
X0195639Y0117654D01*
X0195722Y0117656D01*
X0197500Y0117656D01*
X0195722Y0117656D02*
X0195648Y0117658D01*
X0195573Y0117664D01*
X0195500Y0117674D01*
X0195426Y0117687D01*
X0195354Y0117704D01*
X0195283Y0117726D01*
X0195212Y0117750D01*
X0195144Y0117779D01*
X0195076Y0117811D01*
X0195011Y0117847D01*
X0194948Y0117885D01*
X0194886Y0117928D01*
X0194827Y0117973D01*
X0194770Y0118021D01*
X0194716Y0118072D01*
X0194665Y0118126D01*
X0194617Y0118183D01*
X0194572Y0118242D01*
X0194529Y0118304D01*
X0194491Y0118367D01*
X0194455Y0118432D01*
X0194423Y0118500D01*
X0194394Y0118568D01*
X0194370Y0118639D01*
X0194348Y0118710D01*
X0194331Y0118782D01*
X0194318Y0118856D01*
X0194308Y0118929D01*
X0194302Y0119004D01*
X0194300Y0119078D01*
X0194302Y0119152D01*
X0194308Y0119227D01*
X0194318Y0119300D01*
X0194331Y0119374D01*
X0194348Y0119446D01*
X0194370Y0119517D01*
X0194394Y0119588D01*
X0194423Y0119656D01*
X0194455Y0119724D01*
X0194491Y0119789D01*
X0194529Y0119852D01*
X0194572Y0119914D01*
X0194617Y0119973D01*
X0194665Y0120030D01*
X0194716Y0120084D01*
X0194770Y0120135D01*
X0194827Y0120183D01*
X0194886Y0120228D01*
X0194948Y0120271D01*
X0195011Y0120309D01*
X0195076Y0120345D01*
X0195144Y0120377D01*
X0195212Y0120406D01*
X0195283Y0120430D01*
X0195354Y0120452D01*
X0195426Y0120469D01*
X0195500Y0120482D01*
X0195573Y0120492D01*
X0195648Y0120498D01*
X0195722Y0120500D01*
X0191634Y0118722D02*
X0191634Y0118367D01*
X0191632Y0118293D01*
X0191626Y0118218D01*
X0191616Y0118145D01*
X0191603Y0118071D01*
X0191586Y0117999D01*
X0191564Y0117928D01*
X0191540Y0117857D01*
X0191511Y0117789D01*
X0191479Y0117721D01*
X0191443Y0117656D01*
X0191405Y0117593D01*
X0191362Y0117531D01*
X0191317Y0117472D01*
X0191269Y0117415D01*
X0191218Y0117361D01*
X0191164Y0117310D01*
X0191107Y0117262D01*
X0191048Y0117217D01*
X0190986Y0117174D01*
X0190923Y0117136D01*
X0190858Y0117100D01*
X0190790Y0117068D01*
X0190722Y0117039D01*
X0190651Y0117015D01*
X0190580Y0116993D01*
X0190508Y0116976D01*
X0190434Y0116963D01*
X0190361Y0116953D01*
X0190286Y0116947D01*
X0190212Y0116945D01*
X0190212Y0116944D02*
X0188079Y0116944D01*
X0188079Y0118722D01*
X0188078Y0118722D02*
X0188080Y0118805D01*
X0188086Y0118888D01*
X0188096Y0118971D01*
X0188109Y0119054D01*
X0188127Y0119135D01*
X0188148Y0119216D01*
X0188173Y0119295D01*
X0188202Y0119373D01*
X0188234Y0119450D01*
X0188270Y0119525D01*
X0188309Y0119599D01*
X0188352Y0119670D01*
X0188398Y0119740D01*
X0188448Y0119807D01*
X0188500Y0119872D01*
X0188555Y0119934D01*
X0188614Y0119994D01*
X0188675Y0120051D01*
X0188738Y0120105D01*
X0188804Y0120156D01*
X0188873Y0120203D01*
X0188943Y0120248D01*
X0189016Y0120289D01*
X0189090Y0120326D01*
X0189166Y0120361D01*
X0189244Y0120391D01*
X0189322Y0120418D01*
X0189403Y0120441D01*
X0189484Y0120461D01*
X0189566Y0120476D01*
X0189648Y0120488D01*
X0189731Y0120496D01*
X0189814Y0120500D01*
X0189898Y0120500D01*
X0189981Y0120496D01*
X0190064Y0120488D01*
X0190146Y0120476D01*
X0190228Y0120461D01*
X0190309Y0120441D01*
X0190390Y0120418D01*
X0190468Y0120391D01*
X0190546Y0120361D01*
X0190622Y0120326D01*
X0190696Y0120289D01*
X0190769Y0120248D01*
X0190839Y0120203D01*
X0190908Y0120156D01*
X0190974Y0120105D01*
X0191037Y0120051D01*
X0191098Y0119994D01*
X0191157Y0119934D01*
X0191212Y0119872D01*
X0191264Y0119807D01*
X0191314Y0119740D01*
X0191360Y0119670D01*
X0191403Y0119599D01*
X0191442Y0119525D01*
X0191478Y0119450D01*
X0191510Y0119373D01*
X0191539Y0119295D01*
X0191564Y0119216D01*
X0191585Y0119135D01*
X0191603Y0119054D01*
X0191616Y0118971D01*
X0191626Y0118888D01*
X0191632Y0118805D01*
X0191634Y0118722D01*
X0188079Y0116944D02*
X0188081Y0116840D01*
X0188087Y0116736D01*
X0188096Y0116633D01*
X0188109Y0116530D01*
X0188126Y0116427D01*
X0188147Y0116326D01*
X0188171Y0116225D01*
X0188200Y0116125D01*
X0188231Y0116026D01*
X0188267Y0115928D01*
X0188306Y0115832D01*
X0188348Y0115737D01*
X0188394Y0115644D01*
X0188443Y0115552D01*
X0188495Y0115462D01*
X0188551Y0115375D01*
X0188610Y0115289D01*
X0188672Y0115206D01*
X0188737Y0115125D01*
X0188805Y0115046D01*
X0188876Y0114970D01*
X0188949Y0114897D01*
X0189025Y0114826D01*
X0189104Y0114758D01*
X0189185Y0114693D01*
X0189268Y0114631D01*
X0189354Y0114572D01*
X0189441Y0114516D01*
X0189531Y0114464D01*
X0189623Y0114415D01*
X0189716Y0114369D01*
X0189811Y0114327D01*
X0189907Y0114288D01*
X0190005Y0114252D01*
X0190104Y0114221D01*
X0190204Y0114192D01*
X0190305Y0114168D01*
X0190406Y0114147D01*
X0190509Y0114130D01*
X0190612Y0114117D01*
X0190715Y0114108D01*
X0190819Y0114102D01*
X0190923Y0114100D01*
X0191278Y0109078D02*
X0191276Y0109004D01*
X0191270Y0108929D01*
X0191260Y0108856D01*
X0191247Y0108782D01*
X0191230Y0108710D01*
X0191208Y0108639D01*
X0191184Y0108568D01*
X0191155Y0108500D01*
X0191123Y0108432D01*
X0191087Y0108367D01*
X0191049Y0108304D01*
X0191006Y0108242D01*
X0190961Y0108183D01*
X0190913Y0108126D01*
X0190862Y0108072D01*
X0190808Y0108021D01*
X0190751Y0107973D01*
X0190692Y0107928D01*
X0190630Y0107885D01*
X0190567Y0107847D01*
X0190502Y0107811D01*
X0190434Y0107779D01*
X0190366Y0107750D01*
X0190295Y0107726D01*
X0190224Y0107704D01*
X0190152Y0107687D01*
X0190078Y0107674D01*
X0190005Y0107664D01*
X0189930Y0107658D01*
X0189856Y0107656D01*
X0189782Y0107658D01*
X0189707Y0107664D01*
X0189634Y0107674D01*
X0189560Y0107687D01*
X0189488Y0107704D01*
X0189417Y0107726D01*
X0189346Y0107750D01*
X0189278Y0107779D01*
X0189210Y0107811D01*
X0189145Y0107847D01*
X0189082Y0107885D01*
X0189020Y0107928D01*
X0188961Y0107973D01*
X0188904Y0108021D01*
X0188850Y0108072D01*
X0188799Y0108126D01*
X0188751Y0108183D01*
X0188706Y0108242D01*
X0188663Y0108304D01*
X0188625Y0108367D01*
X0188589Y0108432D01*
X0188557Y0108500D01*
X0188528Y0108568D01*
X0188504Y0108639D01*
X0188482Y0108710D01*
X0188465Y0108782D01*
X0188452Y0108856D01*
X0188442Y0108929D01*
X0188436Y0109004D01*
X0188434Y0109078D01*
X0188436Y0109152D01*
X0188442Y0109227D01*
X0188452Y0109300D01*
X0188465Y0109374D01*
X0188482Y0109446D01*
X0188504Y0109517D01*
X0188528Y0109588D01*
X0188557Y0109656D01*
X0188589Y0109724D01*
X0188625Y0109789D01*
X0188663Y0109852D01*
X0188706Y0109914D01*
X0188751Y0109973D01*
X0188799Y0110030D01*
X0188850Y0110084D01*
X0188904Y0110135D01*
X0188961Y0110183D01*
X0189020Y0110228D01*
X0189082Y0110271D01*
X0189145Y0110309D01*
X0189210Y0110345D01*
X0189278Y0110377D01*
X0189346Y0110406D01*
X0189417Y0110430D01*
X0189488Y0110452D01*
X0189560Y0110469D01*
X0189634Y0110482D01*
X0189707Y0110492D01*
X0189782Y0110498D01*
X0189856Y0110500D01*
X0189930Y0110498D01*
X0190005Y0110492D01*
X0190078Y0110482D01*
X0190152Y0110469D01*
X0190224Y0110452D01*
X0190295Y0110430D01*
X0190366Y0110406D01*
X0190434Y0110377D01*
X0190502Y0110345D01*
X0190567Y0110309D01*
X0190630Y0110271D01*
X0190692Y0110228D01*
X0190751Y0110183D01*
X0190808Y0110135D01*
X0190862Y0110084D01*
X0190913Y0110030D01*
X0190961Y0109973D01*
X0191006Y0109914D01*
X0191049Y0109852D01*
X0191087Y0109789D01*
X0191123Y0109724D01*
X0191155Y0109656D01*
X0191184Y0109588D01*
X0191208Y0109517D01*
X0191230Y0109446D01*
X0191247Y0109374D01*
X0191260Y0109300D01*
X0191270Y0109227D01*
X0191276Y0109152D01*
X0191278Y0109078D01*
X0191634Y0105878D02*
X0191632Y0105795D01*
X0191626Y0105712D01*
X0191616Y0105629D01*
X0191603Y0105546D01*
X0191585Y0105465D01*
X0191564Y0105384D01*
X0191539Y0105305D01*
X0191510Y0105227D01*
X0191478Y0105150D01*
X0191442Y0105075D01*
X0191403Y0105001D01*
X0191360Y0104930D01*
X0191314Y0104860D01*
X0191264Y0104793D01*
X0191212Y0104728D01*
X0191157Y0104666D01*
X0191098Y0104606D01*
X0191037Y0104549D01*
X0190974Y0104495D01*
X0190908Y0104444D01*
X0190839Y0104397D01*
X0190769Y0104352D01*
X0190696Y0104311D01*
X0190622Y0104274D01*
X0190546Y0104239D01*
X0190468Y0104209D01*
X0190390Y0104182D01*
X0190309Y0104159D01*
X0190228Y0104139D01*
X0190146Y0104124D01*
X0190064Y0104112D01*
X0189981Y0104104D01*
X0189898Y0104100D01*
X0189814Y0104100D01*
X0189731Y0104104D01*
X0189648Y0104112D01*
X0189566Y0104124D01*
X0189484Y0104139D01*
X0189403Y0104159D01*
X0189322Y0104182D01*
X0189244Y0104209D01*
X0189166Y0104239D01*
X0189090Y0104274D01*
X0189016Y0104311D01*
X0188943Y0104352D01*
X0188873Y0104397D01*
X0188804Y0104444D01*
X0188738Y0104495D01*
X0188675Y0104549D01*
X0188614Y0104606D01*
X0188555Y0104666D01*
X0188500Y0104728D01*
X0188448Y0104793D01*
X0188398Y0104860D01*
X0188352Y0104930D01*
X0188309Y0105001D01*
X0188270Y0105075D01*
X0188234Y0105150D01*
X0188202Y0105227D01*
X0188173Y0105305D01*
X0188148Y0105384D01*
X0188127Y0105465D01*
X0188109Y0105546D01*
X0188096Y0105629D01*
X0188086Y0105712D01*
X0188080Y0105795D01*
X0188078Y0105878D01*
X0188080Y0105961D01*
X0188086Y0106044D01*
X0188096Y0106127D01*
X0188109Y0106210D01*
X0188127Y0106291D01*
X0188148Y0106372D01*
X0188173Y0106451D01*
X0188202Y0106529D01*
X0188234Y0106606D01*
X0188270Y0106681D01*
X0188309Y0106755D01*
X0188352Y0106826D01*
X0188398Y0106896D01*
X0188448Y0106963D01*
X0188500Y0107028D01*
X0188555Y0107090D01*
X0188614Y0107150D01*
X0188675Y0107207D01*
X0188738Y0107261D01*
X0188804Y0107312D01*
X0188873Y0107359D01*
X0188943Y0107404D01*
X0189016Y0107445D01*
X0189090Y0107482D01*
X0189166Y0107517D01*
X0189244Y0107547D01*
X0189322Y0107574D01*
X0189403Y0107597D01*
X0189484Y0107617D01*
X0189566Y0107632D01*
X0189648Y0107644D01*
X0189731Y0107652D01*
X0189814Y0107656D01*
X0189898Y0107656D01*
X0189981Y0107652D01*
X0190064Y0107644D01*
X0190146Y0107632D01*
X0190228Y0107617D01*
X0190309Y0107597D01*
X0190390Y0107574D01*
X0190468Y0107547D01*
X0190546Y0107517D01*
X0190622Y0107482D01*
X0190696Y0107445D01*
X0190769Y0107404D01*
X0190839Y0107359D01*
X0190908Y0107312D01*
X0190974Y0107261D01*
X0191037Y0107207D01*
X0191098Y0107150D01*
X0191157Y0107090D01*
X0191212Y0107028D01*
X0191264Y0106963D01*
X0191314Y0106896D01*
X0191360Y0106826D01*
X0191403Y0106755D01*
X0191442Y0106681D01*
X0191478Y0106606D01*
X0191510Y0106529D01*
X0191539Y0106451D01*
X0191564Y0106372D01*
X0191585Y0106291D01*
X0191603Y0106210D01*
X0191616Y0106127D01*
X0191626Y0106044D01*
X0191632Y0105961D01*
X0191634Y0105878D01*
X0195722Y0107656D02*
X0195639Y0107654D01*
X0195556Y0107648D01*
X0195473Y0107638D01*
X0195390Y0107625D01*
X0195309Y0107607D01*
X0195228Y0107586D01*
X0195149Y0107561D01*
X0195071Y0107532D01*
X0194994Y0107500D01*
X0194919Y0107464D01*
X0194845Y0107425D01*
X0194774Y0107382D01*
X0194704Y0107336D01*
X0194637Y0107286D01*
X0194572Y0107234D01*
X0194510Y0107179D01*
X0194450Y0107120D01*
X0194393Y0107059D01*
X0194339Y0106996D01*
X0194288Y0106930D01*
X0194241Y0106861D01*
X0194196Y0106791D01*
X0194155Y0106718D01*
X0194118Y0106644D01*
X0194083Y0106568D01*
X0194053Y0106490D01*
X0194026Y0106412D01*
X0194003Y0106331D01*
X0193983Y0106250D01*
X0193968Y0106168D01*
X0193956Y0106086D01*
X0193948Y0106003D01*
X0193944Y0105920D01*
X0193944Y0105836D01*
X0193948Y0105753D01*
X0193956Y0105670D01*
X0193968Y0105588D01*
X0193983Y0105506D01*
X0194003Y0105425D01*
X0194026Y0105344D01*
X0194053Y0105266D01*
X0194083Y0105188D01*
X0194118Y0105112D01*
X0194155Y0105038D01*
X0194196Y0104965D01*
X0194241Y0104895D01*
X0194288Y0104826D01*
X0194339Y0104760D01*
X0194393Y0104697D01*
X0194450Y0104636D01*
X0194510Y0104577D01*
X0194572Y0104522D01*
X0194637Y0104470D01*
X0194704Y0104420D01*
X0194774Y0104374D01*
X0194845Y0104331D01*
X0194919Y0104292D01*
X0194994Y0104256D01*
X0195071Y0104224D01*
X0195149Y0104195D01*
X0195228Y0104170D01*
X0195309Y0104149D01*
X0195390Y0104131D01*
X0195473Y0104118D01*
X0195556Y0104108D01*
X0195639Y0104102D01*
X0195722Y0104100D01*
X0197500Y0104100D01*
X0197500Y0110500D01*
X0195722Y0110500D01*
X0195648Y0110498D01*
X0195573Y0110492D01*
X0195500Y0110482D01*
X0195426Y0110469D01*
X0195354Y0110452D01*
X0195283Y0110430D01*
X0195212Y0110406D01*
X0195144Y0110377D01*
X0195076Y0110345D01*
X0195011Y0110309D01*
X0194948Y0110271D01*
X0194886Y0110228D01*
X0194827Y0110183D01*
X0194770Y0110135D01*
X0194716Y0110084D01*
X0194665Y0110030D01*
X0194617Y0109973D01*
X0194572Y0109914D01*
X0194529Y0109852D01*
X0194491Y0109789D01*
X0194455Y0109724D01*
X0194423Y0109656D01*
X0194394Y0109588D01*
X0194370Y0109517D01*
X0194348Y0109446D01*
X0194331Y0109374D01*
X0194318Y0109300D01*
X0194308Y0109227D01*
X0194302Y0109152D01*
X0194300Y0109078D01*
X0194302Y0109004D01*
X0194308Y0108929D01*
X0194318Y0108856D01*
X0194331Y0108782D01*
X0194348Y0108710D01*
X0194370Y0108639D01*
X0194394Y0108568D01*
X0194423Y0108500D01*
X0194455Y0108432D01*
X0194491Y0108367D01*
X0194529Y0108304D01*
X0194572Y0108242D01*
X0194617Y0108183D01*
X0194665Y0108126D01*
X0194716Y0108072D01*
X0194770Y0108021D01*
X0194827Y0107973D01*
X0194886Y0107928D01*
X0194948Y0107885D01*
X0195011Y0107847D01*
X0195076Y0107811D01*
X0195144Y0107779D01*
X0195212Y0107750D01*
X0195283Y0107726D01*
X0195354Y0107704D01*
X0195426Y0107687D01*
X0195500Y0107674D01*
X0195573Y0107664D01*
X0195648Y0107658D01*
X0195722Y0107656D01*
X0197500Y0107656D01*
X0197500Y0100000D02*
X0195722Y0100000D01*
X0195648Y0099998D01*
X0195573Y0099992D01*
X0195500Y0099982D01*
X0195426Y0099969D01*
X0195354Y0099952D01*
X0195283Y0099930D01*
X0195212Y0099906D01*
X0195144Y0099877D01*
X0195076Y0099845D01*
X0195011Y0099809D01*
X0194948Y0099771D01*
X0194886Y0099728D01*
X0194827Y0099683D01*
X0194770Y0099635D01*
X0194716Y0099584D01*
X0194665Y0099530D01*
X0194617Y0099473D01*
X0194572Y0099414D01*
X0194529Y0099352D01*
X0194491Y0099289D01*
X0194455Y0099224D01*
X0194423Y0099156D01*
X0194394Y0099088D01*
X0194370Y0099017D01*
X0194348Y0098946D01*
X0194331Y0098874D01*
X0194318Y0098800D01*
X0194308Y0098727D01*
X0194302Y0098652D01*
X0194300Y0098578D01*
X0194302Y0098504D01*
X0194308Y0098429D01*
X0194318Y0098356D01*
X0194331Y0098282D01*
X0194348Y0098210D01*
X0194370Y0098139D01*
X0194394Y0098068D01*
X0194423Y0098000D01*
X0194455Y0097932D01*
X0194491Y0097867D01*
X0194529Y0097804D01*
X0194572Y0097742D01*
X0194617Y0097683D01*
X0194665Y0097626D01*
X0194716Y0097572D01*
X0194770Y0097521D01*
X0194827Y0097473D01*
X0194886Y0097428D01*
X0194948Y0097385D01*
X0195011Y0097347D01*
X0195076Y0097311D01*
X0195144Y0097279D01*
X0195212Y0097250D01*
X0195283Y0097226D01*
X0195354Y0097204D01*
X0195426Y0097187D01*
X0195500Y0097174D01*
X0195573Y0097164D01*
X0195648Y0097158D01*
X0195722Y0097156D01*
X0197500Y0097156D01*
X0195722Y0097156D02*
X0195639Y0097154D01*
X0195556Y0097148D01*
X0195473Y0097138D01*
X0195390Y0097125D01*
X0195309Y0097107D01*
X0195228Y0097086D01*
X0195149Y0097061D01*
X0195071Y0097032D01*
X0194994Y0097000D01*
X0194919Y0096964D01*
X0194845Y0096925D01*
X0194774Y0096882D01*
X0194704Y0096836D01*
X0194637Y0096786D01*
X0194572Y0096734D01*
X0194510Y0096679D01*
X0194450Y0096620D01*
X0194393Y0096559D01*
X0194339Y0096496D01*
X0194288Y0096430D01*
X0194241Y0096361D01*
X0194196Y0096291D01*
X0194155Y0096218D01*
X0194118Y0096144D01*
X0194083Y0096068D01*
X0194053Y0095990D01*
X0194026Y0095912D01*
X0194003Y0095831D01*
X0193983Y0095750D01*
X0193968Y0095668D01*
X0193956Y0095586D01*
X0193948Y0095503D01*
X0193944Y0095420D01*
X0193944Y0095336D01*
X0193948Y0095253D01*
X0193956Y0095170D01*
X0193968Y0095088D01*
X0193983Y0095006D01*
X0194003Y0094925D01*
X0194026Y0094844D01*
X0194053Y0094766D01*
X0194083Y0094688D01*
X0194118Y0094612D01*
X0194155Y0094538D01*
X0194196Y0094465D01*
X0194241Y0094395D01*
X0194288Y0094326D01*
X0194339Y0094260D01*
X0194393Y0094197D01*
X0194450Y0094136D01*
X0194510Y0094077D01*
X0194572Y0094022D01*
X0194637Y0093970D01*
X0194704Y0093920D01*
X0194774Y0093874D01*
X0194845Y0093831D01*
X0194919Y0093792D01*
X0194994Y0093756D01*
X0195071Y0093724D01*
X0195149Y0093695D01*
X0195228Y0093670D01*
X0195309Y0093649D01*
X0195390Y0093631D01*
X0195473Y0093618D01*
X0195556Y0093608D01*
X0195639Y0093602D01*
X0195722Y0093600D01*
X0197500Y0093600D01*
X0197500Y0100000D01*
X0191634Y0100000D02*
X0191634Y0099289D01*
X0191634Y0100000D02*
X0188079Y0100000D01*
X0189856Y0093600D01*
X0191702Y0089500D02*
X0189568Y0083100D01*
X0187435Y0089500D01*
X0193944Y0089500D02*
X0197500Y0089500D01*
X0197500Y0086656D01*
X0195367Y0086656D01*
X0195367Y0086655D02*
X0195293Y0086653D01*
X0195218Y0086647D01*
X0195145Y0086637D01*
X0195071Y0086624D01*
X0194999Y0086607D01*
X0194928Y0086585D01*
X0194857Y0086561D01*
X0194789Y0086532D01*
X0194721Y0086500D01*
X0194656Y0086464D01*
X0194593Y0086426D01*
X0194531Y0086383D01*
X0194472Y0086338D01*
X0194415Y0086290D01*
X0194361Y0086239D01*
X0194310Y0086185D01*
X0194262Y0086128D01*
X0194217Y0086069D01*
X0194174Y0086007D01*
X0194136Y0085944D01*
X0194100Y0085879D01*
X0194068Y0085811D01*
X0194039Y0085743D01*
X0194015Y0085672D01*
X0193993Y0085601D01*
X0193976Y0085529D01*
X0193963Y0085455D01*
X0193953Y0085382D01*
X0193947Y0085307D01*
X0193945Y0085233D01*
X0193944Y0085233D02*
X0193944Y0084522D01*
X0193945Y0084522D02*
X0193947Y0084448D01*
X0193953Y0084373D01*
X0193963Y0084300D01*
X0193976Y0084226D01*
X0193993Y0084154D01*
X0194015Y0084083D01*
X0194039Y0084012D01*
X0194068Y0083944D01*
X0194100Y0083876D01*
X0194136Y0083811D01*
X0194174Y0083748D01*
X0194217Y0083686D01*
X0194262Y0083627D01*
X0194310Y0083570D01*
X0194361Y0083516D01*
X0194415Y0083465D01*
X0194472Y0083417D01*
X0194531Y0083372D01*
X0194593Y0083329D01*
X0194656Y0083291D01*
X0194721Y0083255D01*
X0194789Y0083223D01*
X0194857Y0083194D01*
X0194928Y0083170D01*
X0194999Y0083148D01*
X0195071Y0083131D01*
X0195145Y0083118D01*
X0195218Y0083108D01*
X0195293Y0083102D01*
X0195367Y0083100D01*
X0197500Y0083100D01*
X0196078Y0080000D02*
X0193944Y0080000D01*
X0196078Y0080000D02*
X0196152Y0079998D01*
X0196227Y0079992D01*
X0196300Y0079982D01*
X0196374Y0079969D01*
X0196446Y0079952D01*
X0196517Y0079930D01*
X0196588Y0079906D01*
X0196656Y0079877D01*
X0196724Y0079845D01*
X0196789Y0079809D01*
X0196852Y0079771D01*
X0196914Y0079728D01*
X0196973Y0079683D01*
X0197030Y0079635D01*
X0197084Y0079584D01*
X0197135Y0079530D01*
X0197183Y0079473D01*
X0197228Y0079414D01*
X0197271Y0079352D01*
X0197309Y0079289D01*
X0197345Y0079224D01*
X0197377Y0079156D01*
X0197406Y0079088D01*
X0197430Y0079017D01*
X0197452Y0078946D01*
X0197469Y0078874D01*
X0197482Y0078800D01*
X0197492Y0078727D01*
X0197498Y0078652D01*
X0197500Y0078578D01*
X0197500Y0075022D01*
X0197498Y0074948D01*
X0197492Y0074873D01*
X0197482Y0074800D01*
X0197469Y0074726D01*
X0197452Y0074654D01*
X0197430Y0074583D01*
X0197406Y0074512D01*
X0197377Y0074444D01*
X0197345Y0074376D01*
X0197309Y0074311D01*
X0197271Y0074248D01*
X0197228Y0074186D01*
X0197183Y0074127D01*
X0197135Y0074070D01*
X0197084Y0074016D01*
X0197030Y0073965D01*
X0196973Y0073917D01*
X0196914Y0073872D01*
X0196852Y0073829D01*
X0196789Y0073791D01*
X0196724Y0073755D01*
X0196656Y0073723D01*
X0196588Y0073694D01*
X0196517Y0073670D01*
X0196446Y0073648D01*
X0196374Y0073631D01*
X0196300Y0073618D01*
X0196227Y0073608D01*
X0196152Y0073602D01*
X0196078Y0073600D01*
X0193944Y0073600D01*
X0193944Y0077156D01*
X0195011Y0077156D01*
X0190936Y0080000D02*
X0190936Y0073600D01*
X0187380Y0073600D02*
X0187380Y0080000D01*
X0190936Y0080000D02*
X0187380Y0073600D01*
X0184371Y0073600D02*
X0182594Y0073600D01*
X0184371Y0073600D02*
X0184371Y0080000D01*
X0182594Y0080000D01*
X0182512Y0079998D01*
X0182430Y0079992D01*
X0182348Y0079983D01*
X0182267Y0079970D01*
X0182187Y0079953D01*
X0182107Y0079932D01*
X0182029Y0079908D01*
X0181952Y0079880D01*
X0181876Y0079849D01*
X0181801Y0079814D01*
X0181729Y0079775D01*
X0181658Y0079734D01*
X0181589Y0079689D01*
X0181523Y0079641D01*
X0181458Y0079590D01*
X0181396Y0079536D01*
X0181337Y0079479D01*
X0181280Y0079420D01*
X0181226Y0079358D01*
X0181175Y0079293D01*
X0181127Y0079227D01*
X0181082Y0079158D01*
X0181041Y0079087D01*
X0181002Y0079015D01*
X0180967Y0078940D01*
X0180936Y0078864D01*
X0180908Y0078787D01*
X0180884Y0078709D01*
X0180863Y0078629D01*
X0180846Y0078549D01*
X0180833Y0078468D01*
X0180824Y0078386D01*
X0180818Y0078304D01*
X0180816Y0078222D01*
X0180816Y0075378D01*
X0180818Y0075296D01*
X0180824Y0075214D01*
X0180833Y0075132D01*
X0180846Y0075051D01*
X0180863Y0074971D01*
X0180884Y0074891D01*
X0180908Y0074813D01*
X0180936Y0074736D01*
X0180967Y0074660D01*
X0181002Y0074585D01*
X0181041Y0074513D01*
X0181082Y0074442D01*
X0181127Y0074373D01*
X0181175Y0074307D01*
X0181226Y0074242D01*
X0181280Y0074180D01*
X0181337Y0074121D01*
X0181396Y0074064D01*
X0181458Y0074010D01*
X0181523Y0073959D01*
X0181589Y0073911D01*
X0181658Y0073866D01*
X0181729Y0073825D01*
X0181801Y0073786D01*
X0181876Y0073751D01*
X0181952Y0073720D01*
X0182029Y0073692D01*
X0182107Y0073668D01*
X0182187Y0073647D01*
X0182267Y0073630D01*
X0182348Y0073617D01*
X0182430Y0073608D01*
X0182512Y0073602D01*
X0182594Y0073600D01*
X0183702Y0124100D02*
X0185480Y0124100D01*
X0183702Y0124100D02*
X0183619Y0124102D01*
X0183536Y0124108D01*
X0183453Y0124118D01*
X0183370Y0124131D01*
X0183289Y0124149D01*
X0183208Y0124170D01*
X0183129Y0124195D01*
X0183051Y0124224D01*
X0182974Y0124256D01*
X0182899Y0124292D01*
X0182825Y0124331D01*
X0182754Y0124374D01*
X0182684Y0124420D01*
X0182617Y0124470D01*
X0182552Y0124522D01*
X0182490Y0124577D01*
X0182430Y0124636D01*
X0182373Y0124697D01*
X0182319Y0124760D01*
X0182268Y0124826D01*
X0182221Y0124895D01*
X0182176Y0124965D01*
X0182135Y0125038D01*
X0182098Y0125112D01*
X0182063Y0125188D01*
X0182033Y0125266D01*
X0182006Y0125344D01*
X0181983Y0125425D01*
X0181963Y0125506D01*
X0181948Y0125588D01*
X0181936Y0125670D01*
X0181928Y0125753D01*
X0181924Y0125836D01*
X0181924Y0125920D01*
X0181928Y0126003D01*
X0181936Y0126086D01*
X0181948Y0126168D01*
X0181963Y0126250D01*
X0181983Y0126331D01*
X0182006Y0126412D01*
X0182033Y0126490D01*
X0182063Y0126568D01*
X0182098Y0126644D01*
X0182135Y0126718D01*
X0182176Y0126791D01*
X0182221Y0126861D01*
X0182268Y0126930D01*
X0182319Y0126996D01*
X0182373Y0127059D01*
X0182430Y0127120D01*
X0182490Y0127179D01*
X0182552Y0127234D01*
X0182617Y0127286D01*
X0182684Y0127336D01*
X0182754Y0127382D01*
X0182825Y0127425D01*
X0182899Y0127464D01*
X0182974Y0127500D01*
X0183051Y0127532D01*
X0183129Y0127561D01*
X0183208Y0127586D01*
X0183289Y0127607D01*
X0183370Y0127625D01*
X0183453Y0127638D01*
X0183536Y0127648D01*
X0183619Y0127654D01*
X0183702Y0127656D01*
X0183347Y0127656D02*
X0184769Y0127656D01*
X0183347Y0127656D02*
X0183273Y0127658D01*
X0183198Y0127664D01*
X0183125Y0127674D01*
X0183051Y0127687D01*
X0182979Y0127704D01*
X0182908Y0127726D01*
X0182837Y0127750D01*
X0182769Y0127779D01*
X0182701Y0127811D01*
X0182636Y0127847D01*
X0182573Y0127885D01*
X0182511Y0127928D01*
X0182452Y0127973D01*
X0182395Y0128021D01*
X0182341Y0128072D01*
X0182290Y0128126D01*
X0182242Y0128183D01*
X0182197Y0128242D01*
X0182154Y0128304D01*
X0182116Y0128367D01*
X0182080Y0128432D01*
X0182048Y0128500D01*
X0182019Y0128568D01*
X0181995Y0128639D01*
X0181973Y0128710D01*
X0181956Y0128782D01*
X0181943Y0128856D01*
X0181933Y0128929D01*
X0181927Y0129004D01*
X0181925Y0129078D01*
X0181927Y0129152D01*
X0181933Y0129227D01*
X0181943Y0129300D01*
X0181956Y0129374D01*
X0181973Y0129446D01*
X0181995Y0129517D01*
X0182019Y0129588D01*
X0182048Y0129656D01*
X0182080Y0129724D01*
X0182116Y0129789D01*
X0182154Y0129852D01*
X0182197Y0129914D01*
X0182242Y0129973D01*
X0182290Y0130030D01*
X0182341Y0130084D01*
X0182395Y0130135D01*
X0182452Y0130183D01*
X0182511Y0130228D01*
X0182573Y0130271D01*
X0182636Y0130309D01*
X0182701Y0130345D01*
X0182769Y0130377D01*
X0182837Y0130406D01*
X0182908Y0130430D01*
X0182979Y0130452D01*
X0183051Y0130469D01*
X0183125Y0130482D01*
X0183198Y0130492D01*
X0183273Y0130498D01*
X0183347Y0130500D01*
X0185480Y0130500D01*
X0182991Y0133600D02*
X0182991Y0136444D01*
X0181925Y0135022D02*
X0185480Y0135022D01*
X0184058Y0140000D01*
X0189856Y0130500D02*
X0191634Y0129078D01*
D12*
X0054111Y0027535D02*
X0053330Y0027089D01*
X0053237Y0027246D01*
X0053140Y0027400D01*
X0053039Y0027552D01*
X0052934Y0027701D01*
X0052826Y0027848D01*
X0052715Y0027993D01*
X0052600Y0028134D01*
X0052481Y0028273D01*
X0052359Y0028408D01*
X0052234Y0028541D01*
X0052106Y0028671D01*
X0051975Y0028797D01*
X0051841Y0028921D01*
X0051704Y0029041D01*
X0051564Y0029158D01*
X0051421Y0029271D01*
X0051275Y0029381D01*
X0051127Y0029487D01*
X0050976Y0029590D01*
X0050823Y0029689D01*
X0050668Y0029784D01*
X0050510Y0029875D01*
X0050350Y0029963D01*
X0050188Y0030047D01*
X0050025Y0030127D01*
X0049859Y0030203D01*
X0049691Y0030274D01*
X0049522Y0030342D01*
X0049351Y0030406D01*
X0049179Y0030465D01*
X0049005Y0030521D01*
X0048830Y0030572D01*
X0048654Y0030619D01*
X0048477Y0030661D01*
X0048298Y0030700D01*
X0048119Y0030734D01*
X0047939Y0030764D01*
X0047759Y0030789D01*
X0047578Y0030810D01*
X0047396Y0030826D01*
X0047214Y0030839D01*
X0047032Y0030846D01*
X0046850Y0030850D01*
X0046849Y0031749D01*
X0046850Y0031750D01*
X0047054Y0031746D01*
X0047258Y0031738D01*
X0047462Y0031724D01*
X0047666Y0031706D01*
X0047869Y0031682D01*
X0048071Y0031654D01*
X0048273Y0031621D01*
X0048473Y0031583D01*
X0048673Y0031540D01*
X0048872Y0031492D01*
X0049069Y0031440D01*
X0049265Y0031382D01*
X0049460Y0031320D01*
X0049653Y0031254D01*
X0049845Y0031182D01*
X0050034Y0031106D01*
X0050222Y0031026D01*
X0050408Y0030941D01*
X0050592Y0030851D01*
X0050773Y0030758D01*
X0050952Y0030659D01*
X0051129Y0030557D01*
X0051303Y0030450D01*
X0051475Y0030339D01*
X0051644Y0030224D01*
X0051810Y0030105D01*
X0051973Y0029982D01*
X0052133Y0029855D01*
X0052290Y0029724D01*
X0052444Y0029589D01*
X0052594Y0029451D01*
X0052741Y0029309D01*
X0052885Y0029164D01*
X0053025Y0029015D01*
X0053161Y0028863D01*
X0053294Y0028707D01*
X0053422Y0028549D01*
X0053547Y0028387D01*
X0053668Y0028222D01*
X0053785Y0028055D01*
X0053898Y0027884D01*
X0054007Y0027711D01*
X0054112Y0027536D01*
X0054030Y0027489D01*
X0053927Y0027663D01*
X0053819Y0027834D01*
X0053707Y0028002D01*
X0053592Y0028168D01*
X0053472Y0028331D01*
X0053348Y0028490D01*
X0053221Y0028647D01*
X0053090Y0028801D01*
X0052955Y0028951D01*
X0052817Y0029099D01*
X0052675Y0029242D01*
X0052529Y0029383D01*
X0052381Y0029519D01*
X0052229Y0029652D01*
X0052073Y0029782D01*
X0051915Y0029907D01*
X0051754Y0030029D01*
X0051590Y0030147D01*
X0051423Y0030261D01*
X0051253Y0030370D01*
X0051081Y0030476D01*
X0050906Y0030577D01*
X0050729Y0030675D01*
X0050550Y0030767D01*
X0050368Y0030856D01*
X0050184Y0030940D01*
X0049999Y0031020D01*
X0049811Y0031095D01*
X0049622Y0031165D01*
X0049431Y0031231D01*
X0049238Y0031292D01*
X0049044Y0031349D01*
X0048849Y0031401D01*
X0048653Y0031448D01*
X0048455Y0031490D01*
X0048257Y0031528D01*
X0048057Y0031561D01*
X0047857Y0031589D01*
X0047656Y0031612D01*
X0047455Y0031630D01*
X0047254Y0031644D01*
X0047052Y0031652D01*
X0046850Y0031656D01*
X0046850Y0031562D01*
X0047049Y0031558D01*
X0047249Y0031550D01*
X0047448Y0031537D01*
X0047647Y0031518D01*
X0047846Y0031496D01*
X0048043Y0031468D01*
X0048241Y0031435D01*
X0048437Y0031398D01*
X0048632Y0031356D01*
X0048826Y0031310D01*
X0049019Y0031258D01*
X0049211Y0031202D01*
X0049401Y0031142D01*
X0049590Y0031077D01*
X0049777Y0031007D01*
X0049963Y0030933D01*
X0050146Y0030854D01*
X0050328Y0030771D01*
X0050508Y0030683D01*
X0050685Y0030592D01*
X0050860Y0030496D01*
X0051033Y0030395D01*
X0051203Y0030291D01*
X0051371Y0030182D01*
X0051536Y0030070D01*
X0051698Y0029954D01*
X0051857Y0029833D01*
X0052014Y0029709D01*
X0052167Y0029581D01*
X0052318Y0029450D01*
X0052465Y0029314D01*
X0052608Y0029176D01*
X0052749Y0029034D01*
X0052886Y0028888D01*
X0053019Y0028739D01*
X0053149Y0028587D01*
X0053275Y0028432D01*
X0053397Y0028274D01*
X0053515Y0028113D01*
X0053629Y0027950D01*
X0053740Y0027783D01*
X0053846Y0027614D01*
X0053948Y0027443D01*
X0053867Y0027396D01*
X0053766Y0027566D01*
X0053661Y0027733D01*
X0053551Y0027897D01*
X0053438Y0028059D01*
X0053321Y0028218D01*
X0053201Y0028374D01*
X0053076Y0028528D01*
X0052948Y0028678D01*
X0052816Y0028825D01*
X0052681Y0028969D01*
X0052542Y0029109D01*
X0052400Y0029246D01*
X0052255Y0029380D01*
X0052106Y0029510D01*
X0051954Y0029636D01*
X0051800Y0029759D01*
X0051642Y0029878D01*
X0051482Y0029993D01*
X0051319Y0030104D01*
X0051153Y0030211D01*
X0050985Y0030315D01*
X0050814Y0030414D01*
X0050641Y0030509D01*
X0050465Y0030599D01*
X0050288Y0030686D01*
X0050108Y0030768D01*
X0049927Y0030846D01*
X0049744Y0030919D01*
X0049559Y0030988D01*
X0049372Y0031052D01*
X0049184Y0031112D01*
X0048994Y0031168D01*
X0048804Y0031218D01*
X0048612Y0031265D01*
X0048419Y0031306D01*
X0048225Y0031343D01*
X0048030Y0031375D01*
X0047834Y0031402D01*
X0047638Y0031425D01*
X0047441Y0031443D01*
X0047244Y0031456D01*
X0047047Y0031464D01*
X0046850Y0031468D01*
X0046850Y0031374D01*
X0047045Y0031370D01*
X0047240Y0031362D01*
X0047435Y0031349D01*
X0047629Y0031331D01*
X0047823Y0031309D01*
X0048016Y0031282D01*
X0048209Y0031250D01*
X0048400Y0031214D01*
X0048591Y0031173D01*
X0048781Y0031127D01*
X0048969Y0031077D01*
X0049157Y0031022D01*
X0049343Y0030963D01*
X0049527Y0030900D01*
X0049710Y0030831D01*
X0049891Y0030759D01*
X0050070Y0030682D01*
X0050248Y0030601D01*
X0050423Y0030515D01*
X0050597Y0030426D01*
X0050768Y0030332D01*
X0050936Y0030234D01*
X0051103Y0030132D01*
X0051267Y0030026D01*
X0051428Y0029916D01*
X0051586Y0029802D01*
X0051742Y0029685D01*
X0051895Y0029563D01*
X0052045Y0029438D01*
X0052192Y0029310D01*
X0052335Y0029178D01*
X0052476Y0029042D01*
X0052613Y0028903D01*
X0052747Y0028761D01*
X0052877Y0028616D01*
X0053004Y0028468D01*
X0053127Y0028316D01*
X0053246Y0028162D01*
X0053362Y0028005D01*
X0053473Y0027845D01*
X0053581Y0027682D01*
X0053685Y0027517D01*
X0053785Y0027349D01*
X0053704Y0027303D01*
X0053605Y0027468D01*
X0053502Y0027632D01*
X0053395Y0027792D01*
X0053285Y0027950D01*
X0053171Y0028106D01*
X0053053Y0028258D01*
X0052931Y0028408D01*
X0052806Y0028554D01*
X0052677Y0028698D01*
X0052545Y0028838D01*
X0052410Y0028976D01*
X0052271Y0029110D01*
X0052129Y0029240D01*
X0051984Y0029367D01*
X0051836Y0029491D01*
X0051685Y0029610D01*
X0051531Y0029727D01*
X0051374Y0029839D01*
X0051215Y0029948D01*
X0051053Y0030052D01*
X0050888Y0030153D01*
X0050722Y0030250D01*
X0050552Y0030343D01*
X0050381Y0030431D01*
X0050208Y0030516D01*
X0050032Y0030596D01*
X0049855Y0030672D01*
X0049676Y0030744D01*
X0049495Y0030811D01*
X0049313Y0030874D01*
X0049129Y0030932D01*
X0048944Y0030986D01*
X0048758Y0031036D01*
X0048570Y0031081D01*
X0048382Y0031122D01*
X0048193Y0031158D01*
X0048002Y0031189D01*
X0047811Y0031216D01*
X0047620Y0031238D01*
X0047428Y0031255D01*
X0047235Y0031268D01*
X0047043Y0031276D01*
X0046850Y0031280D01*
X0046850Y0031186D01*
X0047040Y0031182D01*
X0047231Y0031174D01*
X0047421Y0031162D01*
X0047611Y0031144D01*
X0047800Y0031122D01*
X0047988Y0031096D01*
X0048176Y0031065D01*
X0048364Y0031029D01*
X0048550Y0030989D01*
X0048735Y0030945D01*
X0048919Y0030896D01*
X0049102Y0030842D01*
X0049284Y0030785D01*
X0049464Y0030722D01*
X0049642Y0030656D01*
X0049819Y0030585D01*
X0049994Y0030510D01*
X0050168Y0030431D01*
X0050339Y0030347D01*
X0050508Y0030260D01*
X0050675Y0030168D01*
X0050840Y0030072D01*
X0051003Y0029973D01*
X0051163Y0029869D01*
X0051320Y0029762D01*
X0051475Y0029651D01*
X0051627Y0029536D01*
X0051776Y0029418D01*
X0051922Y0029296D01*
X0052066Y0029170D01*
X0052206Y0029041D01*
X0052343Y0028909D01*
X0052477Y0028773D01*
X0052608Y0028635D01*
X0052735Y0028493D01*
X0052859Y0028348D01*
X0052979Y0028200D01*
X0053095Y0028049D01*
X0053208Y0027896D01*
X0053317Y0027740D01*
X0053423Y0027581D01*
X0053524Y0027420D01*
X0053622Y0027256D01*
X0053540Y0027209D01*
X0053444Y0027371D01*
X0053344Y0027530D01*
X0053240Y0027687D01*
X0053132Y0027842D01*
X0053020Y0027993D01*
X0052905Y0028142D01*
X0052786Y0028288D01*
X0052664Y0028431D01*
X0052538Y0028571D01*
X0052409Y0028708D01*
X0052277Y0028842D01*
X0052141Y0028973D01*
X0052003Y0029100D01*
X0051861Y0029224D01*
X0051717Y0029345D01*
X0051569Y0029462D01*
X0051419Y0029575D01*
X0051266Y0029685D01*
X0051110Y0029791D01*
X0050952Y0029893D01*
X0050792Y0029992D01*
X0050629Y0030086D01*
X0050464Y0030177D01*
X0050297Y0030263D01*
X0050128Y0030346D01*
X0049957Y0030424D01*
X0049784Y0030498D01*
X0049609Y0030568D01*
X0049432Y0030634D01*
X0049254Y0030695D01*
X0049075Y0030752D01*
X0048894Y0030805D01*
X0048712Y0030854D01*
X0048529Y0030898D01*
X0048345Y0030937D01*
X0048160Y0030972D01*
X0047975Y0031003D01*
X0047788Y0031029D01*
X0047601Y0031051D01*
X0047414Y0031068D01*
X0047226Y0031080D01*
X0047038Y0031088D01*
X0046850Y0031092D01*
X0046850Y0030998D01*
X0047036Y0030994D01*
X0047221Y0030986D01*
X0047407Y0030974D01*
X0047592Y0030957D01*
X0047777Y0030936D01*
X0047961Y0030910D01*
X0048144Y0030880D01*
X0048327Y0030845D01*
X0048509Y0030806D01*
X0048690Y0030762D01*
X0048869Y0030715D01*
X0049048Y0030662D01*
X0049225Y0030606D01*
X0049401Y0030545D01*
X0049575Y0030480D01*
X0049748Y0030411D01*
X0049919Y0030338D01*
X0050088Y0030261D01*
X0050255Y0030179D01*
X0050420Y0030094D01*
X0050583Y0030004D01*
X0050744Y0029911D01*
X0050902Y0029814D01*
X0051058Y0029713D01*
X0051212Y0029608D01*
X0051363Y0029500D01*
X0051512Y0029388D01*
X0051657Y0029272D01*
X0051800Y0029153D01*
X0051940Y0029031D01*
X0052077Y0028905D01*
X0052211Y0028776D01*
X0052341Y0028643D01*
X0052469Y0028508D01*
X0052593Y0028370D01*
X0052714Y0028228D01*
X0052831Y0028084D01*
X0052945Y0027937D01*
X0053055Y0027787D01*
X0053162Y0027635D01*
X0053264Y0027480D01*
X0053363Y0027322D01*
X0053459Y0027163D01*
X0053377Y0027116D01*
X0053283Y0027274D01*
X0053185Y0027429D01*
X0053084Y0027582D01*
X0052978Y0027733D01*
X0052869Y0027881D01*
X0052757Y0028026D01*
X0052641Y0028168D01*
X0052522Y0028308D01*
X0052399Y0028445D01*
X0052273Y0028578D01*
X0052144Y0028709D01*
X0052012Y0028837D01*
X0051877Y0028961D01*
X0051739Y0029082D01*
X0051598Y0029199D01*
X0051454Y0029313D01*
X0051307Y0029424D01*
X0051158Y0029531D01*
X0051006Y0029635D01*
X0050852Y0029734D01*
X0050696Y0029830D01*
X0050537Y0029922D01*
X0050376Y0030011D01*
X0050213Y0030095D01*
X0050048Y0030176D01*
X0049881Y0030252D01*
X0049712Y0030324D01*
X0049541Y0030393D01*
X0049369Y0030457D01*
X0049196Y0030517D01*
X0049021Y0030573D01*
X0048844Y0030624D01*
X0048667Y0030671D01*
X0048488Y0030714D01*
X0048309Y0030753D01*
X0048128Y0030787D01*
X0047947Y0030817D01*
X0047765Y0030842D01*
X0047583Y0030864D01*
X0047400Y0030880D01*
X0047217Y0030893D01*
X0047033Y0030900D01*
X0046850Y0030904D01*
X0046850Y0014851D02*
X0046850Y0015751D01*
X0046850Y0015750D02*
X0047033Y0015754D01*
X0047216Y0015761D01*
X0047399Y0015774D01*
X0047582Y0015791D01*
X0047764Y0015812D01*
X0047945Y0015837D01*
X0048126Y0015867D01*
X0048306Y0015902D01*
X0048485Y0015940D01*
X0048663Y0015983D01*
X0048840Y0016031D01*
X0049015Y0016082D01*
X0049190Y0016138D01*
X0049363Y0016198D01*
X0049534Y0016263D01*
X0049704Y0016331D01*
X0049873Y0016403D01*
X0050039Y0016480D01*
X0050203Y0016561D01*
X0050366Y0016645D01*
X0050526Y0016734D01*
X0050685Y0016826D01*
X0050841Y0016922D01*
X0050994Y0017022D01*
X0051145Y0017126D01*
X0051294Y0017233D01*
X0051440Y0017344D01*
X0051583Y0017458D01*
X0051723Y0017576D01*
X0051860Y0017697D01*
X0051995Y0017821D01*
X0052126Y0017949D01*
X0052255Y0018080D01*
X0052380Y0018214D01*
X0052501Y0018350D01*
X0052620Y0018490D01*
X0052735Y0018633D01*
X0052846Y0018778D01*
X0052954Y0018926D01*
X0053058Y0019077D01*
X0053159Y0019230D01*
X0053256Y0019385D01*
X0053349Y0019543D01*
X0053438Y0019703D01*
X0054232Y0019280D01*
X0054132Y0019100D01*
X0054028Y0018923D01*
X0053920Y0018749D01*
X0053807Y0018577D01*
X0053690Y0018409D01*
X0053569Y0018243D01*
X0053445Y0018080D01*
X0053316Y0017920D01*
X0053183Y0017763D01*
X0053047Y0017610D01*
X0052907Y0017460D01*
X0052763Y0017313D01*
X0052616Y0017170D01*
X0052465Y0017030D01*
X0052311Y0016895D01*
X0052154Y0016763D01*
X0051994Y0016635D01*
X0051830Y0016510D01*
X0051664Y0016390D01*
X0051494Y0016274D01*
X0051322Y0016162D01*
X0051148Y0016054D01*
X0050970Y0015951D01*
X0050791Y0015852D01*
X0050608Y0015757D01*
X0050424Y0015667D01*
X0050238Y0015581D01*
X0050049Y0015500D01*
X0049859Y0015423D01*
X0049666Y0015351D01*
X0049472Y0015284D01*
X0049277Y0015221D01*
X0049080Y0015163D01*
X0048882Y0015110D01*
X0048682Y0015062D01*
X0048481Y0015019D01*
X0048280Y0014981D01*
X0048077Y0014947D01*
X0047874Y0014919D01*
X0047670Y0014895D01*
X0047465Y0014876D01*
X0047261Y0014863D01*
X0047056Y0014854D01*
X0046850Y0014850D01*
X0046850Y0014944D01*
X0047053Y0014948D01*
X0047256Y0014956D01*
X0047459Y0014970D01*
X0047661Y0014988D01*
X0047862Y0015012D01*
X0048063Y0015040D01*
X0048264Y0015073D01*
X0048463Y0015111D01*
X0048661Y0015154D01*
X0048859Y0015202D01*
X0049055Y0015254D01*
X0049250Y0015311D01*
X0049443Y0015373D01*
X0049635Y0015440D01*
X0049825Y0015511D01*
X0050013Y0015586D01*
X0050199Y0015667D01*
X0050384Y0015752D01*
X0050566Y0015841D01*
X0050746Y0015935D01*
X0050924Y0016033D01*
X0051099Y0016135D01*
X0051272Y0016241D01*
X0051442Y0016352D01*
X0051610Y0016467D01*
X0051774Y0016586D01*
X0051936Y0016709D01*
X0052094Y0016835D01*
X0052250Y0016966D01*
X0052402Y0017100D01*
X0052551Y0017238D01*
X0052697Y0017379D01*
X0052839Y0017524D01*
X0052977Y0017673D01*
X0053112Y0017824D01*
X0053243Y0017979D01*
X0053370Y0018137D01*
X0053494Y0018299D01*
X0053613Y0018463D01*
X0053729Y0018630D01*
X0053840Y0018799D01*
X0053948Y0018972D01*
X0054051Y0019147D01*
X0054149Y0019324D01*
X0054066Y0019368D01*
X0053969Y0019193D01*
X0053867Y0019020D01*
X0053761Y0018850D01*
X0053651Y0018682D01*
X0053537Y0018517D01*
X0053418Y0018355D01*
X0053296Y0018195D01*
X0053170Y0018039D01*
X0053041Y0017886D01*
X0052907Y0017736D01*
X0052771Y0017589D01*
X0052630Y0017446D01*
X0052486Y0017306D01*
X0052339Y0017170D01*
X0052188Y0017037D01*
X0052035Y0016908D01*
X0051878Y0016783D01*
X0051718Y0016661D01*
X0051555Y0016544D01*
X0051390Y0016430D01*
X0051222Y0016321D01*
X0051051Y0016215D01*
X0050878Y0016114D01*
X0050702Y0016017D01*
X0050524Y0015925D01*
X0050344Y0015837D01*
X0050161Y0015753D01*
X0049977Y0015673D01*
X0049791Y0015598D01*
X0049603Y0015528D01*
X0049413Y0015462D01*
X0049222Y0015401D01*
X0049030Y0015345D01*
X0048836Y0015293D01*
X0048641Y0015246D01*
X0048445Y0015203D01*
X0048247Y0015166D01*
X0048049Y0015133D01*
X0047851Y0015105D01*
X0047651Y0015082D01*
X0047452Y0015064D01*
X0047251Y0015050D01*
X0047051Y0015042D01*
X0046850Y0015038D01*
X0046850Y0015132D01*
X0047049Y0015136D01*
X0047247Y0015144D01*
X0047445Y0015157D01*
X0047642Y0015176D01*
X0047839Y0015198D01*
X0048036Y0015226D01*
X0048231Y0015258D01*
X0048426Y0015296D01*
X0048620Y0015337D01*
X0048813Y0015384D01*
X0049005Y0015435D01*
X0049195Y0015491D01*
X0049384Y0015551D01*
X0049571Y0015616D01*
X0049757Y0015686D01*
X0049941Y0015760D01*
X0050123Y0015839D01*
X0050303Y0015922D01*
X0050482Y0016009D01*
X0050658Y0016100D01*
X0050831Y0016196D01*
X0051003Y0016296D01*
X0051171Y0016400D01*
X0051338Y0016508D01*
X0051501Y0016621D01*
X0051662Y0016737D01*
X0051820Y0016857D01*
X0051975Y0016981D01*
X0052127Y0017108D01*
X0052276Y0017239D01*
X0052421Y0017374D01*
X0052564Y0017512D01*
X0052702Y0017654D01*
X0052838Y0017799D01*
X0052970Y0017947D01*
X0053098Y0018099D01*
X0053222Y0018253D01*
X0053343Y0018410D01*
X0053460Y0018571D01*
X0053573Y0018734D01*
X0053681Y0018900D01*
X0053786Y0019068D01*
X0053887Y0019239D01*
X0053983Y0019412D01*
X0053901Y0019457D01*
X0053805Y0019285D01*
X0053706Y0019116D01*
X0053602Y0018950D01*
X0053494Y0018786D01*
X0053383Y0018625D01*
X0053267Y0018466D01*
X0053148Y0018311D01*
X0053025Y0018158D01*
X0052898Y0018009D01*
X0052768Y0017862D01*
X0052634Y0017719D01*
X0052497Y0017579D01*
X0052356Y0017442D01*
X0052213Y0017309D01*
X0052066Y0017179D01*
X0051915Y0017053D01*
X0051762Y0016931D01*
X0051606Y0016812D01*
X0051447Y0016697D01*
X0051285Y0016587D01*
X0051121Y0016480D01*
X0050954Y0016377D01*
X0050785Y0016278D01*
X0050613Y0016183D01*
X0050439Y0016093D01*
X0050263Y0016006D01*
X0050085Y0015925D01*
X0049905Y0015847D01*
X0049723Y0015774D01*
X0049540Y0015705D01*
X0049354Y0015641D01*
X0049168Y0015581D01*
X0048980Y0015526D01*
X0048790Y0015475D01*
X0048600Y0015429D01*
X0048408Y0015388D01*
X0048215Y0015351D01*
X0048022Y0015319D01*
X0047828Y0015292D01*
X0047633Y0015269D01*
X0047438Y0015251D01*
X0047242Y0015238D01*
X0047046Y0015230D01*
X0046850Y0015226D01*
X0046850Y0015320D01*
X0047044Y0015324D01*
X0047238Y0015332D01*
X0047431Y0015345D01*
X0047624Y0015363D01*
X0047816Y0015385D01*
X0048008Y0015412D01*
X0048199Y0015444D01*
X0048390Y0015480D01*
X0048579Y0015521D01*
X0048767Y0015566D01*
X0048954Y0015616D01*
X0049140Y0015671D01*
X0049325Y0015730D01*
X0049508Y0015793D01*
X0049689Y0015861D01*
X0049869Y0015934D01*
X0050047Y0016010D01*
X0050223Y0016091D01*
X0050397Y0016177D01*
X0050569Y0016266D01*
X0050739Y0016360D01*
X0050906Y0016457D01*
X0051071Y0016559D01*
X0051233Y0016665D01*
X0051393Y0016774D01*
X0051550Y0016888D01*
X0051704Y0017005D01*
X0051856Y0017126D01*
X0052004Y0017250D01*
X0052149Y0017378D01*
X0052292Y0017510D01*
X0052431Y0017645D01*
X0052566Y0017783D01*
X0052698Y0017925D01*
X0052827Y0018070D01*
X0052952Y0018218D01*
X0053074Y0018369D01*
X0053192Y0018522D01*
X0053306Y0018679D01*
X0053416Y0018838D01*
X0053522Y0019000D01*
X0053625Y0019165D01*
X0053723Y0019332D01*
X0053818Y0019501D01*
X0053735Y0019545D01*
X0053641Y0019378D01*
X0053544Y0019213D01*
X0053443Y0019050D01*
X0053338Y0018890D01*
X0053229Y0018733D01*
X0053116Y0018578D01*
X0053000Y0018426D01*
X0052880Y0018277D01*
X0052756Y0018131D01*
X0052629Y0017988D01*
X0052498Y0017848D01*
X0052364Y0017712D01*
X0052227Y0017578D01*
X0052086Y0017448D01*
X0051943Y0017321D01*
X0051796Y0017198D01*
X0051646Y0017079D01*
X0051494Y0016963D01*
X0051339Y0016851D01*
X0051181Y0016743D01*
X0051020Y0016638D01*
X0050857Y0016538D01*
X0050692Y0016441D01*
X0050525Y0016349D01*
X0050355Y0016261D01*
X0050183Y0016176D01*
X0050009Y0016096D01*
X0049833Y0016021D01*
X0049655Y0015949D01*
X0049476Y0015882D01*
X0049295Y0015819D01*
X0049113Y0015761D01*
X0048929Y0015707D01*
X0048744Y0015657D01*
X0048558Y0015613D01*
X0048371Y0015572D01*
X0048183Y0015536D01*
X0047994Y0015505D01*
X0047805Y0015478D01*
X0047615Y0015456D01*
X0047424Y0015439D01*
X0047233Y0015426D01*
X0047042Y0015418D01*
X0046850Y0015414D01*
X0046850Y0015508D01*
X0047039Y0015512D01*
X0047228Y0015520D01*
X0047417Y0015532D01*
X0047605Y0015550D01*
X0047793Y0015572D01*
X0047980Y0015598D01*
X0048167Y0015629D01*
X0048353Y0015664D01*
X0048538Y0015704D01*
X0048722Y0015749D01*
X0048904Y0015798D01*
X0049086Y0015851D01*
X0049266Y0015908D01*
X0049444Y0015970D01*
X0049622Y0016037D01*
X0049797Y0016107D01*
X0049971Y0016182D01*
X0050143Y0016261D01*
X0050312Y0016345D01*
X0050480Y0016432D01*
X0050646Y0016523D01*
X0050809Y0016619D01*
X0050970Y0016718D01*
X0051129Y0016821D01*
X0051285Y0016928D01*
X0051438Y0017039D01*
X0051589Y0017153D01*
X0051736Y0017271D01*
X0051881Y0017393D01*
X0052023Y0017518D01*
X0052162Y0017646D01*
X0052297Y0017778D01*
X0052430Y0017913D01*
X0052559Y0018051D01*
X0052685Y0018193D01*
X0052807Y0018337D01*
X0052926Y0018484D01*
X0053041Y0018634D01*
X0053152Y0018787D01*
X0053260Y0018943D01*
X0053364Y0019101D01*
X0053464Y0019261D01*
X0053560Y0019424D01*
X0053652Y0019589D01*
X0053569Y0019634D01*
X0053478Y0019470D01*
X0053383Y0019309D01*
X0053284Y0019151D01*
X0053182Y0018995D01*
X0053075Y0018841D01*
X0052965Y0018690D01*
X0052851Y0018542D01*
X0052734Y0018396D01*
X0052613Y0018254D01*
X0052489Y0018114D01*
X0052362Y0017978D01*
X0052231Y0017844D01*
X0052097Y0017714D01*
X0051960Y0017587D01*
X0051820Y0017464D01*
X0051677Y0017344D01*
X0051531Y0017227D01*
X0051382Y0017114D01*
X0051230Y0017005D01*
X0051076Y0016899D01*
X0050920Y0016797D01*
X0050761Y0016699D01*
X0050599Y0016605D01*
X0050436Y0016515D01*
X0050270Y0016428D01*
X0050102Y0016346D01*
X0049933Y0016268D01*
X0049761Y0016194D01*
X0049588Y0016125D01*
X0049413Y0016059D01*
X0049236Y0015998D01*
X0049058Y0015941D01*
X0048879Y0015888D01*
X0048699Y0015840D01*
X0048517Y0015796D01*
X0048334Y0015756D01*
X0048151Y0015721D01*
X0047967Y0015691D01*
X0047782Y0015665D01*
X0047596Y0015643D01*
X0047410Y0015626D01*
X0047224Y0015614D01*
X0047037Y0015606D01*
X0046850Y0015602D01*
X0046850Y0015696D01*
X0047035Y0015700D01*
X0047219Y0015708D01*
X0047403Y0015720D01*
X0047587Y0015737D01*
X0047770Y0015758D01*
X0047953Y0015784D01*
X0048135Y0015814D01*
X0048316Y0015849D01*
X0048496Y0015888D01*
X0048676Y0015931D01*
X0048854Y0015979D01*
X0049031Y0016031D01*
X0049207Y0016087D01*
X0049381Y0016147D01*
X0049554Y0016212D01*
X0049725Y0016281D01*
X0049894Y0016354D01*
X0050062Y0016431D01*
X0050228Y0016512D01*
X0050391Y0016598D01*
X0050553Y0016687D01*
X0050712Y0016780D01*
X0050869Y0016877D01*
X0051024Y0016977D01*
X0051176Y0017082D01*
X0051326Y0017190D01*
X0051473Y0017301D01*
X0051617Y0017416D01*
X0051758Y0017535D01*
X0051897Y0017657D01*
X0052032Y0017782D01*
X0052164Y0017911D01*
X0052294Y0018043D01*
X0052420Y0018177D01*
X0052542Y0018315D01*
X0052661Y0018456D01*
X0052777Y0018600D01*
X0052890Y0018746D01*
X0052998Y0018895D01*
X0053103Y0019047D01*
X0053205Y0019201D01*
X0053302Y0019358D01*
X0053396Y0019517D01*
X0053486Y0019678D01*
X0040341Y0017852D02*
X0041033Y0018429D01*
X0041032Y0018428D02*
X0041151Y0018291D01*
X0041272Y0018157D01*
X0041397Y0018026D01*
X0041525Y0017898D01*
X0041656Y0017774D01*
X0041790Y0017652D01*
X0041927Y0017533D01*
X0042066Y0017418D01*
X0042209Y0017307D01*
X0042354Y0017198D01*
X0042501Y0017093D01*
X0042651Y0016992D01*
X0042803Y0016895D01*
X0042958Y0016801D01*
X0043115Y0016710D01*
X0043274Y0016624D01*
X0043435Y0016541D01*
X0043598Y0016463D01*
X0043763Y0016388D01*
X0043929Y0016317D01*
X0044097Y0016250D01*
X0044267Y0016188D01*
X0044438Y0016129D01*
X0044611Y0016074D01*
X0044784Y0016024D01*
X0044959Y0015978D01*
X0045135Y0015936D01*
X0045312Y0015898D01*
X0045490Y0015865D01*
X0045669Y0015835D01*
X0045848Y0015810D01*
X0046028Y0015790D01*
X0046208Y0015773D01*
X0046388Y0015761D01*
X0046569Y0015754D01*
X0046750Y0015750D01*
X0046751Y0014851D01*
X0046750Y0014850D01*
X0046547Y0014854D01*
X0046345Y0014862D01*
X0046142Y0014876D01*
X0045940Y0014894D01*
X0045739Y0014917D01*
X0045538Y0014945D01*
X0045338Y0014978D01*
X0045138Y0015015D01*
X0044940Y0015057D01*
X0044742Y0015104D01*
X0044546Y0015156D01*
X0044352Y0015213D01*
X0044158Y0015274D01*
X0043966Y0015339D01*
X0043776Y0015410D01*
X0043587Y0015485D01*
X0043401Y0015564D01*
X0043216Y0015648D01*
X0043033Y0015736D01*
X0042853Y0015829D01*
X0042675Y0015925D01*
X0042499Y0016027D01*
X0042326Y0016132D01*
X0042155Y0016241D01*
X0041987Y0016355D01*
X0041821Y0016472D01*
X0041659Y0016594D01*
X0041499Y0016719D01*
X0041343Y0016848D01*
X0041190Y0016981D01*
X0041040Y0017118D01*
X0040893Y0017258D01*
X0040750Y0017401D01*
X0040610Y0017548D01*
X0040473Y0017698D01*
X0040341Y0017852D01*
X0040413Y0017912D01*
X0040544Y0017760D01*
X0040679Y0017612D01*
X0040817Y0017467D01*
X0040959Y0017325D01*
X0041104Y0017186D01*
X0041252Y0017051D01*
X0041404Y0016920D01*
X0041559Y0016792D01*
X0041716Y0016668D01*
X0041877Y0016548D01*
X0042040Y0016432D01*
X0042207Y0016320D01*
X0042375Y0016212D01*
X0042547Y0016107D01*
X0042721Y0016007D01*
X0042897Y0015912D01*
X0043075Y0015820D01*
X0043256Y0015733D01*
X0043439Y0015650D01*
X0043623Y0015571D01*
X0043809Y0015497D01*
X0043998Y0015428D01*
X0044187Y0015363D01*
X0044379Y0015303D01*
X0044571Y0015247D01*
X0044765Y0015196D01*
X0044960Y0015149D01*
X0045156Y0015107D01*
X0045353Y0015070D01*
X0045551Y0015038D01*
X0045750Y0015010D01*
X0045949Y0014987D01*
X0046149Y0014969D01*
X0046349Y0014956D01*
X0046550Y0014948D01*
X0046750Y0014944D01*
X0046750Y0015038D01*
X0046552Y0015042D01*
X0046354Y0015050D01*
X0046156Y0015063D01*
X0045958Y0015081D01*
X0045761Y0015104D01*
X0045565Y0015131D01*
X0045369Y0015163D01*
X0045175Y0015199D01*
X0044981Y0015241D01*
X0044788Y0015287D01*
X0044596Y0015337D01*
X0044406Y0015393D01*
X0044217Y0015452D01*
X0044029Y0015517D01*
X0043843Y0015585D01*
X0043659Y0015658D01*
X0043476Y0015736D01*
X0043296Y0015818D01*
X0043117Y0015904D01*
X0042941Y0015995D01*
X0042767Y0016089D01*
X0042595Y0016188D01*
X0042425Y0016291D01*
X0042258Y0016398D01*
X0042094Y0016509D01*
X0041933Y0016624D01*
X0041774Y0016743D01*
X0041618Y0016865D01*
X0041465Y0016991D01*
X0041315Y0017121D01*
X0041168Y0017255D01*
X0041025Y0017392D01*
X0040885Y0017532D01*
X0040748Y0017675D01*
X0040615Y0017822D01*
X0040485Y0017972D01*
X0040557Y0018032D01*
X0040686Y0017884D01*
X0040817Y0017739D01*
X0040952Y0017597D01*
X0041091Y0017459D01*
X0041233Y0017323D01*
X0041378Y0017191D01*
X0041526Y0017063D01*
X0041677Y0016938D01*
X0041831Y0016817D01*
X0041988Y0016700D01*
X0042148Y0016586D01*
X0042310Y0016477D01*
X0042475Y0016371D01*
X0042643Y0016269D01*
X0042813Y0016171D01*
X0042985Y0016078D01*
X0043159Y0015988D01*
X0043336Y0015903D01*
X0043514Y0015822D01*
X0043694Y0015745D01*
X0043877Y0015673D01*
X0044060Y0015605D01*
X0044246Y0015542D01*
X0044433Y0015483D01*
X0044621Y0015428D01*
X0044810Y0015378D01*
X0045001Y0015333D01*
X0045193Y0015292D01*
X0045385Y0015255D01*
X0045579Y0015224D01*
X0045773Y0015197D01*
X0045968Y0015175D01*
X0046163Y0015157D01*
X0046358Y0015144D01*
X0046554Y0015136D01*
X0046750Y0015132D01*
X0046750Y0015226D01*
X0046556Y0015230D01*
X0046363Y0015238D01*
X0046170Y0015251D01*
X0045977Y0015268D01*
X0045784Y0015290D01*
X0045592Y0015317D01*
X0045401Y0015348D01*
X0045211Y0015384D01*
X0045021Y0015424D01*
X0044833Y0015469D01*
X0044646Y0015519D01*
X0044460Y0015573D01*
X0044275Y0015631D01*
X0044092Y0015694D01*
X0043910Y0015761D01*
X0043730Y0015832D01*
X0043552Y0015908D01*
X0043375Y0015988D01*
X0043201Y0016072D01*
X0043029Y0016161D01*
X0042859Y0016253D01*
X0042691Y0016350D01*
X0042525Y0016451D01*
X0042362Y0016555D01*
X0042202Y0016663D01*
X0042044Y0016776D01*
X0041889Y0016892D01*
X0041736Y0017011D01*
X0041587Y0017135D01*
X0041440Y0017261D01*
X0041297Y0017392D01*
X0041157Y0017525D01*
X0041020Y0017662D01*
X0040887Y0017803D01*
X0040756Y0017946D01*
X0040630Y0018093D01*
X0040702Y0018153D01*
X0040827Y0018008D01*
X0040956Y0017866D01*
X0041088Y0017728D01*
X0041223Y0017592D01*
X0041362Y0017460D01*
X0041503Y0017331D01*
X0041648Y0017206D01*
X0041795Y0017084D01*
X0041946Y0016966D01*
X0042099Y0016851D01*
X0042255Y0016741D01*
X0042414Y0016633D01*
X0042575Y0016530D01*
X0042739Y0016431D01*
X0042905Y0016335D01*
X0043073Y0016244D01*
X0043243Y0016157D01*
X0043415Y0016073D01*
X0043590Y0015994D01*
X0043766Y0015919D01*
X0043944Y0015849D01*
X0044123Y0015782D01*
X0044304Y0015720D01*
X0044487Y0015663D01*
X0044671Y0015609D01*
X0044856Y0015560D01*
X0045042Y0015516D01*
X0045229Y0015476D01*
X0045417Y0015441D01*
X0045606Y0015410D01*
X0045796Y0015383D01*
X0045986Y0015362D01*
X0046176Y0015344D01*
X0046367Y0015332D01*
X0046559Y0015324D01*
X0046750Y0015320D01*
X0046750Y0015414D01*
X0046561Y0015418D01*
X0046372Y0015426D01*
X0046183Y0015438D01*
X0045995Y0015455D01*
X0045807Y0015477D01*
X0045620Y0015503D01*
X0045433Y0015533D01*
X0045247Y0015568D01*
X0045062Y0015608D01*
X0044878Y0015652D01*
X0044696Y0015700D01*
X0044514Y0015753D01*
X0044334Y0015810D01*
X0044155Y0015871D01*
X0043977Y0015937D01*
X0043801Y0016006D01*
X0043627Y0016080D01*
X0043455Y0016158D01*
X0043285Y0016241D01*
X0043117Y0016327D01*
X0042951Y0016417D01*
X0042787Y0016512D01*
X0042625Y0016610D01*
X0042466Y0016712D01*
X0042309Y0016818D01*
X0042155Y0016927D01*
X0042003Y0017041D01*
X0041855Y0017157D01*
X0041709Y0017278D01*
X0041566Y0017401D01*
X0041426Y0017529D01*
X0041289Y0017659D01*
X0041155Y0017793D01*
X0041025Y0017930D01*
X0040898Y0018070D01*
X0040774Y0018213D01*
X0040846Y0018273D01*
X0040969Y0018132D01*
X0041094Y0017994D01*
X0041223Y0017858D01*
X0041355Y0017726D01*
X0041490Y0017597D01*
X0041629Y0017472D01*
X0041770Y0017349D01*
X0041914Y0017230D01*
X0042061Y0017115D01*
X0042210Y0017003D01*
X0042363Y0016895D01*
X0042518Y0016790D01*
X0042675Y0016690D01*
X0042835Y0016593D01*
X0042996Y0016499D01*
X0043161Y0016410D01*
X0043327Y0016325D01*
X0043495Y0016244D01*
X0043665Y0016166D01*
X0043837Y0016093D01*
X0044011Y0016024D01*
X0044186Y0015960D01*
X0044363Y0015899D01*
X0044541Y0015843D01*
X0044720Y0015791D01*
X0044901Y0015743D01*
X0045083Y0015700D01*
X0045265Y0015661D01*
X0045449Y0015626D01*
X0045633Y0015596D01*
X0045818Y0015570D01*
X0046004Y0015549D01*
X0046190Y0015532D01*
X0046377Y0015520D01*
X0046563Y0015512D01*
X0046750Y0015508D01*
X0046750Y0015602D01*
X0046566Y0015606D01*
X0046381Y0015613D01*
X0046197Y0015626D01*
X0046013Y0015642D01*
X0045830Y0015663D01*
X0045647Y0015689D01*
X0045465Y0015719D01*
X0045284Y0015753D01*
X0045103Y0015791D01*
X0044924Y0015834D01*
X0044745Y0015881D01*
X0044568Y0015933D01*
X0044392Y0015988D01*
X0044217Y0016048D01*
X0044044Y0016112D01*
X0043873Y0016180D01*
X0043703Y0016252D01*
X0043535Y0016329D01*
X0043369Y0016409D01*
X0043205Y0016493D01*
X0043042Y0016581D01*
X0042882Y0016673D01*
X0042725Y0016769D01*
X0042569Y0016869D01*
X0042416Y0016972D01*
X0042266Y0017079D01*
X0042118Y0017189D01*
X0041973Y0017303D01*
X0041831Y0017421D01*
X0041691Y0017542D01*
X0041555Y0017666D01*
X0041421Y0017793D01*
X0041291Y0017924D01*
X0041163Y0018057D01*
X0041039Y0018194D01*
X0040919Y0018333D01*
X0040991Y0018394D01*
X0041110Y0018256D01*
X0041233Y0018121D01*
X0041358Y0017989D01*
X0041487Y0017860D01*
X0041619Y0017734D01*
X0041754Y0017612D01*
X0041892Y0017492D01*
X0042032Y0017376D01*
X0042176Y0017264D01*
X0042322Y0017155D01*
X0042470Y0017049D01*
X0042621Y0016947D01*
X0042775Y0016849D01*
X0042930Y0016754D01*
X0043088Y0016663D01*
X0043249Y0016576D01*
X0043411Y0016493D01*
X0043575Y0016414D01*
X0043741Y0016339D01*
X0043909Y0016267D01*
X0044078Y0016200D01*
X0044249Y0016137D01*
X0044421Y0016078D01*
X0044595Y0016023D01*
X0044770Y0015972D01*
X0044946Y0015925D01*
X0045124Y0015883D01*
X0045302Y0015845D01*
X0045481Y0015811D01*
X0045661Y0015782D01*
X0045841Y0015757D01*
X0046022Y0015736D01*
X0046204Y0015719D01*
X0046386Y0015707D01*
X0046568Y0015700D01*
X0046750Y0015696D01*
X0046751Y0031749D02*
X0046751Y0030849D01*
X0046750Y0030850D02*
X0046566Y0030846D01*
X0046381Y0030838D01*
X0046197Y0030826D01*
X0046014Y0030809D01*
X0045830Y0030787D01*
X0045648Y0030762D01*
X0045466Y0030731D01*
X0045285Y0030696D01*
X0045104Y0030657D01*
X0044925Y0030613D01*
X0044747Y0030565D01*
X0044570Y0030513D01*
X0044394Y0030456D01*
X0044220Y0030396D01*
X0044048Y0030330D01*
X0043877Y0030261D01*
X0043707Y0030188D01*
X0043540Y0030110D01*
X0043375Y0030028D01*
X0043211Y0029943D01*
X0043050Y0029853D01*
X0042891Y0029759D01*
X0042734Y0029662D01*
X0042580Y0029561D01*
X0042428Y0029456D01*
X0042279Y0029347D01*
X0042133Y0029235D01*
X0041989Y0029119D01*
X0041849Y0029000D01*
X0041711Y0028877D01*
X0041576Y0028751D01*
X0041444Y0028622D01*
X0041316Y0028489D01*
X0041191Y0028354D01*
X0041069Y0028215D01*
X0040382Y0028796D01*
X0040518Y0028952D01*
X0040659Y0029104D01*
X0040803Y0029253D01*
X0040950Y0029398D01*
X0041101Y0029539D01*
X0041255Y0029676D01*
X0041413Y0029810D01*
X0041574Y0029940D01*
X0041738Y0030066D01*
X0041905Y0030188D01*
X0042075Y0030306D01*
X0042248Y0030419D01*
X0042424Y0030528D01*
X0042602Y0030633D01*
X0042783Y0030734D01*
X0042966Y0030830D01*
X0043151Y0030922D01*
X0043339Y0031009D01*
X0043529Y0031091D01*
X0043720Y0031169D01*
X0043914Y0031242D01*
X0044109Y0031310D01*
X0044306Y0031374D01*
X0044504Y0031432D01*
X0044704Y0031486D01*
X0044905Y0031535D01*
X0045107Y0031579D01*
X0045310Y0031618D01*
X0045514Y0031652D01*
X0045719Y0031681D01*
X0045924Y0031705D01*
X0046130Y0031723D01*
X0046337Y0031737D01*
X0046543Y0031746D01*
X0046750Y0031750D01*
X0046750Y0031656D01*
X0046546Y0031652D01*
X0046341Y0031643D01*
X0046137Y0031630D01*
X0045934Y0031611D01*
X0045731Y0031587D01*
X0045528Y0031559D01*
X0045326Y0031525D01*
X0045126Y0031487D01*
X0044926Y0031443D01*
X0044727Y0031395D01*
X0044530Y0031342D01*
X0044333Y0031284D01*
X0044139Y0031221D01*
X0043946Y0031153D01*
X0043754Y0031081D01*
X0043565Y0031004D01*
X0043377Y0030923D01*
X0043192Y0030837D01*
X0043009Y0030746D01*
X0042827Y0030651D01*
X0042649Y0030552D01*
X0042473Y0030448D01*
X0042299Y0030340D01*
X0042128Y0030228D01*
X0041960Y0030111D01*
X0041795Y0029991D01*
X0041632Y0029866D01*
X0041473Y0029738D01*
X0041317Y0029606D01*
X0041165Y0029470D01*
X0041015Y0029330D01*
X0040870Y0029187D01*
X0040727Y0029040D01*
X0040589Y0028889D01*
X0040454Y0028736D01*
X0040525Y0028675D01*
X0040659Y0028827D01*
X0040796Y0028976D01*
X0040937Y0029121D01*
X0041081Y0029262D01*
X0041228Y0029401D01*
X0041379Y0029535D01*
X0041533Y0029666D01*
X0041691Y0029793D01*
X0041851Y0029916D01*
X0042015Y0030035D01*
X0042181Y0030150D01*
X0042350Y0030261D01*
X0042521Y0030368D01*
X0042696Y0030470D01*
X0042872Y0030569D01*
X0043051Y0030663D01*
X0043233Y0030752D01*
X0043416Y0030837D01*
X0043601Y0030918D01*
X0043789Y0030994D01*
X0043978Y0031065D01*
X0044169Y0031132D01*
X0044361Y0031194D01*
X0044555Y0031251D01*
X0044750Y0031304D01*
X0044947Y0031351D01*
X0045144Y0031394D01*
X0045343Y0031432D01*
X0045542Y0031466D01*
X0045742Y0031494D01*
X0045943Y0031517D01*
X0046144Y0031536D01*
X0046346Y0031550D01*
X0046548Y0031558D01*
X0046750Y0031562D01*
X0046750Y0031468D01*
X0046550Y0031464D01*
X0046351Y0031456D01*
X0046151Y0031442D01*
X0045952Y0031424D01*
X0045754Y0031401D01*
X0045556Y0031373D01*
X0045359Y0031340D01*
X0045163Y0031302D01*
X0044967Y0031260D01*
X0044773Y0031213D01*
X0044580Y0031161D01*
X0044389Y0031104D01*
X0044198Y0031043D01*
X0044010Y0030977D01*
X0043823Y0030906D01*
X0043638Y0030831D01*
X0043454Y0030751D01*
X0043273Y0030667D01*
X0043094Y0030579D01*
X0042917Y0030486D01*
X0042742Y0030389D01*
X0042570Y0030287D01*
X0042401Y0030182D01*
X0042233Y0030072D01*
X0042069Y0029958D01*
X0041908Y0029841D01*
X0041749Y0029719D01*
X0041594Y0029594D01*
X0041441Y0029464D01*
X0041292Y0029331D01*
X0041146Y0029195D01*
X0041004Y0029055D01*
X0040865Y0028911D01*
X0040729Y0028764D01*
X0040597Y0028614D01*
X0040669Y0028554D01*
X0040799Y0028702D01*
X0040933Y0028847D01*
X0041071Y0028989D01*
X0041212Y0029127D01*
X0041356Y0029262D01*
X0041503Y0029394D01*
X0041654Y0029521D01*
X0041808Y0029645D01*
X0041964Y0029766D01*
X0042124Y0029882D01*
X0042286Y0029994D01*
X0042451Y0030103D01*
X0042619Y0030207D01*
X0042789Y0030307D01*
X0042962Y0030403D01*
X0043137Y0030495D01*
X0043314Y0030583D01*
X0043493Y0030666D01*
X0043674Y0030744D01*
X0043857Y0030819D01*
X0044042Y0030888D01*
X0044228Y0030953D01*
X0044416Y0031014D01*
X0044606Y0031070D01*
X0044796Y0031121D01*
X0044988Y0031168D01*
X0045181Y0031210D01*
X0045375Y0031247D01*
X0045570Y0031280D01*
X0045766Y0031307D01*
X0045962Y0031330D01*
X0046158Y0031348D01*
X0046355Y0031362D01*
X0046553Y0031370D01*
X0046750Y0031374D01*
X0046750Y0031280D01*
X0046555Y0031276D01*
X0046360Y0031268D01*
X0046165Y0031255D01*
X0045971Y0031237D01*
X0045777Y0031214D01*
X0045584Y0031187D01*
X0045391Y0031155D01*
X0045200Y0031118D01*
X0045009Y0031076D01*
X0044819Y0031030D01*
X0044631Y0030980D01*
X0044444Y0030924D01*
X0044258Y0030864D01*
X0044074Y0030800D01*
X0043891Y0030731D01*
X0043710Y0030658D01*
X0043531Y0030580D01*
X0043354Y0030498D01*
X0043179Y0030411D01*
X0043007Y0030321D01*
X0042836Y0030226D01*
X0042668Y0030127D01*
X0042502Y0030024D01*
X0042339Y0029917D01*
X0042178Y0029806D01*
X0042021Y0029691D01*
X0041866Y0029572D01*
X0041714Y0029449D01*
X0041565Y0029323D01*
X0041419Y0029193D01*
X0041277Y0029060D01*
X0041138Y0028923D01*
X0041002Y0028783D01*
X0040870Y0028639D01*
X0040741Y0028493D01*
X0040813Y0028432D01*
X0040940Y0028577D01*
X0041071Y0028719D01*
X0041205Y0028857D01*
X0041342Y0028992D01*
X0041483Y0029124D01*
X0041627Y0029252D01*
X0041774Y0029377D01*
X0041924Y0029498D01*
X0042077Y0029615D01*
X0042233Y0029729D01*
X0042392Y0029839D01*
X0042553Y0029945D01*
X0042717Y0030046D01*
X0042883Y0030144D01*
X0043051Y0030238D01*
X0043222Y0030328D01*
X0043395Y0030413D01*
X0043570Y0030494D01*
X0043747Y0030571D01*
X0043925Y0030643D01*
X0044106Y0030712D01*
X0044288Y0030775D01*
X0044471Y0030834D01*
X0044656Y0030889D01*
X0044842Y0030939D01*
X0045030Y0030985D01*
X0045218Y0031026D01*
X0045408Y0031062D01*
X0045598Y0031094D01*
X0045789Y0031121D01*
X0045980Y0031143D01*
X0046172Y0031161D01*
X0046365Y0031174D01*
X0046557Y0031182D01*
X0046750Y0031186D01*
X0046750Y0031092D01*
X0046560Y0031088D01*
X0046369Y0031080D01*
X0046179Y0031067D01*
X0045990Y0031050D01*
X0045800Y0031028D01*
X0045612Y0031001D01*
X0045424Y0030970D01*
X0045237Y0030934D01*
X0045051Y0030893D01*
X0044866Y0030848D01*
X0044682Y0030799D01*
X0044499Y0030744D01*
X0044318Y0030686D01*
X0044138Y0030623D01*
X0043960Y0030556D01*
X0043783Y0030484D01*
X0043608Y0030408D01*
X0043436Y0030328D01*
X0043265Y0030244D01*
X0043096Y0030155D01*
X0042930Y0030063D01*
X0042765Y0029966D01*
X0042604Y0029866D01*
X0042444Y0029761D01*
X0042288Y0029653D01*
X0042134Y0029540D01*
X0041983Y0029424D01*
X0041834Y0029305D01*
X0041689Y0029182D01*
X0041547Y0029055D01*
X0041408Y0028925D01*
X0041272Y0028791D01*
X0041139Y0028655D01*
X0041010Y0028515D01*
X0040884Y0028371D01*
X0040956Y0028311D01*
X0041080Y0028452D01*
X0041208Y0028590D01*
X0041339Y0028725D01*
X0041473Y0028857D01*
X0041610Y0028986D01*
X0041751Y0029111D01*
X0041895Y0029233D01*
X0042041Y0029351D01*
X0042190Y0029465D01*
X0042342Y0029576D01*
X0042497Y0029683D01*
X0042654Y0029786D01*
X0042814Y0029886D01*
X0042976Y0029981D01*
X0043141Y0030073D01*
X0043307Y0030160D01*
X0043476Y0030243D01*
X0043647Y0030323D01*
X0043819Y0030398D01*
X0043994Y0030468D01*
X0044170Y0030535D01*
X0044347Y0030597D01*
X0044527Y0030655D01*
X0044707Y0030708D01*
X0044889Y0030757D01*
X0045071Y0030801D01*
X0045255Y0030841D01*
X0045440Y0030877D01*
X0045626Y0030908D01*
X0045812Y0030934D01*
X0045999Y0030956D01*
X0046186Y0030973D01*
X0046374Y0030986D01*
X0046562Y0030994D01*
X0046750Y0030998D01*
X0046750Y0030904D01*
X0046564Y0030900D01*
X0046379Y0030892D01*
X0046193Y0030880D01*
X0046008Y0030863D01*
X0045824Y0030841D01*
X0045640Y0030815D01*
X0045456Y0030784D01*
X0045274Y0030749D01*
X0045092Y0030710D01*
X0044912Y0030666D01*
X0044732Y0030617D01*
X0044554Y0030565D01*
X0044377Y0030508D01*
X0044202Y0030446D01*
X0044028Y0030381D01*
X0043856Y0030311D01*
X0043685Y0030237D01*
X0043517Y0030159D01*
X0043350Y0030076D01*
X0043186Y0029990D01*
X0043023Y0029900D01*
X0042863Y0029805D01*
X0042705Y0029707D01*
X0042550Y0029605D01*
X0042397Y0029500D01*
X0042247Y0029390D01*
X0042099Y0029277D01*
X0041955Y0029160D01*
X0041813Y0029040D01*
X0041674Y0028917D01*
X0041538Y0028790D01*
X0041406Y0028660D01*
X0041277Y0028526D01*
X0041150Y0028390D01*
X0041028Y0028250D01*
X0027250Y0032249D02*
X0027250Y0031349D01*
X0027250Y0031350D02*
X0027067Y0031346D01*
X0026884Y0031339D01*
X0026701Y0031326D01*
X0026518Y0031309D01*
X0026336Y0031288D01*
X0026155Y0031263D01*
X0025974Y0031233D01*
X0025794Y0031198D01*
X0025615Y0031160D01*
X0025437Y0031117D01*
X0025260Y0031069D01*
X0025085Y0031018D01*
X0024910Y0030962D01*
X0024737Y0030902D01*
X0024566Y0030837D01*
X0024396Y0030769D01*
X0024227Y0030697D01*
X0024061Y0030620D01*
X0023897Y0030539D01*
X0023734Y0030455D01*
X0023574Y0030366D01*
X0023415Y0030274D01*
X0023259Y0030178D01*
X0023106Y0030078D01*
X0022955Y0029974D01*
X0022806Y0029867D01*
X0022660Y0029756D01*
X0022517Y0029642D01*
X0022377Y0029524D01*
X0022240Y0029403D01*
X0022105Y0029279D01*
X0021974Y0029151D01*
X0021845Y0029020D01*
X0021720Y0028886D01*
X0021599Y0028750D01*
X0021480Y0028610D01*
X0021365Y0028467D01*
X0021254Y0028322D01*
X0021146Y0028174D01*
X0021042Y0028023D01*
X0020941Y0027870D01*
X0020844Y0027715D01*
X0020751Y0027557D01*
X0020662Y0027397D01*
X0019868Y0027820D01*
X0019968Y0028000D01*
X0020072Y0028177D01*
X0020180Y0028351D01*
X0020293Y0028523D01*
X0020410Y0028691D01*
X0020531Y0028857D01*
X0020655Y0029020D01*
X0020784Y0029180D01*
X0020917Y0029337D01*
X0021053Y0029490D01*
X0021193Y0029640D01*
X0021337Y0029787D01*
X0021484Y0029930D01*
X0021635Y0030070D01*
X0021789Y0030205D01*
X0021946Y0030337D01*
X0022106Y0030465D01*
X0022270Y0030590D01*
X0022436Y0030710D01*
X0022606Y0030826D01*
X0022778Y0030938D01*
X0022952Y0031046D01*
X0023130Y0031149D01*
X0023309Y0031248D01*
X0023492Y0031343D01*
X0023676Y0031433D01*
X0023862Y0031519D01*
X0024051Y0031600D01*
X0024241Y0031677D01*
X0024434Y0031749D01*
X0024628Y0031816D01*
X0024823Y0031879D01*
X0025020Y0031937D01*
X0025218Y0031990D01*
X0025418Y0032038D01*
X0025619Y0032081D01*
X0025820Y0032119D01*
X0026023Y0032153D01*
X0026226Y0032181D01*
X0026430Y0032205D01*
X0026635Y0032224D01*
X0026839Y0032237D01*
X0027044Y0032246D01*
X0027250Y0032250D01*
X0027250Y0032156D01*
X0027047Y0032152D01*
X0026844Y0032144D01*
X0026641Y0032130D01*
X0026439Y0032112D01*
X0026238Y0032088D01*
X0026037Y0032060D01*
X0025836Y0032027D01*
X0025637Y0031989D01*
X0025439Y0031946D01*
X0025241Y0031898D01*
X0025045Y0031846D01*
X0024850Y0031789D01*
X0024657Y0031727D01*
X0024465Y0031660D01*
X0024275Y0031589D01*
X0024087Y0031514D01*
X0023901Y0031433D01*
X0023716Y0031348D01*
X0023534Y0031259D01*
X0023354Y0031165D01*
X0023176Y0031067D01*
X0023001Y0030965D01*
X0022828Y0030859D01*
X0022658Y0030748D01*
X0022490Y0030633D01*
X0022326Y0030514D01*
X0022164Y0030391D01*
X0022006Y0030265D01*
X0021850Y0030134D01*
X0021698Y0030000D01*
X0021549Y0029862D01*
X0021403Y0029721D01*
X0021261Y0029576D01*
X0021123Y0029427D01*
X0020988Y0029276D01*
X0020857Y0029121D01*
X0020730Y0028963D01*
X0020606Y0028801D01*
X0020487Y0028637D01*
X0020371Y0028470D01*
X0020260Y0028301D01*
X0020152Y0028128D01*
X0020049Y0027953D01*
X0019951Y0027776D01*
X0020034Y0027732D01*
X0020131Y0027907D01*
X0020233Y0028080D01*
X0020339Y0028250D01*
X0020449Y0028418D01*
X0020563Y0028583D01*
X0020682Y0028745D01*
X0020804Y0028905D01*
X0020930Y0029061D01*
X0021059Y0029214D01*
X0021193Y0029364D01*
X0021329Y0029511D01*
X0021470Y0029654D01*
X0021614Y0029794D01*
X0021761Y0029930D01*
X0021912Y0030063D01*
X0022065Y0030192D01*
X0022222Y0030317D01*
X0022382Y0030439D01*
X0022545Y0030556D01*
X0022710Y0030670D01*
X0022878Y0030779D01*
X0023049Y0030885D01*
X0023222Y0030986D01*
X0023398Y0031083D01*
X0023576Y0031175D01*
X0023756Y0031263D01*
X0023939Y0031347D01*
X0024123Y0031427D01*
X0024309Y0031502D01*
X0024497Y0031572D01*
X0024687Y0031638D01*
X0024878Y0031699D01*
X0025070Y0031755D01*
X0025264Y0031807D01*
X0025459Y0031854D01*
X0025655Y0031897D01*
X0025853Y0031934D01*
X0026051Y0031967D01*
X0026249Y0031995D01*
X0026449Y0032018D01*
X0026648Y0032036D01*
X0026849Y0032050D01*
X0027049Y0032058D01*
X0027250Y0032062D01*
X0027250Y0031968D01*
X0027051Y0031964D01*
X0026853Y0031956D01*
X0026655Y0031943D01*
X0026458Y0031924D01*
X0026261Y0031902D01*
X0026064Y0031874D01*
X0025869Y0031842D01*
X0025674Y0031804D01*
X0025480Y0031763D01*
X0025287Y0031716D01*
X0025095Y0031665D01*
X0024905Y0031609D01*
X0024716Y0031549D01*
X0024529Y0031484D01*
X0024343Y0031414D01*
X0024159Y0031340D01*
X0023977Y0031261D01*
X0023797Y0031178D01*
X0023618Y0031091D01*
X0023442Y0031000D01*
X0023269Y0030904D01*
X0023097Y0030804D01*
X0022929Y0030700D01*
X0022762Y0030592D01*
X0022599Y0030479D01*
X0022438Y0030363D01*
X0022280Y0030243D01*
X0022125Y0030119D01*
X0021973Y0029992D01*
X0021824Y0029861D01*
X0021679Y0029726D01*
X0021536Y0029588D01*
X0021398Y0029446D01*
X0021262Y0029301D01*
X0021130Y0029153D01*
X0021002Y0029001D01*
X0020878Y0028847D01*
X0020757Y0028690D01*
X0020640Y0028529D01*
X0020527Y0028366D01*
X0020419Y0028200D01*
X0020314Y0028032D01*
X0020213Y0027861D01*
X0020117Y0027688D01*
X0020199Y0027643D01*
X0020295Y0027815D01*
X0020394Y0027984D01*
X0020498Y0028150D01*
X0020606Y0028314D01*
X0020717Y0028475D01*
X0020833Y0028634D01*
X0020952Y0028789D01*
X0021075Y0028942D01*
X0021202Y0029091D01*
X0021332Y0029238D01*
X0021466Y0029381D01*
X0021603Y0029521D01*
X0021744Y0029658D01*
X0021887Y0029791D01*
X0022034Y0029921D01*
X0022185Y0030047D01*
X0022338Y0030169D01*
X0022494Y0030288D01*
X0022653Y0030403D01*
X0022815Y0030513D01*
X0022979Y0030620D01*
X0023146Y0030723D01*
X0023315Y0030822D01*
X0023487Y0030917D01*
X0023661Y0031007D01*
X0023837Y0031094D01*
X0024015Y0031175D01*
X0024195Y0031253D01*
X0024377Y0031326D01*
X0024560Y0031395D01*
X0024746Y0031459D01*
X0024932Y0031519D01*
X0025120Y0031574D01*
X0025310Y0031625D01*
X0025500Y0031671D01*
X0025692Y0031712D01*
X0025885Y0031749D01*
X0026078Y0031781D01*
X0026272Y0031808D01*
X0026467Y0031831D01*
X0026662Y0031849D01*
X0026858Y0031862D01*
X0027054Y0031870D01*
X0027250Y0031874D01*
X0027250Y0031780D01*
X0027056Y0031776D01*
X0026862Y0031768D01*
X0026669Y0031755D01*
X0026476Y0031737D01*
X0026284Y0031715D01*
X0026092Y0031688D01*
X0025901Y0031656D01*
X0025710Y0031620D01*
X0025521Y0031579D01*
X0025333Y0031534D01*
X0025146Y0031484D01*
X0024960Y0031429D01*
X0024775Y0031370D01*
X0024592Y0031307D01*
X0024411Y0031239D01*
X0024231Y0031166D01*
X0024053Y0031090D01*
X0023877Y0031009D01*
X0023703Y0030923D01*
X0023531Y0030834D01*
X0023361Y0030740D01*
X0023194Y0030643D01*
X0023029Y0030541D01*
X0022867Y0030435D01*
X0022707Y0030326D01*
X0022550Y0030212D01*
X0022396Y0030095D01*
X0022244Y0029974D01*
X0022096Y0029850D01*
X0021951Y0029722D01*
X0021808Y0029590D01*
X0021669Y0029455D01*
X0021534Y0029317D01*
X0021402Y0029175D01*
X0021273Y0029030D01*
X0021148Y0028882D01*
X0021026Y0028731D01*
X0020908Y0028578D01*
X0020794Y0028421D01*
X0020684Y0028262D01*
X0020578Y0028100D01*
X0020475Y0027935D01*
X0020377Y0027768D01*
X0020282Y0027599D01*
X0020365Y0027555D01*
X0020459Y0027722D01*
X0020556Y0027887D01*
X0020657Y0028050D01*
X0020762Y0028210D01*
X0020871Y0028367D01*
X0020984Y0028522D01*
X0021100Y0028674D01*
X0021220Y0028823D01*
X0021344Y0028969D01*
X0021471Y0029112D01*
X0021602Y0029252D01*
X0021736Y0029388D01*
X0021873Y0029522D01*
X0022014Y0029652D01*
X0022157Y0029779D01*
X0022304Y0029902D01*
X0022454Y0030021D01*
X0022606Y0030137D01*
X0022761Y0030249D01*
X0022919Y0030357D01*
X0023080Y0030462D01*
X0023243Y0030562D01*
X0023408Y0030659D01*
X0023575Y0030751D01*
X0023745Y0030839D01*
X0023917Y0030924D01*
X0024091Y0031004D01*
X0024267Y0031079D01*
X0024445Y0031151D01*
X0024624Y0031218D01*
X0024805Y0031281D01*
X0024987Y0031339D01*
X0025171Y0031393D01*
X0025356Y0031443D01*
X0025542Y0031487D01*
X0025729Y0031528D01*
X0025917Y0031564D01*
X0026106Y0031595D01*
X0026295Y0031622D01*
X0026485Y0031644D01*
X0026676Y0031661D01*
X0026867Y0031674D01*
X0027058Y0031682D01*
X0027250Y0031686D01*
X0027250Y0031592D01*
X0027061Y0031588D01*
X0026872Y0031580D01*
X0026683Y0031568D01*
X0026495Y0031550D01*
X0026307Y0031528D01*
X0026120Y0031502D01*
X0025933Y0031471D01*
X0025747Y0031436D01*
X0025562Y0031396D01*
X0025378Y0031351D01*
X0025196Y0031302D01*
X0025014Y0031249D01*
X0024834Y0031192D01*
X0024656Y0031130D01*
X0024478Y0031063D01*
X0024303Y0030993D01*
X0024129Y0030918D01*
X0023957Y0030839D01*
X0023788Y0030755D01*
X0023620Y0030668D01*
X0023454Y0030577D01*
X0023291Y0030481D01*
X0023130Y0030382D01*
X0022971Y0030279D01*
X0022815Y0030172D01*
X0022662Y0030061D01*
X0022511Y0029947D01*
X0022364Y0029829D01*
X0022219Y0029707D01*
X0022077Y0029582D01*
X0021938Y0029454D01*
X0021803Y0029322D01*
X0021670Y0029187D01*
X0021541Y0029049D01*
X0021415Y0028907D01*
X0021293Y0028763D01*
X0021174Y0028616D01*
X0021059Y0028466D01*
X0020948Y0028313D01*
X0020840Y0028157D01*
X0020736Y0027999D01*
X0020636Y0027839D01*
X0020540Y0027676D01*
X0020448Y0027511D01*
X0020531Y0027466D01*
X0020622Y0027630D01*
X0020717Y0027791D01*
X0020816Y0027949D01*
X0020918Y0028105D01*
X0021025Y0028259D01*
X0021135Y0028410D01*
X0021249Y0028558D01*
X0021366Y0028704D01*
X0021487Y0028846D01*
X0021611Y0028986D01*
X0021738Y0029122D01*
X0021869Y0029256D01*
X0022003Y0029386D01*
X0022140Y0029513D01*
X0022280Y0029636D01*
X0022423Y0029756D01*
X0022569Y0029873D01*
X0022718Y0029986D01*
X0022870Y0030095D01*
X0023024Y0030201D01*
X0023180Y0030303D01*
X0023339Y0030401D01*
X0023501Y0030495D01*
X0023664Y0030585D01*
X0023830Y0030672D01*
X0023998Y0030754D01*
X0024167Y0030832D01*
X0024339Y0030906D01*
X0024512Y0030975D01*
X0024687Y0031041D01*
X0024864Y0031102D01*
X0025042Y0031159D01*
X0025221Y0031212D01*
X0025401Y0031260D01*
X0025583Y0031304D01*
X0025766Y0031344D01*
X0025949Y0031379D01*
X0026133Y0031409D01*
X0026318Y0031435D01*
X0026504Y0031457D01*
X0026690Y0031474D01*
X0026876Y0031486D01*
X0027063Y0031494D01*
X0027250Y0031498D01*
X0027250Y0031404D01*
X0027065Y0031400D01*
X0026881Y0031392D01*
X0026697Y0031380D01*
X0026513Y0031363D01*
X0026330Y0031342D01*
X0026147Y0031316D01*
X0025965Y0031286D01*
X0025784Y0031251D01*
X0025604Y0031212D01*
X0025424Y0031169D01*
X0025246Y0031121D01*
X0025069Y0031069D01*
X0024893Y0031013D01*
X0024719Y0030953D01*
X0024546Y0030888D01*
X0024375Y0030819D01*
X0024206Y0030746D01*
X0024038Y0030669D01*
X0023872Y0030588D01*
X0023709Y0030502D01*
X0023547Y0030413D01*
X0023388Y0030320D01*
X0023231Y0030223D01*
X0023076Y0030123D01*
X0022924Y0030018D01*
X0022774Y0029910D01*
X0022627Y0029799D01*
X0022483Y0029684D01*
X0022342Y0029565D01*
X0022203Y0029443D01*
X0022068Y0029318D01*
X0021936Y0029189D01*
X0021806Y0029057D01*
X0021680Y0028923D01*
X0021558Y0028785D01*
X0021439Y0028644D01*
X0021323Y0028500D01*
X0021210Y0028354D01*
X0021102Y0028205D01*
X0020997Y0028053D01*
X0020895Y0027899D01*
X0020798Y0027742D01*
X0020704Y0027583D01*
X0020614Y0027422D01*
X0019989Y0019565D02*
X0020770Y0020011D01*
X0020863Y0019854D01*
X0020960Y0019700D01*
X0021061Y0019548D01*
X0021166Y0019399D01*
X0021274Y0019252D01*
X0021385Y0019107D01*
X0021500Y0018966D01*
X0021619Y0018827D01*
X0021741Y0018692D01*
X0021866Y0018559D01*
X0021994Y0018429D01*
X0022125Y0018303D01*
X0022259Y0018179D01*
X0022396Y0018059D01*
X0022536Y0017942D01*
X0022679Y0017829D01*
X0022825Y0017719D01*
X0022973Y0017613D01*
X0023124Y0017510D01*
X0023277Y0017411D01*
X0023432Y0017316D01*
X0023590Y0017225D01*
X0023750Y0017137D01*
X0023912Y0017053D01*
X0024075Y0016973D01*
X0024241Y0016897D01*
X0024409Y0016826D01*
X0024578Y0016758D01*
X0024749Y0016694D01*
X0024921Y0016635D01*
X0025095Y0016579D01*
X0025270Y0016528D01*
X0025446Y0016481D01*
X0025623Y0016439D01*
X0025802Y0016400D01*
X0025981Y0016366D01*
X0026161Y0016336D01*
X0026341Y0016311D01*
X0026522Y0016290D01*
X0026704Y0016274D01*
X0026886Y0016261D01*
X0027068Y0016254D01*
X0027250Y0016250D01*
X0027251Y0015351D01*
X0027250Y0015350D01*
X0027046Y0015354D01*
X0026842Y0015362D01*
X0026638Y0015376D01*
X0026434Y0015394D01*
X0026231Y0015418D01*
X0026029Y0015446D01*
X0025827Y0015479D01*
X0025627Y0015517D01*
X0025427Y0015560D01*
X0025228Y0015608D01*
X0025031Y0015660D01*
X0024835Y0015718D01*
X0024640Y0015780D01*
X0024447Y0015846D01*
X0024255Y0015918D01*
X0024066Y0015994D01*
X0023878Y0016074D01*
X0023692Y0016159D01*
X0023508Y0016249D01*
X0023327Y0016342D01*
X0023148Y0016441D01*
X0022971Y0016543D01*
X0022797Y0016650D01*
X0022625Y0016761D01*
X0022456Y0016876D01*
X0022290Y0016995D01*
X0022127Y0017118D01*
X0021967Y0017245D01*
X0021810Y0017376D01*
X0021656Y0017511D01*
X0021506Y0017649D01*
X0021359Y0017791D01*
X0021215Y0017936D01*
X0021075Y0018085D01*
X0020939Y0018237D01*
X0020806Y0018393D01*
X0020678Y0018551D01*
X0020553Y0018713D01*
X0020432Y0018878D01*
X0020315Y0019045D01*
X0020202Y0019216D01*
X0020093Y0019389D01*
X0019988Y0019564D01*
X0020070Y0019611D01*
X0020173Y0019437D01*
X0020281Y0019266D01*
X0020393Y0019098D01*
X0020508Y0018932D01*
X0020628Y0018769D01*
X0020752Y0018610D01*
X0020879Y0018453D01*
X0021010Y0018299D01*
X0021145Y0018149D01*
X0021283Y0018001D01*
X0021425Y0017858D01*
X0021571Y0017717D01*
X0021719Y0017581D01*
X0021871Y0017448D01*
X0022027Y0017318D01*
X0022185Y0017193D01*
X0022346Y0017071D01*
X0022510Y0016953D01*
X0022677Y0016839D01*
X0022847Y0016730D01*
X0023019Y0016624D01*
X0023194Y0016523D01*
X0023371Y0016425D01*
X0023550Y0016333D01*
X0023732Y0016244D01*
X0023916Y0016160D01*
X0024101Y0016080D01*
X0024289Y0016005D01*
X0024478Y0015935D01*
X0024669Y0015869D01*
X0024862Y0015808D01*
X0025056Y0015751D01*
X0025251Y0015699D01*
X0025447Y0015652D01*
X0025645Y0015610D01*
X0025843Y0015572D01*
X0026043Y0015539D01*
X0026243Y0015511D01*
X0026444Y0015488D01*
X0026645Y0015470D01*
X0026846Y0015456D01*
X0027048Y0015448D01*
X0027250Y0015444D01*
X0027250Y0015538D01*
X0027051Y0015542D01*
X0026851Y0015550D01*
X0026652Y0015563D01*
X0026453Y0015582D01*
X0026254Y0015604D01*
X0026057Y0015632D01*
X0025859Y0015665D01*
X0025663Y0015702D01*
X0025468Y0015744D01*
X0025274Y0015790D01*
X0025081Y0015842D01*
X0024889Y0015898D01*
X0024699Y0015958D01*
X0024510Y0016023D01*
X0024323Y0016093D01*
X0024137Y0016167D01*
X0023954Y0016246D01*
X0023772Y0016329D01*
X0023592Y0016417D01*
X0023415Y0016508D01*
X0023240Y0016604D01*
X0023067Y0016705D01*
X0022897Y0016809D01*
X0022729Y0016918D01*
X0022564Y0017030D01*
X0022402Y0017146D01*
X0022243Y0017267D01*
X0022086Y0017391D01*
X0021933Y0017519D01*
X0021782Y0017650D01*
X0021635Y0017786D01*
X0021492Y0017924D01*
X0021351Y0018066D01*
X0021214Y0018212D01*
X0021081Y0018361D01*
X0020951Y0018513D01*
X0020825Y0018668D01*
X0020703Y0018826D01*
X0020585Y0018987D01*
X0020471Y0019150D01*
X0020360Y0019317D01*
X0020254Y0019486D01*
X0020152Y0019657D01*
X0020233Y0019704D01*
X0020334Y0019534D01*
X0020439Y0019367D01*
X0020549Y0019203D01*
X0020662Y0019041D01*
X0020779Y0018882D01*
X0020899Y0018726D01*
X0021024Y0018572D01*
X0021152Y0018422D01*
X0021284Y0018275D01*
X0021419Y0018131D01*
X0021558Y0017991D01*
X0021700Y0017854D01*
X0021845Y0017720D01*
X0021994Y0017590D01*
X0022146Y0017464D01*
X0022300Y0017341D01*
X0022458Y0017222D01*
X0022618Y0017107D01*
X0022781Y0016996D01*
X0022947Y0016889D01*
X0023115Y0016785D01*
X0023286Y0016686D01*
X0023459Y0016591D01*
X0023635Y0016501D01*
X0023812Y0016414D01*
X0023992Y0016332D01*
X0024173Y0016254D01*
X0024356Y0016181D01*
X0024541Y0016112D01*
X0024728Y0016048D01*
X0024916Y0015988D01*
X0025106Y0015932D01*
X0025296Y0015882D01*
X0025488Y0015835D01*
X0025681Y0015794D01*
X0025875Y0015757D01*
X0026070Y0015725D01*
X0026266Y0015698D01*
X0026462Y0015675D01*
X0026659Y0015657D01*
X0026856Y0015644D01*
X0027053Y0015636D01*
X0027250Y0015632D01*
X0027250Y0015726D01*
X0027055Y0015730D01*
X0026860Y0015738D01*
X0026665Y0015751D01*
X0026471Y0015769D01*
X0026277Y0015791D01*
X0026084Y0015818D01*
X0025891Y0015850D01*
X0025700Y0015886D01*
X0025509Y0015927D01*
X0025319Y0015973D01*
X0025131Y0016023D01*
X0024943Y0016078D01*
X0024757Y0016137D01*
X0024573Y0016200D01*
X0024390Y0016269D01*
X0024209Y0016341D01*
X0024030Y0016418D01*
X0023852Y0016499D01*
X0023677Y0016585D01*
X0023503Y0016674D01*
X0023332Y0016768D01*
X0023164Y0016866D01*
X0022997Y0016968D01*
X0022833Y0017074D01*
X0022672Y0017184D01*
X0022514Y0017298D01*
X0022358Y0017415D01*
X0022205Y0017537D01*
X0022055Y0017662D01*
X0021908Y0017790D01*
X0021765Y0017922D01*
X0021624Y0018058D01*
X0021487Y0018197D01*
X0021353Y0018339D01*
X0021223Y0018484D01*
X0021096Y0018632D01*
X0020973Y0018784D01*
X0020854Y0018938D01*
X0020738Y0019095D01*
X0020627Y0019255D01*
X0020519Y0019418D01*
X0020415Y0019583D01*
X0020315Y0019751D01*
X0020396Y0019797D01*
X0020495Y0019632D01*
X0020598Y0019468D01*
X0020705Y0019308D01*
X0020815Y0019150D01*
X0020929Y0018994D01*
X0021047Y0018842D01*
X0021169Y0018692D01*
X0021294Y0018546D01*
X0021423Y0018402D01*
X0021555Y0018262D01*
X0021690Y0018124D01*
X0021829Y0017990D01*
X0021971Y0017860D01*
X0022116Y0017733D01*
X0022264Y0017609D01*
X0022415Y0017490D01*
X0022569Y0017373D01*
X0022726Y0017261D01*
X0022885Y0017152D01*
X0023047Y0017048D01*
X0023212Y0016947D01*
X0023378Y0016850D01*
X0023548Y0016757D01*
X0023719Y0016669D01*
X0023892Y0016584D01*
X0024068Y0016504D01*
X0024245Y0016428D01*
X0024424Y0016356D01*
X0024605Y0016289D01*
X0024787Y0016226D01*
X0024971Y0016168D01*
X0025156Y0016114D01*
X0025342Y0016064D01*
X0025530Y0016019D01*
X0025718Y0015978D01*
X0025907Y0015942D01*
X0026098Y0015911D01*
X0026289Y0015884D01*
X0026480Y0015862D01*
X0026672Y0015845D01*
X0026865Y0015832D01*
X0027057Y0015824D01*
X0027250Y0015820D01*
X0027250Y0015914D01*
X0027060Y0015918D01*
X0026869Y0015926D01*
X0026679Y0015938D01*
X0026489Y0015956D01*
X0026300Y0015978D01*
X0026112Y0016004D01*
X0025924Y0016035D01*
X0025736Y0016071D01*
X0025550Y0016111D01*
X0025365Y0016155D01*
X0025181Y0016204D01*
X0024998Y0016258D01*
X0024816Y0016315D01*
X0024636Y0016378D01*
X0024458Y0016444D01*
X0024281Y0016515D01*
X0024106Y0016590D01*
X0023932Y0016669D01*
X0023761Y0016753D01*
X0023592Y0016840D01*
X0023425Y0016932D01*
X0023260Y0017028D01*
X0023097Y0017127D01*
X0022937Y0017231D01*
X0022780Y0017338D01*
X0022625Y0017449D01*
X0022473Y0017564D01*
X0022324Y0017682D01*
X0022178Y0017804D01*
X0022034Y0017930D01*
X0021894Y0018059D01*
X0021757Y0018191D01*
X0021623Y0018327D01*
X0021492Y0018465D01*
X0021365Y0018607D01*
X0021241Y0018752D01*
X0021121Y0018900D01*
X0021005Y0019051D01*
X0020892Y0019204D01*
X0020783Y0019360D01*
X0020677Y0019519D01*
X0020576Y0019680D01*
X0020478Y0019844D01*
X0020560Y0019891D01*
X0020656Y0019729D01*
X0020756Y0019570D01*
X0020860Y0019413D01*
X0020968Y0019258D01*
X0021080Y0019107D01*
X0021195Y0018958D01*
X0021314Y0018812D01*
X0021436Y0018669D01*
X0021562Y0018529D01*
X0021691Y0018392D01*
X0021823Y0018258D01*
X0021959Y0018127D01*
X0022097Y0018000D01*
X0022239Y0017876D01*
X0022383Y0017755D01*
X0022531Y0017638D01*
X0022681Y0017525D01*
X0022834Y0017415D01*
X0022990Y0017309D01*
X0023148Y0017207D01*
X0023308Y0017108D01*
X0023471Y0017014D01*
X0023636Y0016923D01*
X0023803Y0016837D01*
X0023972Y0016754D01*
X0024143Y0016676D01*
X0024316Y0016602D01*
X0024491Y0016532D01*
X0024668Y0016466D01*
X0024846Y0016405D01*
X0025025Y0016348D01*
X0025206Y0016295D01*
X0025388Y0016246D01*
X0025571Y0016202D01*
X0025755Y0016163D01*
X0025940Y0016128D01*
X0026125Y0016097D01*
X0026312Y0016071D01*
X0026499Y0016049D01*
X0026686Y0016032D01*
X0026874Y0016020D01*
X0027062Y0016012D01*
X0027250Y0016008D01*
X0027250Y0016102D01*
X0027064Y0016106D01*
X0026879Y0016114D01*
X0026693Y0016126D01*
X0026508Y0016143D01*
X0026323Y0016164D01*
X0026139Y0016190D01*
X0025956Y0016220D01*
X0025773Y0016255D01*
X0025591Y0016294D01*
X0025410Y0016338D01*
X0025231Y0016385D01*
X0025052Y0016438D01*
X0024875Y0016494D01*
X0024699Y0016555D01*
X0024525Y0016620D01*
X0024352Y0016689D01*
X0024181Y0016762D01*
X0024012Y0016839D01*
X0023845Y0016921D01*
X0023680Y0017006D01*
X0023517Y0017096D01*
X0023356Y0017189D01*
X0023198Y0017286D01*
X0023042Y0017387D01*
X0022888Y0017492D01*
X0022737Y0017600D01*
X0022588Y0017712D01*
X0022443Y0017828D01*
X0022300Y0017947D01*
X0022160Y0018069D01*
X0022023Y0018195D01*
X0021889Y0018324D01*
X0021759Y0018457D01*
X0021631Y0018592D01*
X0021507Y0018730D01*
X0021386Y0018872D01*
X0021269Y0019016D01*
X0021155Y0019163D01*
X0021045Y0019313D01*
X0020938Y0019465D01*
X0020836Y0019620D01*
X0020737Y0019778D01*
X0020641Y0019937D01*
X0020723Y0019984D01*
X0020817Y0019826D01*
X0020915Y0019671D01*
X0021016Y0019518D01*
X0021122Y0019367D01*
X0021231Y0019219D01*
X0021343Y0019074D01*
X0021459Y0018932D01*
X0021578Y0018792D01*
X0021701Y0018655D01*
X0021827Y0018522D01*
X0021956Y0018391D01*
X0022088Y0018263D01*
X0022223Y0018139D01*
X0022361Y0018018D01*
X0022502Y0017901D01*
X0022646Y0017787D01*
X0022793Y0017676D01*
X0022942Y0017569D01*
X0023094Y0017465D01*
X0023248Y0017366D01*
X0023404Y0017270D01*
X0023563Y0017178D01*
X0023724Y0017089D01*
X0023887Y0017005D01*
X0024052Y0016924D01*
X0024219Y0016848D01*
X0024388Y0016776D01*
X0024559Y0016707D01*
X0024731Y0016643D01*
X0024904Y0016583D01*
X0025079Y0016527D01*
X0025256Y0016476D01*
X0025433Y0016429D01*
X0025612Y0016386D01*
X0025791Y0016347D01*
X0025972Y0016313D01*
X0026153Y0016283D01*
X0026335Y0016258D01*
X0026517Y0016236D01*
X0026700Y0016220D01*
X0026883Y0016207D01*
X0027067Y0016200D01*
X0027250Y0016196D01*
X0027349Y0015351D02*
X0027349Y0016251D01*
X0027350Y0016250D02*
X0027534Y0016254D01*
X0027719Y0016262D01*
X0027903Y0016274D01*
X0028086Y0016291D01*
X0028270Y0016313D01*
X0028452Y0016338D01*
X0028634Y0016369D01*
X0028815Y0016404D01*
X0028996Y0016443D01*
X0029175Y0016487D01*
X0029353Y0016535D01*
X0029530Y0016587D01*
X0029706Y0016644D01*
X0029880Y0016704D01*
X0030052Y0016770D01*
X0030223Y0016839D01*
X0030393Y0016912D01*
X0030560Y0016990D01*
X0030725Y0017072D01*
X0030889Y0017157D01*
X0031050Y0017247D01*
X0031209Y0017341D01*
X0031366Y0017438D01*
X0031520Y0017539D01*
X0031672Y0017644D01*
X0031821Y0017753D01*
X0031967Y0017865D01*
X0032111Y0017981D01*
X0032251Y0018100D01*
X0032389Y0018223D01*
X0032524Y0018349D01*
X0032656Y0018478D01*
X0032784Y0018611D01*
X0032909Y0018746D01*
X0033031Y0018885D01*
X0033718Y0018304D01*
X0033582Y0018148D01*
X0033441Y0017996D01*
X0033297Y0017847D01*
X0033150Y0017702D01*
X0032999Y0017561D01*
X0032845Y0017424D01*
X0032687Y0017290D01*
X0032526Y0017160D01*
X0032362Y0017034D01*
X0032195Y0016912D01*
X0032025Y0016794D01*
X0031852Y0016681D01*
X0031676Y0016572D01*
X0031498Y0016467D01*
X0031317Y0016366D01*
X0031134Y0016270D01*
X0030949Y0016178D01*
X0030761Y0016091D01*
X0030571Y0016009D01*
X0030380Y0015931D01*
X0030186Y0015858D01*
X0029991Y0015790D01*
X0029794Y0015726D01*
X0029596Y0015668D01*
X0029396Y0015614D01*
X0029195Y0015565D01*
X0028993Y0015521D01*
X0028790Y0015482D01*
X0028586Y0015448D01*
X0028381Y0015419D01*
X0028176Y0015395D01*
X0027970Y0015377D01*
X0027763Y0015363D01*
X0027557Y0015354D01*
X0027350Y0015350D01*
X0027350Y0015444D01*
X0027554Y0015448D01*
X0027759Y0015457D01*
X0027963Y0015470D01*
X0028166Y0015489D01*
X0028369Y0015513D01*
X0028572Y0015541D01*
X0028774Y0015575D01*
X0028974Y0015613D01*
X0029174Y0015657D01*
X0029373Y0015705D01*
X0029570Y0015758D01*
X0029767Y0015816D01*
X0029961Y0015879D01*
X0030154Y0015947D01*
X0030346Y0016019D01*
X0030535Y0016096D01*
X0030723Y0016177D01*
X0030908Y0016263D01*
X0031091Y0016354D01*
X0031273Y0016449D01*
X0031451Y0016548D01*
X0031627Y0016652D01*
X0031801Y0016760D01*
X0031972Y0016872D01*
X0032140Y0016989D01*
X0032305Y0017109D01*
X0032468Y0017234D01*
X0032627Y0017362D01*
X0032783Y0017494D01*
X0032935Y0017630D01*
X0033085Y0017770D01*
X0033230Y0017913D01*
X0033373Y0018060D01*
X0033511Y0018211D01*
X0033646Y0018364D01*
X0033575Y0018425D01*
X0033441Y0018273D01*
X0033304Y0018124D01*
X0033163Y0017979D01*
X0033019Y0017838D01*
X0032872Y0017699D01*
X0032721Y0017565D01*
X0032567Y0017434D01*
X0032409Y0017307D01*
X0032249Y0017184D01*
X0032085Y0017065D01*
X0031919Y0016950D01*
X0031750Y0016839D01*
X0031579Y0016732D01*
X0031404Y0016630D01*
X0031228Y0016531D01*
X0031049Y0016437D01*
X0030867Y0016348D01*
X0030684Y0016263D01*
X0030499Y0016182D01*
X0030311Y0016106D01*
X0030122Y0016035D01*
X0029931Y0015968D01*
X0029739Y0015906D01*
X0029545Y0015849D01*
X0029350Y0015796D01*
X0029153Y0015749D01*
X0028956Y0015706D01*
X0028757Y0015668D01*
X0028558Y0015634D01*
X0028358Y0015606D01*
X0028157Y0015583D01*
X0027956Y0015564D01*
X0027754Y0015550D01*
X0027552Y0015542D01*
X0027350Y0015538D01*
X0027350Y0015632D01*
X0027550Y0015636D01*
X0027749Y0015644D01*
X0027949Y0015658D01*
X0028148Y0015676D01*
X0028346Y0015699D01*
X0028544Y0015727D01*
X0028741Y0015760D01*
X0028937Y0015798D01*
X0029133Y0015840D01*
X0029327Y0015887D01*
X0029520Y0015939D01*
X0029711Y0015996D01*
X0029902Y0016057D01*
X0030090Y0016123D01*
X0030277Y0016194D01*
X0030462Y0016269D01*
X0030646Y0016349D01*
X0030827Y0016433D01*
X0031006Y0016521D01*
X0031183Y0016614D01*
X0031358Y0016711D01*
X0031530Y0016813D01*
X0031699Y0016918D01*
X0031867Y0017028D01*
X0032031Y0017142D01*
X0032192Y0017259D01*
X0032351Y0017381D01*
X0032506Y0017506D01*
X0032659Y0017636D01*
X0032808Y0017769D01*
X0032954Y0017905D01*
X0033096Y0018045D01*
X0033235Y0018189D01*
X0033371Y0018336D01*
X0033503Y0018486D01*
X0033431Y0018546D01*
X0033301Y0018398D01*
X0033167Y0018253D01*
X0033029Y0018111D01*
X0032888Y0017973D01*
X0032744Y0017838D01*
X0032597Y0017706D01*
X0032446Y0017579D01*
X0032292Y0017455D01*
X0032136Y0017334D01*
X0031976Y0017218D01*
X0031814Y0017106D01*
X0031649Y0016997D01*
X0031481Y0016893D01*
X0031311Y0016793D01*
X0031138Y0016697D01*
X0030963Y0016605D01*
X0030786Y0016517D01*
X0030607Y0016434D01*
X0030426Y0016356D01*
X0030243Y0016281D01*
X0030058Y0016212D01*
X0029872Y0016147D01*
X0029684Y0016086D01*
X0029494Y0016030D01*
X0029304Y0015979D01*
X0029112Y0015932D01*
X0028919Y0015890D01*
X0028725Y0015853D01*
X0028530Y0015820D01*
X0028334Y0015793D01*
X0028138Y0015770D01*
X0027942Y0015752D01*
X0027745Y0015738D01*
X0027547Y0015730D01*
X0027350Y0015726D01*
X0027350Y0015820D01*
X0027545Y0015824D01*
X0027740Y0015832D01*
X0027935Y0015845D01*
X0028129Y0015863D01*
X0028323Y0015886D01*
X0028516Y0015913D01*
X0028709Y0015945D01*
X0028900Y0015982D01*
X0029091Y0016024D01*
X0029281Y0016070D01*
X0029469Y0016120D01*
X0029656Y0016176D01*
X0029842Y0016236D01*
X0030026Y0016300D01*
X0030209Y0016369D01*
X0030390Y0016442D01*
X0030569Y0016520D01*
X0030746Y0016602D01*
X0030921Y0016689D01*
X0031093Y0016779D01*
X0031264Y0016874D01*
X0031432Y0016973D01*
X0031598Y0017076D01*
X0031761Y0017183D01*
X0031922Y0017294D01*
X0032079Y0017409D01*
X0032234Y0017528D01*
X0032386Y0017651D01*
X0032535Y0017777D01*
X0032681Y0017907D01*
X0032823Y0018040D01*
X0032962Y0018177D01*
X0033098Y0018317D01*
X0033230Y0018461D01*
X0033359Y0018607D01*
X0033287Y0018668D01*
X0033160Y0018523D01*
X0033029Y0018381D01*
X0032895Y0018243D01*
X0032758Y0018108D01*
X0032617Y0017976D01*
X0032473Y0017848D01*
X0032326Y0017723D01*
X0032176Y0017602D01*
X0032023Y0017485D01*
X0031867Y0017371D01*
X0031708Y0017261D01*
X0031547Y0017155D01*
X0031383Y0017054D01*
X0031217Y0016956D01*
X0031049Y0016862D01*
X0030878Y0016772D01*
X0030705Y0016687D01*
X0030530Y0016606D01*
X0030353Y0016529D01*
X0030175Y0016457D01*
X0029994Y0016388D01*
X0029812Y0016325D01*
X0029629Y0016266D01*
X0029444Y0016211D01*
X0029258Y0016161D01*
X0029070Y0016115D01*
X0028882Y0016074D01*
X0028692Y0016038D01*
X0028502Y0016006D01*
X0028311Y0015979D01*
X0028120Y0015957D01*
X0027928Y0015939D01*
X0027735Y0015926D01*
X0027543Y0015918D01*
X0027350Y0015914D01*
X0027350Y0016008D01*
X0027540Y0016012D01*
X0027731Y0016020D01*
X0027921Y0016033D01*
X0028110Y0016050D01*
X0028300Y0016072D01*
X0028488Y0016099D01*
X0028676Y0016130D01*
X0028863Y0016166D01*
X0029049Y0016207D01*
X0029234Y0016252D01*
X0029418Y0016301D01*
X0029601Y0016356D01*
X0029782Y0016414D01*
X0029962Y0016477D01*
X0030140Y0016544D01*
X0030317Y0016616D01*
X0030492Y0016692D01*
X0030664Y0016772D01*
X0030835Y0016856D01*
X0031004Y0016945D01*
X0031170Y0017037D01*
X0031335Y0017134D01*
X0031496Y0017234D01*
X0031656Y0017339D01*
X0031812Y0017447D01*
X0031966Y0017560D01*
X0032117Y0017676D01*
X0032266Y0017795D01*
X0032411Y0017918D01*
X0032553Y0018045D01*
X0032692Y0018175D01*
X0032828Y0018309D01*
X0032961Y0018445D01*
X0033090Y0018585D01*
X0033216Y0018729D01*
X0033144Y0018789D01*
X0033020Y0018648D01*
X0032892Y0018510D01*
X0032761Y0018375D01*
X0032627Y0018243D01*
X0032490Y0018114D01*
X0032349Y0017989D01*
X0032205Y0017867D01*
X0032059Y0017749D01*
X0031910Y0017635D01*
X0031758Y0017524D01*
X0031603Y0017417D01*
X0031446Y0017314D01*
X0031286Y0017214D01*
X0031124Y0017119D01*
X0030959Y0017027D01*
X0030793Y0016940D01*
X0030624Y0016857D01*
X0030453Y0016777D01*
X0030281Y0016702D01*
X0030106Y0016632D01*
X0029930Y0016565D01*
X0029753Y0016503D01*
X0029573Y0016445D01*
X0029393Y0016392D01*
X0029211Y0016343D01*
X0029029Y0016299D01*
X0028845Y0016259D01*
X0028660Y0016223D01*
X0028474Y0016192D01*
X0028288Y0016166D01*
X0028101Y0016144D01*
X0027914Y0016127D01*
X0027726Y0016114D01*
X0027538Y0016106D01*
X0027350Y0016102D01*
X0027350Y0016196D01*
X0027536Y0016200D01*
X0027721Y0016208D01*
X0027907Y0016220D01*
X0028092Y0016237D01*
X0028276Y0016259D01*
X0028460Y0016285D01*
X0028644Y0016316D01*
X0028826Y0016351D01*
X0029008Y0016390D01*
X0029188Y0016434D01*
X0029368Y0016483D01*
X0029546Y0016535D01*
X0029723Y0016592D01*
X0029898Y0016654D01*
X0030072Y0016719D01*
X0030244Y0016789D01*
X0030415Y0016863D01*
X0030583Y0016941D01*
X0030750Y0017024D01*
X0030914Y0017110D01*
X0031077Y0017200D01*
X0031237Y0017295D01*
X0031395Y0017393D01*
X0031550Y0017495D01*
X0031703Y0017600D01*
X0031853Y0017710D01*
X0032001Y0017823D01*
X0032145Y0017940D01*
X0032287Y0018060D01*
X0032426Y0018183D01*
X0032562Y0018310D01*
X0032694Y0018440D01*
X0032823Y0018574D01*
X0032950Y0018710D01*
X0033072Y0018850D01*
X0033759Y0029248D02*
X0033067Y0028671D01*
X0033068Y0028672D02*
X0032949Y0028809D01*
X0032828Y0028943D01*
X0032703Y0029074D01*
X0032575Y0029202D01*
X0032444Y0029326D01*
X0032310Y0029448D01*
X0032173Y0029567D01*
X0032034Y0029682D01*
X0031891Y0029793D01*
X0031746Y0029902D01*
X0031599Y0030007D01*
X0031449Y0030108D01*
X0031297Y0030205D01*
X0031142Y0030299D01*
X0030985Y0030390D01*
X0030826Y0030476D01*
X0030665Y0030559D01*
X0030502Y0030637D01*
X0030337Y0030712D01*
X0030171Y0030783D01*
X0030003Y0030850D01*
X0029833Y0030912D01*
X0029662Y0030971D01*
X0029489Y0031026D01*
X0029316Y0031076D01*
X0029141Y0031122D01*
X0028965Y0031164D01*
X0028788Y0031202D01*
X0028610Y0031235D01*
X0028431Y0031265D01*
X0028252Y0031290D01*
X0028072Y0031310D01*
X0027892Y0031327D01*
X0027712Y0031339D01*
X0027531Y0031346D01*
X0027350Y0031350D01*
X0027349Y0032249D01*
X0027350Y0032250D01*
X0027553Y0032246D01*
X0027755Y0032238D01*
X0027958Y0032224D01*
X0028160Y0032206D01*
X0028361Y0032183D01*
X0028562Y0032155D01*
X0028762Y0032122D01*
X0028962Y0032085D01*
X0029160Y0032043D01*
X0029358Y0031996D01*
X0029554Y0031944D01*
X0029748Y0031887D01*
X0029942Y0031826D01*
X0030134Y0031761D01*
X0030324Y0031690D01*
X0030513Y0031615D01*
X0030699Y0031536D01*
X0030884Y0031452D01*
X0031067Y0031364D01*
X0031247Y0031271D01*
X0031425Y0031175D01*
X0031601Y0031073D01*
X0031774Y0030968D01*
X0031945Y0030859D01*
X0032113Y0030745D01*
X0032279Y0030628D01*
X0032441Y0030506D01*
X0032601Y0030381D01*
X0032757Y0030252D01*
X0032910Y0030119D01*
X0033060Y0029982D01*
X0033207Y0029842D01*
X0033350Y0029699D01*
X0033490Y0029552D01*
X0033627Y0029402D01*
X0033759Y0029248D01*
X0033687Y0029188D01*
X0033556Y0029340D01*
X0033421Y0029488D01*
X0033283Y0029633D01*
X0033141Y0029775D01*
X0032996Y0029914D01*
X0032848Y0030049D01*
X0032696Y0030180D01*
X0032541Y0030308D01*
X0032384Y0030432D01*
X0032223Y0030552D01*
X0032060Y0030668D01*
X0031893Y0030780D01*
X0031725Y0030888D01*
X0031553Y0030993D01*
X0031379Y0031093D01*
X0031203Y0031188D01*
X0031025Y0031280D01*
X0030844Y0031367D01*
X0030661Y0031450D01*
X0030477Y0031529D01*
X0030291Y0031603D01*
X0030102Y0031672D01*
X0029913Y0031737D01*
X0029721Y0031797D01*
X0029529Y0031853D01*
X0029335Y0031904D01*
X0029140Y0031951D01*
X0028944Y0031993D01*
X0028747Y0032030D01*
X0028549Y0032062D01*
X0028350Y0032090D01*
X0028151Y0032113D01*
X0027951Y0032131D01*
X0027751Y0032144D01*
X0027550Y0032152D01*
X0027350Y0032156D01*
X0027350Y0032062D01*
X0027548Y0032058D01*
X0027746Y0032050D01*
X0027944Y0032037D01*
X0028142Y0032019D01*
X0028339Y0031996D01*
X0028535Y0031969D01*
X0028731Y0031937D01*
X0028925Y0031901D01*
X0029119Y0031859D01*
X0029312Y0031813D01*
X0029504Y0031763D01*
X0029694Y0031707D01*
X0029883Y0031648D01*
X0030071Y0031583D01*
X0030257Y0031515D01*
X0030441Y0031442D01*
X0030624Y0031364D01*
X0030804Y0031282D01*
X0030983Y0031196D01*
X0031159Y0031105D01*
X0031333Y0031011D01*
X0031505Y0030912D01*
X0031675Y0030809D01*
X0031842Y0030702D01*
X0032006Y0030591D01*
X0032167Y0030476D01*
X0032326Y0030357D01*
X0032482Y0030235D01*
X0032635Y0030109D01*
X0032785Y0029979D01*
X0032932Y0029845D01*
X0033075Y0029708D01*
X0033215Y0029568D01*
X0033352Y0029425D01*
X0033485Y0029278D01*
X0033615Y0029128D01*
X0033543Y0029068D01*
X0033414Y0029216D01*
X0033283Y0029361D01*
X0033148Y0029503D01*
X0033009Y0029641D01*
X0032867Y0029777D01*
X0032722Y0029909D01*
X0032574Y0030037D01*
X0032423Y0030162D01*
X0032269Y0030283D01*
X0032112Y0030400D01*
X0031952Y0030514D01*
X0031790Y0030623D01*
X0031625Y0030729D01*
X0031457Y0030831D01*
X0031287Y0030929D01*
X0031115Y0031022D01*
X0030941Y0031112D01*
X0030764Y0031197D01*
X0030586Y0031278D01*
X0030406Y0031355D01*
X0030223Y0031427D01*
X0030040Y0031495D01*
X0029854Y0031558D01*
X0029667Y0031617D01*
X0029479Y0031672D01*
X0029290Y0031722D01*
X0029099Y0031767D01*
X0028907Y0031808D01*
X0028715Y0031845D01*
X0028521Y0031876D01*
X0028327Y0031903D01*
X0028132Y0031925D01*
X0027937Y0031943D01*
X0027742Y0031956D01*
X0027546Y0031964D01*
X0027350Y0031968D01*
X0027350Y0031874D01*
X0027544Y0031870D01*
X0027737Y0031862D01*
X0027930Y0031849D01*
X0028123Y0031832D01*
X0028316Y0031810D01*
X0028508Y0031783D01*
X0028699Y0031752D01*
X0028889Y0031716D01*
X0029079Y0031676D01*
X0029267Y0031631D01*
X0029454Y0031581D01*
X0029640Y0031527D01*
X0029825Y0031469D01*
X0030008Y0031406D01*
X0030190Y0031339D01*
X0030370Y0031268D01*
X0030548Y0031192D01*
X0030725Y0031112D01*
X0030899Y0031028D01*
X0031071Y0030939D01*
X0031241Y0030847D01*
X0031409Y0030750D01*
X0031575Y0030649D01*
X0031738Y0030545D01*
X0031898Y0030437D01*
X0032056Y0030324D01*
X0032211Y0030208D01*
X0032364Y0030089D01*
X0032513Y0029965D01*
X0032660Y0029839D01*
X0032803Y0029708D01*
X0032943Y0029575D01*
X0033080Y0029438D01*
X0033213Y0029297D01*
X0033344Y0029154D01*
X0033470Y0029007D01*
X0033398Y0028947D01*
X0033273Y0029092D01*
X0033144Y0029234D01*
X0033012Y0029372D01*
X0032877Y0029508D01*
X0032738Y0029640D01*
X0032597Y0029769D01*
X0032452Y0029894D01*
X0032305Y0030016D01*
X0032154Y0030134D01*
X0032001Y0030249D01*
X0031845Y0030359D01*
X0031686Y0030467D01*
X0031525Y0030570D01*
X0031361Y0030669D01*
X0031195Y0030765D01*
X0031027Y0030856D01*
X0030857Y0030943D01*
X0030685Y0031027D01*
X0030510Y0031106D01*
X0030334Y0031181D01*
X0030156Y0031251D01*
X0029977Y0031318D01*
X0029796Y0031380D01*
X0029613Y0031437D01*
X0029429Y0031491D01*
X0029244Y0031540D01*
X0029058Y0031584D01*
X0028871Y0031624D01*
X0028683Y0031659D01*
X0028494Y0031690D01*
X0028304Y0031717D01*
X0028114Y0031738D01*
X0027924Y0031756D01*
X0027733Y0031768D01*
X0027541Y0031776D01*
X0027350Y0031780D01*
X0027350Y0031686D01*
X0027539Y0031682D01*
X0027728Y0031674D01*
X0027917Y0031662D01*
X0028105Y0031645D01*
X0028293Y0031623D01*
X0028480Y0031597D01*
X0028667Y0031567D01*
X0028853Y0031532D01*
X0029038Y0031492D01*
X0029222Y0031448D01*
X0029404Y0031400D01*
X0029586Y0031347D01*
X0029766Y0031290D01*
X0029945Y0031229D01*
X0030123Y0031163D01*
X0030299Y0031094D01*
X0030473Y0031020D01*
X0030645Y0030942D01*
X0030815Y0030859D01*
X0030983Y0030773D01*
X0031149Y0030683D01*
X0031313Y0030588D01*
X0031475Y0030490D01*
X0031634Y0030388D01*
X0031791Y0030282D01*
X0031945Y0030173D01*
X0032097Y0030059D01*
X0032245Y0029943D01*
X0032391Y0029822D01*
X0032534Y0029699D01*
X0032674Y0029571D01*
X0032811Y0029441D01*
X0032945Y0029307D01*
X0033075Y0029170D01*
X0033202Y0029030D01*
X0033326Y0028887D01*
X0033254Y0028827D01*
X0033131Y0028968D01*
X0033006Y0029106D01*
X0032877Y0029242D01*
X0032745Y0029374D01*
X0032610Y0029503D01*
X0032471Y0029628D01*
X0032330Y0029751D01*
X0032186Y0029870D01*
X0032039Y0029985D01*
X0031890Y0030097D01*
X0031737Y0030205D01*
X0031582Y0030310D01*
X0031425Y0030410D01*
X0031265Y0030507D01*
X0031104Y0030601D01*
X0030939Y0030690D01*
X0030773Y0030775D01*
X0030605Y0030856D01*
X0030435Y0030934D01*
X0030263Y0031007D01*
X0030089Y0031076D01*
X0029914Y0031140D01*
X0029737Y0031201D01*
X0029559Y0031257D01*
X0029380Y0031309D01*
X0029199Y0031357D01*
X0029017Y0031400D01*
X0028835Y0031439D01*
X0028651Y0031474D01*
X0028467Y0031504D01*
X0028282Y0031530D01*
X0028096Y0031551D01*
X0027910Y0031568D01*
X0027723Y0031580D01*
X0027537Y0031588D01*
X0027350Y0031592D01*
X0027350Y0031498D01*
X0027534Y0031494D01*
X0027719Y0031487D01*
X0027903Y0031474D01*
X0028087Y0031458D01*
X0028270Y0031437D01*
X0028453Y0031411D01*
X0028635Y0031381D01*
X0028816Y0031347D01*
X0028997Y0031309D01*
X0029176Y0031266D01*
X0029355Y0031219D01*
X0029532Y0031167D01*
X0029708Y0031112D01*
X0029883Y0031052D01*
X0030056Y0030988D01*
X0030227Y0030920D01*
X0030397Y0030848D01*
X0030565Y0030771D01*
X0030731Y0030691D01*
X0030895Y0030607D01*
X0031058Y0030519D01*
X0031218Y0030427D01*
X0031375Y0030331D01*
X0031531Y0030231D01*
X0031684Y0030128D01*
X0031834Y0030021D01*
X0031982Y0029911D01*
X0032127Y0029797D01*
X0032269Y0029679D01*
X0032409Y0029558D01*
X0032545Y0029434D01*
X0032679Y0029307D01*
X0032809Y0029176D01*
X0032937Y0029043D01*
X0033061Y0028906D01*
X0033181Y0028767D01*
X0033109Y0028706D01*
X0032990Y0028844D01*
X0032867Y0028979D01*
X0032742Y0029111D01*
X0032613Y0029240D01*
X0032481Y0029366D01*
X0032346Y0029488D01*
X0032208Y0029608D01*
X0032068Y0029724D01*
X0031924Y0029836D01*
X0031778Y0029945D01*
X0031630Y0030051D01*
X0031479Y0030153D01*
X0031325Y0030251D01*
X0031170Y0030346D01*
X0031012Y0030437D01*
X0030851Y0030524D01*
X0030689Y0030607D01*
X0030525Y0030686D01*
X0030359Y0030761D01*
X0030191Y0030833D01*
X0030022Y0030900D01*
X0029851Y0030963D01*
X0029679Y0031022D01*
X0029505Y0031077D01*
X0029330Y0031128D01*
X0029154Y0031175D01*
X0028976Y0031217D01*
X0028798Y0031255D01*
X0028619Y0031289D01*
X0028439Y0031318D01*
X0028259Y0031343D01*
X0028078Y0031364D01*
X0027896Y0031381D01*
X0027714Y0031393D01*
X0027532Y0031400D01*
X0027350Y0031404D01*
D13*
X0033500Y0028900D02*
X0033500Y0026900D01*
X0033500Y0020500D02*
X0033500Y0018700D01*
X0040600Y0018200D02*
X0040600Y0020200D01*
X0040600Y0026600D02*
X0040600Y0028400D01*
D14*
X0172131Y0020446D02*
X0207564Y0020446D01*
X0207564Y0051154D01*
X0172131Y0051154D01*
X0172131Y0020446D01*
X0185910Y0032847D02*
X0185910Y0038753D01*
X0205595Y0040721D01*
X0205595Y0043674D02*
X0187879Y0041706D01*
X0187879Y0049580D02*
X0205595Y0047611D01*
X0205595Y0043674D01*
X0205595Y0030879D02*
X0185910Y0032847D01*
X0189847Y0029894D02*
X0205595Y0027926D01*
X0205595Y0023989D01*
X0189847Y0022020D01*
M02*
