G75*
%MOIN*%
%OFA0B0*%
%FSLAX25Y25*%
%IPPOS*%
%LPD*%
%AMOC8*
5,1,8,0,0,1.08239X$1,22.5*
%
%ADD10C,0.00000*%
%ADD11OC8,0.05200*%
%ADD12C,0.05200*%
%ADD13C,0.07400*%
%ADD14C,0.05200*%
%ADD15C,0.05150*%
%ADD16C,0.11220*%
%ADD17C,0.05937*%
%ADD18C,0.01200*%
%ADD19C,0.02978*%
D10*
X0011300Y0011300D02*
X0011300Y0208150D01*
X0208150Y0208150D01*
X0208150Y0011300D01*
X0011300Y0011300D01*
D11*
X0038800Y0048800D03*
X0049800Y0048800D03*
X0060300Y0048800D03*
X0076300Y0057300D03*
X0076300Y0067300D03*
X0060300Y0088800D03*
X0049800Y0088800D03*
X0038800Y0088800D03*
X0086800Y0029800D03*
X0086800Y0019800D03*
X0103800Y0019800D03*
X0111300Y0024800D03*
X0103800Y0029800D03*
X0122800Y0028800D03*
X0122800Y0018800D03*
X0067800Y0017800D03*
X0144300Y0123300D03*
X0139300Y0173800D03*
X0139300Y0183800D03*
X0113300Y0201300D03*
X0073300Y0201300D03*
D12*
X0144300Y0103300D03*
X0067800Y0037800D03*
D13*
X0051800Y0023300D03*
X0041800Y0023300D03*
X0032300Y0023800D03*
X0022300Y0023800D03*
X0021800Y0041800D03*
X0021800Y0061800D03*
X0016300Y0076300D03*
X0016300Y0086300D03*
X0016300Y0096300D03*
X0016300Y0106300D03*
X0016300Y0116300D03*
X0016300Y0126300D03*
X0016300Y0136300D03*
X0016300Y0146300D03*
X0016300Y0156300D03*
X0016300Y0166300D03*
X0016300Y0176300D03*
X0016300Y0186300D03*
X0016300Y0196300D03*
X0043300Y0195800D03*
X0063300Y0195800D03*
X0072800Y0109800D03*
X0072800Y0099800D03*
X0072800Y0089800D03*
X0203800Y0086300D03*
X0203800Y0076300D03*
X0203800Y0096300D03*
X0203800Y0106300D03*
X0203800Y0116300D03*
X0203800Y0126300D03*
X0203800Y0136300D03*
X0203800Y0146300D03*
D14*
X0122719Y0143662D02*
X0117519Y0143662D01*
X0117519Y0133662D02*
X0122719Y0133662D01*
X0122719Y0123662D02*
X0117519Y0123662D01*
X0117519Y0113662D02*
X0122719Y0113662D01*
X0122719Y0103662D02*
X0117519Y0103662D01*
X0117519Y0093662D02*
X0122719Y0093662D01*
X0122719Y0083662D02*
X0117519Y0083662D01*
X0117519Y0073662D02*
X0122719Y0073662D01*
X0122719Y0063662D02*
X0117519Y0063662D01*
X0117519Y0053662D02*
X0122719Y0053662D01*
X0092719Y0053662D02*
X0087519Y0053662D01*
X0087519Y0063662D02*
X0092719Y0063662D01*
X0092719Y0073662D02*
X0087519Y0073662D01*
X0087519Y0083662D02*
X0092719Y0083662D01*
X0092719Y0093662D02*
X0087519Y0093662D01*
X0087519Y0103662D02*
X0092719Y0103662D01*
X0092719Y0113662D02*
X0087519Y0113662D01*
X0087519Y0123662D02*
X0092719Y0123662D01*
X0092719Y0133662D02*
X0087519Y0133662D01*
X0087519Y0143662D02*
X0092719Y0143662D01*
X0092719Y0153662D02*
X0087519Y0153662D01*
X0087519Y0163662D02*
X0092719Y0163662D01*
X0092719Y0173662D02*
X0087519Y0173662D01*
X0087519Y0183662D02*
X0092719Y0183662D01*
X0117519Y0183662D02*
X0122719Y0183662D01*
X0122719Y0173662D02*
X0117519Y0173662D01*
X0117519Y0163662D02*
X0122719Y0163662D01*
X0122719Y0153662D02*
X0117519Y0153662D01*
D15*
X0172721Y0042099D03*
X0177446Y0038950D03*
X0172721Y0035800D03*
X0177446Y0032650D03*
X0172721Y0029501D03*
X0157174Y0021300D03*
X0149300Y0021300D03*
X0141426Y0021300D03*
D16*
X0192800Y0021430D03*
X0192800Y0050170D03*
D17*
X0165048Y0021300D03*
X0133552Y0021300D03*
D18*
X0133926Y0028800D02*
X0122800Y0028800D01*
X0118800Y0024800D01*
X0111300Y0024800D01*
X0103800Y0029800D02*
X0086800Y0029800D01*
X0078800Y0037800D01*
X0097800Y0037800D01*
X0106300Y0046300D01*
X0111300Y0041300D02*
X0159497Y0041300D01*
X0159686Y0041489D01*
X0161489Y0041489D01*
X0166300Y0046300D01*
X0173859Y0046300D01*
X0176496Y0043663D01*
X0176496Y0039899D01*
X0177446Y0038950D01*
X0181220Y0037386D02*
X0181220Y0043880D01*
X0175800Y0049300D01*
X0158300Y0049300D01*
X0157800Y0049300D01*
X0171162Y0053662D02*
X0203550Y0086050D01*
X0203550Y0086300D01*
X0203800Y0096300D02*
X0171162Y0063662D01*
X0120119Y0063662D01*
X0120119Y0053662D02*
X0171162Y0053662D01*
X0181220Y0037386D02*
X0177446Y0033611D01*
X0177446Y0032650D01*
X0172721Y0029501D02*
X0157501Y0029501D01*
X0149300Y0021300D01*
X0141426Y0021300D02*
X0133926Y0028800D01*
X0090119Y0063662D02*
X0076300Y0067300D01*
X0090119Y0063662D02*
X0076300Y0049843D01*
X0064631Y0049843D01*
X0061874Y0052600D01*
X0042600Y0052600D01*
X0038800Y0048800D01*
X0036300Y0066300D02*
X0016300Y0086300D01*
X0016300Y0096300D02*
X0038800Y0073800D01*
X0038938Y0073662D01*
X0090119Y0073662D01*
X0090119Y0083662D02*
X0043938Y0083662D01*
X0038800Y0088800D01*
X0016300Y0106300D01*
X0016300Y0116300D02*
X0090119Y0123662D01*
X0090119Y0133662D02*
X0016300Y0126300D01*
X0016300Y0136300D02*
X0062757Y0136300D01*
X0090119Y0163662D01*
X0090119Y0173662D02*
X0062757Y0146300D01*
X0016300Y0146300D01*
X0016300Y0186300D02*
X0081300Y0186300D01*
X0096300Y0201300D01*
X0113300Y0201300D01*
X0120257Y0183800D02*
X0120119Y0183662D01*
X0120257Y0183800D02*
X0139300Y0183800D01*
X0120119Y0163662D02*
X0137481Y0146300D01*
X0203800Y0146300D01*
X0203800Y0136300D02*
X0137481Y0136300D01*
X0120119Y0153662D01*
X0120119Y0143662D02*
X0137481Y0126300D01*
X0203800Y0126300D01*
X0203800Y0116300D02*
X0171162Y0083662D01*
X0120119Y0083662D01*
X0120119Y0073662D02*
X0171162Y0073662D01*
X0203800Y0106300D01*
X0144300Y0103300D02*
X0120481Y0103300D01*
X0120119Y0103662D01*
X0090119Y0103662D02*
X0083981Y0109800D01*
X0072800Y0109800D01*
X0090119Y0093662D02*
X0086257Y0089800D01*
X0072800Y0089800D01*
X0059843Y0066300D02*
X0036300Y0066300D01*
X0059843Y0066300D02*
X0076300Y0049843D01*
X0076300Y0037800D01*
X0067800Y0037800D01*
X0066300Y0037800D01*
X0051800Y0023300D01*
X0076300Y0037800D02*
X0078800Y0037800D01*
X0043300Y0195800D02*
X0043800Y0196300D01*
X0045050Y0197550D01*
X0048800Y0201300D01*
X0073300Y0201300D01*
X0043800Y0196300D02*
X0016300Y0196300D01*
D19*
X0038800Y0073800D03*
X0106300Y0046300D03*
X0111300Y0041300D03*
X0158300Y0049300D03*
M02*
