%
M48
M72
T01C0.01378
T02C0.03150
T03C0.03200
T04C0.03937
T05C0.04000
T06C0.07480
%
T01
X38800Y73800
X106300Y46300
X111300Y41300
X158300Y49300
T02
X141426Y21300
X149300Y21300
X157174Y21300
X172721Y29501
X177446Y32650
X172721Y35800
X177446Y38950
X172721Y42099
T03
X22300Y23800
X32300Y23800
X41800Y23300
X51800Y23300
X67800Y17800
X86800Y19800
X86800Y29800
X103800Y29800
X111300Y24800
X103800Y19800
X122800Y18800
X122800Y28800
X120119Y53662
X120119Y63662
X120119Y73662
X120119Y83662
X120119Y93662
X120119Y103662
X120119Y113662
X120119Y123662
X120119Y133662
X120119Y143662
X120119Y153662
X120119Y163662
X120119Y173662
X120119Y183662
X113300Y201300
X90119Y183662
X90119Y173662
X90119Y163662
X90119Y153662
X90119Y143662
X90119Y133662
X90119Y123662
X90119Y113662
X90119Y103662
X90119Y93662
X90119Y83662
X90119Y73662
X90119Y63662
X90119Y53662
X76300Y57300
X76300Y67300
X60300Y48800
X49800Y48800
X38800Y48800
X67800Y37800
X60300Y88800
X49800Y88800
X38800Y88800
X139300Y173800
X139300Y183800
X144300Y123300
X144300Y103300
X73300Y201300
T04
X133552Y21300
X165048Y21300
T05
X21800Y41800
X21800Y61800
X16300Y76300
X16300Y86300
X16300Y96300
X16300Y106300
X16300Y116300
X16300Y126300
X16300Y136300
X16300Y146300
X16300Y156300
X16300Y166300
X16300Y176300
X16300Y186300
X16300Y196300
X43300Y195800
X63300Y195800
X72800Y109800
X72800Y99800
X72800Y89800
X203800Y86300
X203800Y76300
X203800Y96300
X203800Y106300
X203800Y116300
X203800Y126300
X203800Y136300
X203800Y146300
T06
X192800Y50170
X192800Y21430
M30
